%TF.GenerationSoftware,KiCad,Pcbnew,9.0.7*%
%TF.CreationDate,2026-06-22T23:15:00-07:00*%
%TF.ProjectId,clock-radio,636c6f63-6b2d-4726-9164-696f2e6b6963,rev?*%
%TF.SameCoordinates,Original*%
%TF.FileFunction,Copper,L2,Inr*%
%TF.FilePolarity,Positive*%
%FSLAX46Y46*%
G04 Gerber Fmt 4.6, Leading zero omitted, Abs format (unit mm)*
G04 Created by KiCad (PCBNEW 9.0.7) date 2026-06-22 23:15:00*
%MOMM*%
%LPD*%
G01*
G04 APERTURE LIST*
G04 Aperture macros list*
%AMRoundRect*
0 Rectangle with rounded corners*
0 $1 Rounding radius*
0 $2 $3 $4 $5 $6 $7 $8 $9 X,Y pos of 4 corners*
0 Add a 4 corners polygon primitive as box body*
4,1,4,$2,$3,$4,$5,$6,$7,$8,$9,$2,$3,0*
0 Add four circle primitives for the rounded corners*
1,1,$1+$1,$2,$3*
1,1,$1+$1,$4,$5*
1,1,$1+$1,$6,$7*
1,1,$1+$1,$8,$9*
0 Add four rect primitives between the rounded corners*
20,1,$1+$1,$2,$3,$4,$5,0*
20,1,$1+$1,$4,$5,$6,$7,0*
20,1,$1+$1,$6,$7,$8,$9,0*
20,1,$1+$1,$8,$9,$2,$3,0*%
G04 Aperture macros list end*
%TA.AperFunction,ComponentPad*%
%ADD10R,1.700000X1.700000*%
%TD*%
%TA.AperFunction,ComponentPad*%
%ADD11C,1.700000*%
%TD*%
%TA.AperFunction,ComponentPad*%
%ADD12RoundRect,0.250000X-1.050000X-1.050000X1.050000X-1.050000X1.050000X1.050000X-1.050000X1.050000X0*%
%TD*%
%TA.AperFunction,HeatsinkPad*%
%ADD13O,1.000000X2.100000*%
%TD*%
%TA.AperFunction,HeatsinkPad*%
%ADD14O,1.000000X1.600000*%
%TD*%
%TA.AperFunction,ViaPad*%
%ADD15C,0.700000*%
%TD*%
%TA.AperFunction,Conductor*%
%ADD16C,0.600000*%
%TD*%
G04 APERTURE END LIST*
D10*
%TO.N,SWDIO*%
%TO.C,J4*%
X141800000Y-51580000D03*
D11*
%TO.N,SWCLK*%
X141800000Y-54120000D03*
%TO.N,UART_TX*%
X141800000Y-56660000D03*
%TO.N,UART_RX*%
X141800000Y-59200000D03*
%TD*%
D12*
%TO.N,Net-(J2-Pin_1)*%
%TO.C,J2*%
X141800000Y-39300000D03*
%TD*%
D10*
%TO.N,GND*%
%TO.C,J1*%
X159660000Y-66600000D03*
D11*
%TO.N,+3V3*%
X162200000Y-66600000D03*
%TO.N,TIM2_CH1*%
X164740000Y-66600000D03*
%TO.N,TIM2_CH2*%
X167280000Y-66600000D03*
%TO.N,Button*%
X169820000Y-66600000D03*
%TD*%
D13*
%TO.N,Net-(J3-SHIELD)*%
%TO.C,J3*%
X158430000Y-42500000D03*
D14*
X158430000Y-38320000D03*
D13*
X149790000Y-42500000D03*
D14*
X149790000Y-38320000D03*
%TD*%
D10*
%TO.N,Net-(J7-Pin_1)*%
%TO.C,J7*%
X169975000Y-42250000D03*
D11*
%TO.N,GND*%
X169975000Y-39710000D03*
%TD*%
D10*
%TO.N,Net-(J6-Pin_1)*%
%TO.C,J6*%
X141800000Y-65700000D03*
D11*
%TO.N,Net-(J6-Pin_2)*%
X141800000Y-63160000D03*
%TD*%
D10*
%TO.N,GND*%
%TO.C,J5*%
X170000000Y-59600000D03*
D11*
%TO.N,+5V*%
X170000000Y-57060000D03*
%TO.N,SCL*%
X170000000Y-54520000D03*
%TO.N,SDA*%
X170000000Y-51980000D03*
%TD*%
D15*
%TO.N,GND*%
X140500000Y-47750000D03*
X150000000Y-44600000D03*
X146100000Y-59550000D03*
X163100000Y-61100000D03*
X165900000Y-41100000D03*
X157400000Y-66600000D03*
X170000000Y-49700000D03*
X158250000Y-44750000D03*
X151800000Y-48200000D03*
X156200000Y-64400000D03*
X140500000Y-44250000D03*
X152400000Y-63000000D03*
X140500000Y-46250000D03*
X161635000Y-40400000D03*
X144050000Y-65250000D03*
X168900000Y-62100000D03*
X154400000Y-65600000D03*
%TO.N,+5V*%
X167600000Y-55600000D03*
X144100000Y-66650000D03*
X151400000Y-44600000D03*
X146400000Y-61400000D03*
X156600000Y-44800000D03*
X155000000Y-48100000D03*
X160000000Y-44000000D03*
%TO.N,DAC1*%
X157850000Y-56850000D03*
%TO.N,+3V3*%
X160000000Y-64400000D03*
X160000000Y-62300000D03*
X170000000Y-47300000D03*
X163400000Y-58600000D03*
X165800000Y-61100000D03*
%TO.N,TIM2_CH2*%
X159250000Y-60750000D03*
X163796041Y-64453959D03*
%TO.N,Button*%
X166500000Y-64500000D03*
X164248959Y-60751041D03*
%TO.N,SDA*%
X163610000Y-50460000D03*
%TO.N,SCL*%
X164310000Y-53200000D03*
X162850000Y-52500000D03*
%TO.N,UART_RX*%
X147900000Y-57700000D03*
X144400000Y-58600000D03*
%TO.N,SWDIO*%
X152700000Y-51700000D03*
X144600000Y-52000000D03*
%TO.N,RTC_INT*%
X167800000Y-47000000D03*
X162000000Y-54000000D03*
%TO.N,SD*%
X157550000Y-53750000D03*
%TD*%
D16*
%TO.N,+3V3*%
X165800000Y-61100000D02*
X165800000Y-61000000D01*
%TD*%
%TA.AperFunction,Conductor*%
%TO.N,+3V3*%
G36*
X171142539Y-46419685D02*
G01*
X171188294Y-46472489D01*
X171199500Y-46524000D01*
X171199500Y-51507370D01*
X171179815Y-51574409D01*
X171127011Y-51620164D01*
X171057853Y-51630108D01*
X170994297Y-51601083D01*
X170960939Y-51554823D01*
X170930941Y-51482403D01*
X170930941Y-51482402D01*
X170815977Y-51310345D01*
X170815975Y-51310342D01*
X170669657Y-51164024D01*
X170583626Y-51106541D01*
X170497598Y-51049059D01*
X170306420Y-50969870D01*
X170306412Y-50969868D01*
X170103469Y-50929500D01*
X170103465Y-50929500D01*
X169896535Y-50929500D01*
X169896530Y-50929500D01*
X169693587Y-50969868D01*
X169693579Y-50969870D01*
X169502403Y-51049058D01*
X169330342Y-51164024D01*
X169184024Y-51310342D01*
X169069058Y-51482403D01*
X168989870Y-51673579D01*
X168989868Y-51673587D01*
X168949500Y-51876530D01*
X168949500Y-52083469D01*
X168989868Y-52286412D01*
X168989870Y-52286420D01*
X169069058Y-52477596D01*
X169184024Y-52649657D01*
X169330342Y-52795975D01*
X169330345Y-52795977D01*
X169502402Y-52910941D01*
X169693580Y-52990130D01*
X169808476Y-53012984D01*
X169896530Y-53030499D01*
X169896534Y-53030500D01*
X169896535Y-53030500D01*
X170103466Y-53030500D01*
X170103467Y-53030499D01*
X170306420Y-52990130D01*
X170497598Y-52910941D01*
X170669655Y-52795977D01*
X170815977Y-52649655D01*
X170930941Y-52477598D01*
X170960939Y-52405177D01*
X171004780Y-52350773D01*
X171071074Y-52328708D01*
X171138773Y-52345987D01*
X171186384Y-52397124D01*
X171199500Y-52452629D01*
X171199500Y-54047370D01*
X171179815Y-54114409D01*
X171127011Y-54160164D01*
X171057853Y-54170108D01*
X170994297Y-54141083D01*
X170960939Y-54094823D01*
X170930941Y-54022403D01*
X170930941Y-54022402D01*
X170815977Y-53850345D01*
X170815975Y-53850342D01*
X170669657Y-53704024D01*
X170574599Y-53640509D01*
X170497598Y-53589059D01*
X170306420Y-53509870D01*
X170306412Y-53509868D01*
X170103469Y-53469500D01*
X170103465Y-53469500D01*
X169896535Y-53469500D01*
X169896530Y-53469500D01*
X169693587Y-53509868D01*
X169693579Y-53509870D01*
X169502403Y-53589058D01*
X169330342Y-53704024D01*
X169184024Y-53850342D01*
X169069058Y-54022403D01*
X168989870Y-54213579D01*
X168989868Y-54213587D01*
X168949500Y-54416530D01*
X168949500Y-54623469D01*
X168989868Y-54826412D01*
X168989870Y-54826420D01*
X169069058Y-55017596D01*
X169184024Y-55189657D01*
X169330342Y-55335975D01*
X169330345Y-55335977D01*
X169502402Y-55450941D01*
X169693580Y-55530130D01*
X169896530Y-55570499D01*
X169896534Y-55570500D01*
X169896535Y-55570500D01*
X170103466Y-55570500D01*
X170103467Y-55570499D01*
X170306420Y-55530130D01*
X170497598Y-55450941D01*
X170669655Y-55335977D01*
X170815977Y-55189655D01*
X170930941Y-55017598D01*
X170960939Y-54945177D01*
X171004780Y-54890773D01*
X171071074Y-54868708D01*
X171138773Y-54885987D01*
X171186384Y-54937124D01*
X171199500Y-54992629D01*
X171199500Y-56587370D01*
X171179815Y-56654409D01*
X171127011Y-56700164D01*
X171057853Y-56710108D01*
X170994297Y-56681083D01*
X170960939Y-56634823D01*
X170930941Y-56562403D01*
X170930941Y-56562402D01*
X170815977Y-56390345D01*
X170815975Y-56390342D01*
X170669657Y-56244024D01*
X170529687Y-56150500D01*
X170497598Y-56129059D01*
X170306420Y-56049870D01*
X170306412Y-56049868D01*
X170103469Y-56009500D01*
X170103465Y-56009500D01*
X169896535Y-56009500D01*
X169896530Y-56009500D01*
X169693587Y-56049868D01*
X169693579Y-56049870D01*
X169502403Y-56129058D01*
X169330342Y-56244024D01*
X169184024Y-56390342D01*
X169069058Y-56562403D01*
X168989870Y-56753579D01*
X168989868Y-56753587D01*
X168949500Y-56956530D01*
X168949500Y-57163469D01*
X168989868Y-57366412D01*
X168989870Y-57366420D01*
X169068341Y-57555866D01*
X169069059Y-57557598D01*
X169126541Y-57643626D01*
X169184024Y-57729657D01*
X169330342Y-57875975D01*
X169330345Y-57875977D01*
X169502402Y-57990941D01*
X169693580Y-58070130D01*
X169896530Y-58110499D01*
X169896534Y-58110500D01*
X169896535Y-58110500D01*
X170103466Y-58110500D01*
X170103467Y-58110499D01*
X170306420Y-58070130D01*
X170497598Y-57990941D01*
X170669655Y-57875977D01*
X170815977Y-57729655D01*
X170930941Y-57557598D01*
X170931659Y-57555866D01*
X170960939Y-57485177D01*
X171004780Y-57430773D01*
X171071074Y-57408708D01*
X171138773Y-57425987D01*
X171186384Y-57477124D01*
X171199500Y-57532629D01*
X171199500Y-58511033D01*
X171179815Y-58578072D01*
X171127011Y-58623827D01*
X171057853Y-58633771D01*
X171006106Y-58610139D01*
X171004707Y-58612233D01*
X170928230Y-58561132D01*
X170928229Y-58561131D01*
X170869752Y-58549500D01*
X170869748Y-58549500D01*
X169130252Y-58549500D01*
X169130247Y-58549500D01*
X169071770Y-58561131D01*
X169071769Y-58561132D01*
X169005447Y-58605447D01*
X168961132Y-58671769D01*
X168961131Y-58671770D01*
X168949500Y-58730247D01*
X168949500Y-60469752D01*
X168961131Y-60528229D01*
X168961132Y-60528230D01*
X169005447Y-60594552D01*
X169071769Y-60638867D01*
X169071770Y-60638868D01*
X169130247Y-60650499D01*
X169130250Y-60650500D01*
X169130252Y-60650500D01*
X170869750Y-60650500D01*
X170869751Y-60650499D01*
X170884568Y-60647552D01*
X170928229Y-60638868D01*
X170928229Y-60638867D01*
X170928231Y-60638867D01*
X170994552Y-60594552D01*
X170994551Y-60594552D01*
X171004707Y-60587767D01*
X171006810Y-60590915D01*
X171049142Y-60567801D01*
X171118834Y-60572785D01*
X171174767Y-60614657D01*
X171199184Y-60680121D01*
X171199500Y-60688967D01*
X171199500Y-62876000D01*
X171179815Y-62943039D01*
X171127011Y-62988794D01*
X171075500Y-63000000D01*
X161100000Y-63000000D01*
X161100000Y-64876000D01*
X161080315Y-64943039D01*
X161027511Y-64988794D01*
X160976000Y-65000000D01*
X159624000Y-65000000D01*
X159556961Y-64980315D01*
X159511206Y-64927511D01*
X159500000Y-64876000D01*
X159500000Y-62027525D01*
X168349500Y-62027525D01*
X168349500Y-62172475D01*
X168387016Y-62312485D01*
X168387017Y-62312488D01*
X168459488Y-62438011D01*
X168459490Y-62438013D01*
X168459491Y-62438015D01*
X168561985Y-62540509D01*
X168561986Y-62540510D01*
X168561988Y-62540511D01*
X168687511Y-62612982D01*
X168687512Y-62612982D01*
X168687515Y-62612984D01*
X168827525Y-62650500D01*
X168827528Y-62650500D01*
X168972472Y-62650500D01*
X168972475Y-62650500D01*
X169112485Y-62612984D01*
X169238015Y-62540509D01*
X169340509Y-62438015D01*
X169412984Y-62312485D01*
X169450500Y-62172475D01*
X169450500Y-62027525D01*
X169412984Y-61887515D01*
X169340509Y-61761985D01*
X169238015Y-61659491D01*
X169238013Y-61659490D01*
X169238011Y-61659488D01*
X169112488Y-61587017D01*
X169112489Y-61587017D01*
X169101006Y-61583940D01*
X168972475Y-61549500D01*
X168827525Y-61549500D01*
X168698993Y-61583940D01*
X168687511Y-61587017D01*
X168561988Y-61659488D01*
X168561982Y-61659493D01*
X168459493Y-61761982D01*
X168459488Y-61761988D01*
X168387017Y-61887511D01*
X168387016Y-61887515D01*
X168349500Y-62027525D01*
X159500000Y-62027525D01*
X159500000Y-61312915D01*
X159519685Y-61245876D01*
X159562000Y-61205528D01*
X159588015Y-61190509D01*
X159690509Y-61088015D01*
X159725433Y-61027525D01*
X162549500Y-61027525D01*
X162549500Y-61172475D01*
X162574031Y-61264025D01*
X162587017Y-61312488D01*
X162659488Y-61438011D01*
X162659490Y-61438013D01*
X162659491Y-61438015D01*
X162761985Y-61540509D01*
X162761986Y-61540510D01*
X162761988Y-61540511D01*
X162887511Y-61612982D01*
X162887512Y-61612982D01*
X162887515Y-61612984D01*
X163027525Y-61650500D01*
X163027528Y-61650500D01*
X163172472Y-61650500D01*
X163172475Y-61650500D01*
X163312485Y-61612984D01*
X163438015Y-61540509D01*
X163540509Y-61438015D01*
X163612984Y-61312485D01*
X163645920Y-61189565D01*
X163682284Y-61129908D01*
X163745131Y-61099379D01*
X163814507Y-61107674D01*
X163853375Y-61133981D01*
X163910944Y-61191550D01*
X163910945Y-61191551D01*
X163910947Y-61191552D01*
X164036470Y-61264023D01*
X164036471Y-61264023D01*
X164036474Y-61264025D01*
X164176484Y-61301541D01*
X164176487Y-61301541D01*
X164321431Y-61301541D01*
X164321434Y-61301541D01*
X164461444Y-61264025D01*
X164586974Y-61191550D01*
X164689468Y-61089056D01*
X164761943Y-60963526D01*
X164799459Y-60823516D01*
X164799459Y-60678566D01*
X164761943Y-60538556D01*
X164755981Y-60528230D01*
X164689470Y-60413029D01*
X164689465Y-60413023D01*
X164586976Y-60310534D01*
X164586970Y-60310529D01*
X164461447Y-60238058D01*
X164461448Y-60238058D01*
X164449965Y-60234981D01*
X164321434Y-60200541D01*
X164176484Y-60200541D01*
X164047952Y-60234981D01*
X164036470Y-60238058D01*
X163910947Y-60310529D01*
X163910941Y-60310534D01*
X163808452Y-60413023D01*
X163808447Y-60413029D01*
X163735976Y-60538552D01*
X163735974Y-60538556D01*
X163703038Y-60661473D01*
X163666673Y-60721133D01*
X163603826Y-60751661D01*
X163534450Y-60743366D01*
X163495583Y-60717059D01*
X163438017Y-60659493D01*
X163438011Y-60659488D01*
X163312488Y-60587017D01*
X163312489Y-60587017D01*
X163301006Y-60583940D01*
X163172475Y-60549500D01*
X163027525Y-60549500D01*
X162898993Y-60583940D01*
X162887511Y-60587017D01*
X162761988Y-60659488D01*
X162761982Y-60659493D01*
X162659493Y-60761982D01*
X162659488Y-60761988D01*
X162587017Y-60887511D01*
X162587016Y-60887515D01*
X162549500Y-61027525D01*
X159725433Y-61027525D01*
X159762984Y-60962485D01*
X159800500Y-60822475D01*
X159800500Y-60677525D01*
X159762984Y-60537515D01*
X159757623Y-60528230D01*
X159690511Y-60411988D01*
X159690506Y-60411982D01*
X159588017Y-60309493D01*
X159588015Y-60309491D01*
X159561998Y-60294470D01*
X159513784Y-60243903D01*
X159500000Y-60187084D01*
X159500000Y-57622905D01*
X159519685Y-57555866D01*
X159572489Y-57510111D01*
X159622898Y-57498910D01*
X168100000Y-57423769D01*
X168086117Y-55893373D01*
X168102725Y-55830253D01*
X168112984Y-55812485D01*
X168150500Y-55672475D01*
X168150500Y-55527525D01*
X168112984Y-55387515D01*
X168097338Y-55360415D01*
X168080730Y-55299540D01*
X168079733Y-55189657D01*
X168029277Y-49627525D01*
X169449500Y-49627525D01*
X169449500Y-49772475D01*
X169486216Y-49909500D01*
X169487017Y-49912488D01*
X169559488Y-50038011D01*
X169559490Y-50038013D01*
X169559491Y-50038015D01*
X169661985Y-50140509D01*
X169661986Y-50140510D01*
X169661988Y-50140511D01*
X169787511Y-50212982D01*
X169787512Y-50212982D01*
X169787515Y-50212984D01*
X169927525Y-50250500D01*
X169927528Y-50250500D01*
X170072472Y-50250500D01*
X170072475Y-50250500D01*
X170212485Y-50212984D01*
X170338015Y-50140509D01*
X170440509Y-50038015D01*
X170512984Y-49912485D01*
X170550500Y-49772475D01*
X170550500Y-49627525D01*
X170512984Y-49487515D01*
X170440509Y-49361985D01*
X170338015Y-49259491D01*
X170338013Y-49259490D01*
X170338011Y-49259488D01*
X170212488Y-49187017D01*
X170212489Y-49187017D01*
X170201006Y-49183940D01*
X170072475Y-49149500D01*
X169927525Y-49149500D01*
X169798993Y-49183940D01*
X169787511Y-49187017D01*
X169661988Y-49259488D01*
X169661982Y-49259493D01*
X169559493Y-49361982D01*
X169559488Y-49361988D01*
X169487017Y-49487511D01*
X169487016Y-49487515D01*
X169449500Y-49627525D01*
X168029277Y-49627525D01*
X168010764Y-47586692D01*
X168029840Y-47519481D01*
X168072760Y-47478184D01*
X168138015Y-47440509D01*
X168240509Y-47338015D01*
X168312984Y-47212485D01*
X168350500Y-47072475D01*
X168350500Y-46927525D01*
X168312984Y-46787515D01*
X168240509Y-46661985D01*
X168190205Y-46611681D01*
X168156720Y-46550358D01*
X168161704Y-46480666D01*
X168203576Y-46424733D01*
X168269040Y-46400316D01*
X168277886Y-46400000D01*
X171075500Y-46400000D01*
X171142539Y-46419685D01*
G37*
%TD.AperFunction*%
%TD*%
%TA.AperFunction,Conductor*%
%TO.N,+5V*%
G36*
X149413867Y-37220185D02*
G01*
X149459622Y-37272989D01*
X149469566Y-37342147D01*
X149440541Y-37405703D01*
X149415719Y-37427602D01*
X149343458Y-37475885D01*
X149343454Y-37475888D01*
X149245888Y-37573454D01*
X149245885Y-37573458D01*
X149169228Y-37688182D01*
X149169221Y-37688195D01*
X149116421Y-37815667D01*
X149116418Y-37815677D01*
X149089500Y-37951004D01*
X149089500Y-37951007D01*
X149089500Y-38688993D01*
X149089500Y-38688995D01*
X149089499Y-38688995D01*
X149116418Y-38824322D01*
X149116421Y-38824332D01*
X149169221Y-38951804D01*
X149169228Y-38951817D01*
X149245885Y-39066541D01*
X149245888Y-39066545D01*
X149343454Y-39164111D01*
X149343458Y-39164114D01*
X149458182Y-39240771D01*
X149458195Y-39240778D01*
X149561957Y-39283757D01*
X149585672Y-39293580D01*
X149585676Y-39293580D01*
X149585677Y-39293581D01*
X149721004Y-39320500D01*
X149721007Y-39320500D01*
X149858995Y-39320500D01*
X149950041Y-39302389D01*
X149994328Y-39293580D01*
X150121811Y-39240775D01*
X150236542Y-39164114D01*
X150334114Y-39066542D01*
X150410775Y-38951811D01*
X150463580Y-38824328D01*
X150484291Y-38720208D01*
X150490500Y-38688995D01*
X150490500Y-37951004D01*
X150463581Y-37815677D01*
X150463580Y-37815676D01*
X150463580Y-37815672D01*
X150456881Y-37799500D01*
X150410778Y-37688195D01*
X150410771Y-37688182D01*
X150334114Y-37573458D01*
X150334111Y-37573454D01*
X150236545Y-37475888D01*
X150236541Y-37475885D01*
X150164281Y-37427602D01*
X150119476Y-37373990D01*
X150110769Y-37304665D01*
X150140924Y-37241637D01*
X150200367Y-37204918D01*
X150233172Y-37200500D01*
X157986828Y-37200500D01*
X158053867Y-37220185D01*
X158099622Y-37272989D01*
X158109566Y-37342147D01*
X158080541Y-37405703D01*
X158055719Y-37427602D01*
X157983458Y-37475885D01*
X157983454Y-37475888D01*
X157885888Y-37573454D01*
X157885885Y-37573458D01*
X157809228Y-37688182D01*
X157809221Y-37688195D01*
X157756421Y-37815667D01*
X157756418Y-37815677D01*
X157729500Y-37951004D01*
X157729500Y-37951007D01*
X157729500Y-38688993D01*
X157729500Y-38688995D01*
X157729499Y-38688995D01*
X157756418Y-38824322D01*
X157756421Y-38824332D01*
X157809221Y-38951804D01*
X157809228Y-38951817D01*
X157885885Y-39066541D01*
X157885888Y-39066545D01*
X157983454Y-39164111D01*
X157983458Y-39164114D01*
X158098182Y-39240771D01*
X158098195Y-39240778D01*
X158201957Y-39283757D01*
X158225672Y-39293580D01*
X158225676Y-39293580D01*
X158225677Y-39293581D01*
X158361004Y-39320500D01*
X158361007Y-39320500D01*
X158498995Y-39320500D01*
X158590041Y-39302389D01*
X158634328Y-39293580D01*
X158761811Y-39240775D01*
X158876542Y-39164114D01*
X158974114Y-39066542D01*
X159050775Y-38951811D01*
X159103580Y-38824328D01*
X159124291Y-38720208D01*
X159130500Y-38688995D01*
X159130500Y-37951004D01*
X159103581Y-37815677D01*
X159103580Y-37815676D01*
X159103580Y-37815672D01*
X159096881Y-37799500D01*
X159050778Y-37688195D01*
X159050771Y-37688182D01*
X158974114Y-37573458D01*
X158974111Y-37573454D01*
X158876545Y-37475888D01*
X158876541Y-37475885D01*
X158804281Y-37427602D01*
X158759476Y-37373990D01*
X158750769Y-37304665D01*
X158780924Y-37241637D01*
X158840367Y-37204918D01*
X158873172Y-37200500D01*
X171075500Y-37200500D01*
X171142539Y-37220185D01*
X171188294Y-37272989D01*
X171199500Y-37324500D01*
X171199500Y-39297725D01*
X171179815Y-39364764D01*
X171127011Y-39410519D01*
X171057853Y-39420463D01*
X170994297Y-39391438D01*
X170960939Y-39345178D01*
X170905942Y-39212403D01*
X170790975Y-39040342D01*
X170644657Y-38894024D01*
X170540339Y-38824322D01*
X170472598Y-38779059D01*
X170281420Y-38699870D01*
X170281412Y-38699868D01*
X170078469Y-38659500D01*
X170078465Y-38659500D01*
X169871535Y-38659500D01*
X169871530Y-38659500D01*
X169668587Y-38699868D01*
X169668579Y-38699870D01*
X169477403Y-38779058D01*
X169305342Y-38894024D01*
X169159024Y-39040342D01*
X169044058Y-39212403D01*
X168964870Y-39403579D01*
X168964868Y-39403587D01*
X168924500Y-39606530D01*
X168924500Y-39813469D01*
X168964868Y-40016412D01*
X168964870Y-40016420D01*
X169044058Y-40207596D01*
X169159024Y-40379657D01*
X169305342Y-40525975D01*
X169305345Y-40525977D01*
X169477402Y-40640941D01*
X169668580Y-40720130D01*
X169832784Y-40752792D01*
X169871530Y-40760499D01*
X169871534Y-40760500D01*
X169871535Y-40760500D01*
X170078466Y-40760500D01*
X170078467Y-40760499D01*
X170281420Y-40720130D01*
X170472598Y-40640941D01*
X170644655Y-40525977D01*
X170790977Y-40379655D01*
X170905941Y-40207598D01*
X170960939Y-40074820D01*
X171004780Y-40020418D01*
X171071074Y-39998353D01*
X171138773Y-40015632D01*
X171186384Y-40066769D01*
X171199500Y-40122274D01*
X171199500Y-41190815D01*
X171179815Y-41257854D01*
X171127011Y-41303609D01*
X171057853Y-41313553D01*
X170994297Y-41284528D01*
X170972400Y-41259708D01*
X170969554Y-41255449D01*
X170969553Y-41255448D01*
X170903230Y-41211132D01*
X170903229Y-41211131D01*
X170844752Y-41199500D01*
X170844748Y-41199500D01*
X169105252Y-41199500D01*
X169105247Y-41199500D01*
X169046770Y-41211131D01*
X169046769Y-41211132D01*
X168980447Y-41255447D01*
X168936132Y-41321769D01*
X168936131Y-41321770D01*
X168924500Y-41380247D01*
X168924500Y-43119752D01*
X168936131Y-43178229D01*
X168936132Y-43178230D01*
X168980447Y-43244552D01*
X169046769Y-43288867D01*
X169046770Y-43288868D01*
X169105247Y-43300499D01*
X169105250Y-43300500D01*
X169105252Y-43300500D01*
X170844750Y-43300500D01*
X170844751Y-43300499D01*
X170859568Y-43297552D01*
X170903229Y-43288868D01*
X170903229Y-43288867D01*
X170903231Y-43288867D01*
X170969552Y-43244552D01*
X170972397Y-43240293D01*
X171026009Y-43195488D01*
X171095334Y-43186781D01*
X171158362Y-43216935D01*
X171195082Y-43276378D01*
X171199500Y-43309184D01*
X171199500Y-46070500D01*
X171179815Y-46137539D01*
X171127011Y-46183294D01*
X171075500Y-46194500D01*
X168277882Y-46194500D01*
X168274218Y-46194565D01*
X168270550Y-46194631D01*
X168261704Y-46194947D01*
X168261699Y-46194947D01*
X168197227Y-46207772D01*
X168131765Y-46232188D01*
X168108793Y-46242395D01*
X168108790Y-46242397D01*
X168039070Y-46301575D01*
X168039064Y-46301581D01*
X167997203Y-46357499D01*
X167997199Y-46357505D01*
X167997194Y-46357512D01*
X167983387Y-46378523D01*
X167983386Y-46378524D01*
X167978517Y-46385935D01*
X167977355Y-46385171D01*
X167937260Y-46430497D01*
X167871294Y-46449500D01*
X167727525Y-46449500D01*
X167598993Y-46483940D01*
X167587511Y-46487017D01*
X167461988Y-46559488D01*
X167461982Y-46559493D01*
X167359493Y-46661982D01*
X167359488Y-46661988D01*
X167287017Y-46787511D01*
X167287016Y-46787515D01*
X167249500Y-46927525D01*
X167249500Y-47072475D01*
X167283537Y-47199500D01*
X167287017Y-47212488D01*
X167359488Y-47338011D01*
X167359490Y-47338013D01*
X167359491Y-47338015D01*
X167461985Y-47440509D01*
X167587515Y-47512984D01*
X167714071Y-47546895D01*
X167773729Y-47583258D01*
X167804258Y-47646105D01*
X167805970Y-47665543D01*
X167823785Y-49629388D01*
X167824014Y-49654581D01*
X167824014Y-49654583D01*
X167875237Y-55301403D01*
X167882476Y-55353630D01*
X167899084Y-55414502D01*
X167919366Y-55463156D01*
X167924686Y-55478772D01*
X167940774Y-55538810D01*
X167945000Y-55570905D01*
X167945000Y-55629093D01*
X167940774Y-55661189D01*
X167921802Y-55731987D01*
X167916698Y-55747081D01*
X167903988Y-55777964D01*
X167887379Y-55841088D01*
X167887379Y-55841090D01*
X167880626Y-55895229D01*
X167880625Y-55895238D01*
X167891518Y-57096077D01*
X167872442Y-57163293D01*
X167820055Y-57209524D01*
X167768622Y-57221197D01*
X160030897Y-57289785D01*
X159621077Y-57293418D01*
X159621075Y-57293418D01*
X159621060Y-57293419D01*
X159578325Y-57298302D01*
X159527916Y-57309503D01*
X159518626Y-57311795D01*
X159437916Y-57354804D01*
X159437913Y-57354806D01*
X159385104Y-57400565D01*
X159367160Y-57418147D01*
X159367154Y-57418154D01*
X159322511Y-57497964D01*
X159322509Y-57497969D01*
X159302826Y-57565001D01*
X159302825Y-57565006D01*
X159302825Y-57565007D01*
X159297987Y-57598659D01*
X159294500Y-57622908D01*
X159294500Y-60075500D01*
X159274815Y-60142539D01*
X159222011Y-60188294D01*
X159185300Y-60196280D01*
X159185585Y-60198439D01*
X159177528Y-60199499D01*
X159037511Y-60237017D01*
X158911988Y-60309488D01*
X158911982Y-60309493D01*
X158809493Y-60411982D01*
X158809488Y-60411988D01*
X158737017Y-60537511D01*
X158737016Y-60537515D01*
X158699500Y-60677525D01*
X158699500Y-60822475D01*
X158737016Y-60962485D01*
X158737017Y-60962488D01*
X158809488Y-61088011D01*
X158809490Y-61088013D01*
X158809491Y-61088015D01*
X158911985Y-61190509D01*
X158911986Y-61190510D01*
X158911988Y-61190511D01*
X159037511Y-61262982D01*
X159037512Y-61262982D01*
X159037515Y-61262984D01*
X159177525Y-61300500D01*
X159177528Y-61300500D01*
X159185585Y-61301561D01*
X159185157Y-61304804D01*
X159237539Y-61320185D01*
X159283294Y-61372989D01*
X159294500Y-61424500D01*
X159294500Y-64876007D01*
X159299197Y-64919686D01*
X159310397Y-64971174D01*
X159312890Y-64981372D01*
X159312891Y-64981375D01*
X159355899Y-65062083D01*
X159355901Y-65062086D01*
X159401660Y-65114895D01*
X159419242Y-65132839D01*
X159419246Y-65132843D01*
X159419247Y-65132844D01*
X159419249Y-65132845D01*
X159466889Y-65159493D01*
X159499063Y-65177490D01*
X159566102Y-65197175D01*
X159624000Y-65205500D01*
X159624004Y-65205500D01*
X160975991Y-65205500D01*
X160976000Y-65205500D01*
X161019684Y-65200803D01*
X161048875Y-65194452D01*
X161071174Y-65189602D01*
X161071190Y-65189598D01*
X161071195Y-65189597D01*
X161081373Y-65187110D01*
X161162085Y-65144100D01*
X161214889Y-65098345D01*
X161232843Y-65080754D01*
X161277490Y-65000937D01*
X161297175Y-64933898D01*
X161305500Y-64876000D01*
X161305500Y-64381484D01*
X163245541Y-64381484D01*
X163245541Y-64526434D01*
X163281634Y-64661132D01*
X163283058Y-64666447D01*
X163355529Y-64791970D01*
X163355531Y-64791972D01*
X163355532Y-64791974D01*
X163458026Y-64894468D01*
X163458027Y-64894469D01*
X163458029Y-64894470D01*
X163583552Y-64966941D01*
X163583553Y-64966941D01*
X163583556Y-64966943D01*
X163723566Y-65004459D01*
X163723569Y-65004459D01*
X163868513Y-65004459D01*
X163868516Y-65004459D01*
X164008526Y-64966943D01*
X164134056Y-64894468D01*
X164236550Y-64791974D01*
X164309025Y-64666444D01*
X164346541Y-64526434D01*
X164346541Y-64427525D01*
X165949500Y-64427525D01*
X165949500Y-64572475D01*
X165987016Y-64712485D01*
X165987017Y-64712488D01*
X166059488Y-64838011D01*
X166059490Y-64838013D01*
X166059491Y-64838015D01*
X166161985Y-64940509D01*
X166161986Y-64940510D01*
X166161988Y-64940511D01*
X166287511Y-65012982D01*
X166287512Y-65012982D01*
X166287515Y-65012984D01*
X166427525Y-65050500D01*
X166427528Y-65050500D01*
X166572472Y-65050500D01*
X166572475Y-65050500D01*
X166712485Y-65012984D01*
X166838015Y-64940509D01*
X166940509Y-64838015D01*
X167012984Y-64712485D01*
X167050500Y-64572475D01*
X167050500Y-64427525D01*
X167012984Y-64287515D01*
X166968519Y-64210500D01*
X166940511Y-64161988D01*
X166940506Y-64161982D01*
X166838017Y-64059493D01*
X166838011Y-64059488D01*
X166712488Y-63987017D01*
X166712489Y-63987017D01*
X166671287Y-63975977D01*
X166572475Y-63949500D01*
X166427525Y-63949500D01*
X166328713Y-63975977D01*
X166287511Y-63987017D01*
X166161988Y-64059488D01*
X166161982Y-64059493D01*
X166059493Y-64161982D01*
X166059488Y-64161988D01*
X165987017Y-64287511D01*
X165987016Y-64287515D01*
X165949500Y-64427525D01*
X164346541Y-64427525D01*
X164346541Y-64381484D01*
X164309025Y-64241474D01*
X164277869Y-64187511D01*
X164236552Y-64115947D01*
X164236547Y-64115941D01*
X164134058Y-64013452D01*
X164134052Y-64013447D01*
X164008529Y-63940976D01*
X164008530Y-63940976D01*
X163997047Y-63937899D01*
X163868516Y-63903459D01*
X163723566Y-63903459D01*
X163595034Y-63937899D01*
X163583552Y-63940976D01*
X163458029Y-64013447D01*
X163458023Y-64013452D01*
X163355534Y-64115941D01*
X163355529Y-64115947D01*
X163283058Y-64241470D01*
X163283057Y-64241474D01*
X163245541Y-64381484D01*
X161305500Y-64381484D01*
X161305500Y-63329500D01*
X161325185Y-63262461D01*
X161377989Y-63216706D01*
X161429500Y-63205500D01*
X171075500Y-63205500D01*
X171142539Y-63225185D01*
X171188294Y-63277989D01*
X171199500Y-63329500D01*
X171199500Y-67875500D01*
X171179815Y-67942539D01*
X171127011Y-67988294D01*
X171075500Y-67999500D01*
X140024500Y-67999500D01*
X139957461Y-67979815D01*
X139911706Y-67927011D01*
X139900500Y-67875500D01*
X139900500Y-64830247D01*
X140749500Y-64830247D01*
X140749500Y-66569752D01*
X140761131Y-66628229D01*
X140761132Y-66628230D01*
X140805447Y-66694552D01*
X140871769Y-66738867D01*
X140871770Y-66738868D01*
X140930247Y-66750499D01*
X140930250Y-66750500D01*
X140930252Y-66750500D01*
X142669750Y-66750500D01*
X142669751Y-66750499D01*
X142684568Y-66747552D01*
X142728229Y-66738868D01*
X142728229Y-66738867D01*
X142728231Y-66738867D01*
X142794552Y-66694552D01*
X142838867Y-66628231D01*
X142838867Y-66628229D01*
X142838868Y-66628229D01*
X142850499Y-66569752D01*
X142850500Y-66569750D01*
X142850500Y-66527525D01*
X156849500Y-66527525D01*
X156849500Y-66672475D01*
X156870407Y-66750499D01*
X156887017Y-66812488D01*
X156959488Y-66938011D01*
X156959490Y-66938013D01*
X156959491Y-66938015D01*
X157061985Y-67040509D01*
X157061986Y-67040510D01*
X157061988Y-67040511D01*
X157187511Y-67112982D01*
X157187512Y-67112982D01*
X157187515Y-67112984D01*
X157327525Y-67150500D01*
X157327528Y-67150500D01*
X157472472Y-67150500D01*
X157472475Y-67150500D01*
X157612485Y-67112984D01*
X157738015Y-67040509D01*
X157840509Y-66938015D01*
X157912984Y-66812485D01*
X157950500Y-66672475D01*
X157950500Y-66527525D01*
X157912984Y-66387515D01*
X157858754Y-66293587D01*
X157840511Y-66261988D01*
X157840506Y-66261982D01*
X157738017Y-66159493D01*
X157738011Y-66159488D01*
X157612488Y-66087017D01*
X157612489Y-66087017D01*
X157601006Y-66083940D01*
X157472475Y-66049500D01*
X157327525Y-66049500D01*
X157198993Y-66083940D01*
X157187511Y-66087017D01*
X157061988Y-66159488D01*
X157061982Y-66159493D01*
X156959493Y-66261982D01*
X156959488Y-66261988D01*
X156887017Y-66387511D01*
X156887016Y-66387515D01*
X156849500Y-66527525D01*
X142850500Y-66527525D01*
X142850500Y-65177525D01*
X143499500Y-65177525D01*
X143499500Y-65322475D01*
X143516927Y-65387511D01*
X143537017Y-65462488D01*
X143609488Y-65588011D01*
X143609490Y-65588013D01*
X143609491Y-65588015D01*
X143711985Y-65690509D01*
X143711986Y-65690510D01*
X143711988Y-65690511D01*
X143837511Y-65762982D01*
X143837512Y-65762982D01*
X143837515Y-65762984D01*
X143977525Y-65800500D01*
X143977528Y-65800500D01*
X144122472Y-65800500D01*
X144122475Y-65800500D01*
X144262485Y-65762984D01*
X144388015Y-65690509D01*
X144490509Y-65588015D01*
X144525433Y-65527525D01*
X153849500Y-65527525D01*
X153849500Y-65672475D01*
X153879390Y-65784023D01*
X153887017Y-65812488D01*
X153959488Y-65938011D01*
X153959490Y-65938013D01*
X153959491Y-65938015D01*
X154061985Y-66040509D01*
X154061986Y-66040510D01*
X154061988Y-66040511D01*
X154187511Y-66112982D01*
X154187512Y-66112982D01*
X154187515Y-66112984D01*
X154327525Y-66150500D01*
X154327528Y-66150500D01*
X154472472Y-66150500D01*
X154472475Y-66150500D01*
X154612485Y-66112984D01*
X154738015Y-66040509D01*
X154840509Y-65938015D01*
X154912984Y-65812485D01*
X154935020Y-65730247D01*
X158609500Y-65730247D01*
X158609500Y-67469752D01*
X158621131Y-67528229D01*
X158621132Y-67528230D01*
X158665447Y-67594552D01*
X158731769Y-67638867D01*
X158731770Y-67638868D01*
X158790247Y-67650499D01*
X158790250Y-67650500D01*
X158790252Y-67650500D01*
X160529750Y-67650500D01*
X160529751Y-67650499D01*
X160544568Y-67647552D01*
X160588229Y-67638868D01*
X160588229Y-67638867D01*
X160588231Y-67638867D01*
X160654552Y-67594552D01*
X160698867Y-67528231D01*
X160698867Y-67528229D01*
X160698868Y-67528229D01*
X160710499Y-67469752D01*
X160710500Y-67469750D01*
X160710500Y-66496530D01*
X161149500Y-66496530D01*
X161149500Y-66703469D01*
X161189868Y-66906412D01*
X161189870Y-66906420D01*
X161269058Y-67097596D01*
X161384024Y-67269657D01*
X161530342Y-67415975D01*
X161530345Y-67415977D01*
X161702402Y-67530941D01*
X161893580Y-67610130D01*
X162038052Y-67638867D01*
X162096530Y-67650499D01*
X162096534Y-67650500D01*
X162096535Y-67650500D01*
X162303466Y-67650500D01*
X162303467Y-67650499D01*
X162506420Y-67610130D01*
X162697598Y-67530941D01*
X162869655Y-67415977D01*
X163015977Y-67269655D01*
X163130941Y-67097598D01*
X163210130Y-66906420D01*
X163250500Y-66703465D01*
X163250500Y-66496535D01*
X163250499Y-66496530D01*
X163689500Y-66496530D01*
X163689500Y-66703469D01*
X163729868Y-66906412D01*
X163729870Y-66906420D01*
X163809058Y-67097596D01*
X163924024Y-67269657D01*
X164070342Y-67415975D01*
X164070345Y-67415977D01*
X164242402Y-67530941D01*
X164433580Y-67610130D01*
X164578052Y-67638867D01*
X164636530Y-67650499D01*
X164636534Y-67650500D01*
X164636535Y-67650500D01*
X164843466Y-67650500D01*
X164843467Y-67650499D01*
X165046420Y-67610130D01*
X165237598Y-67530941D01*
X165409655Y-67415977D01*
X165555977Y-67269655D01*
X165670941Y-67097598D01*
X165750130Y-66906420D01*
X165790500Y-66703465D01*
X165790500Y-66496535D01*
X165790499Y-66496530D01*
X166229500Y-66496530D01*
X166229500Y-66703469D01*
X166269868Y-66906412D01*
X166269870Y-66906420D01*
X166349058Y-67097596D01*
X166464024Y-67269657D01*
X166610342Y-67415975D01*
X166610345Y-67415977D01*
X166782402Y-67530941D01*
X166973580Y-67610130D01*
X167118052Y-67638867D01*
X167176530Y-67650499D01*
X167176534Y-67650500D01*
X167176535Y-67650500D01*
X167383466Y-67650500D01*
X167383467Y-67650499D01*
X167586420Y-67610130D01*
X167777598Y-67530941D01*
X167949655Y-67415977D01*
X168095977Y-67269655D01*
X168210941Y-67097598D01*
X168290130Y-66906420D01*
X168330500Y-66703465D01*
X168330500Y-66496535D01*
X168330499Y-66496530D01*
X168769500Y-66496530D01*
X168769500Y-66703469D01*
X168809868Y-66906412D01*
X168809870Y-66906420D01*
X168889058Y-67097596D01*
X169004024Y-67269657D01*
X169150342Y-67415975D01*
X169150345Y-67415977D01*
X169322402Y-67530941D01*
X169513580Y-67610130D01*
X169658052Y-67638867D01*
X169716530Y-67650499D01*
X169716534Y-67650500D01*
X169716535Y-67650500D01*
X169923466Y-67650500D01*
X169923467Y-67650499D01*
X170126420Y-67610130D01*
X170317598Y-67530941D01*
X170489655Y-67415977D01*
X170635977Y-67269655D01*
X170750941Y-67097598D01*
X170830130Y-66906420D01*
X170870500Y-66703465D01*
X170870500Y-66496535D01*
X170830130Y-66293580D01*
X170750941Y-66102402D01*
X170635977Y-65930345D01*
X170635975Y-65930342D01*
X170489657Y-65784024D01*
X170403626Y-65726541D01*
X170317598Y-65669059D01*
X170126420Y-65589870D01*
X170126412Y-65589868D01*
X169923469Y-65549500D01*
X169923465Y-65549500D01*
X169716535Y-65549500D01*
X169716530Y-65549500D01*
X169513587Y-65589868D01*
X169513579Y-65589870D01*
X169322403Y-65669058D01*
X169150342Y-65784024D01*
X169004024Y-65930342D01*
X168889058Y-66102403D01*
X168809870Y-66293579D01*
X168809868Y-66293587D01*
X168769500Y-66496530D01*
X168330499Y-66496530D01*
X168290130Y-66293580D01*
X168210941Y-66102402D01*
X168095977Y-65930345D01*
X168095975Y-65930342D01*
X167949657Y-65784024D01*
X167863626Y-65726541D01*
X167777598Y-65669059D01*
X167586420Y-65589870D01*
X167586412Y-65589868D01*
X167383469Y-65549500D01*
X167383465Y-65549500D01*
X167176535Y-65549500D01*
X167176530Y-65549500D01*
X166973587Y-65589868D01*
X166973579Y-65589870D01*
X166782403Y-65669058D01*
X166610342Y-65784024D01*
X166464024Y-65930342D01*
X166349058Y-66102403D01*
X166269870Y-66293579D01*
X166269868Y-66293587D01*
X166229500Y-66496530D01*
X165790499Y-66496530D01*
X165750130Y-66293580D01*
X165670941Y-66102402D01*
X165555977Y-65930345D01*
X165555975Y-65930342D01*
X165409657Y-65784024D01*
X165323626Y-65726541D01*
X165237598Y-65669059D01*
X165046420Y-65589870D01*
X165046412Y-65589868D01*
X164843469Y-65549500D01*
X164843465Y-65549500D01*
X164636535Y-65549500D01*
X164636530Y-65549500D01*
X164433587Y-65589868D01*
X164433579Y-65589870D01*
X164242403Y-65669058D01*
X164070342Y-65784024D01*
X163924024Y-65930342D01*
X163809058Y-66102403D01*
X163729870Y-66293579D01*
X163729868Y-66293587D01*
X163689500Y-66496530D01*
X163250499Y-66496530D01*
X163210130Y-66293580D01*
X163130941Y-66102402D01*
X163015977Y-65930345D01*
X163015975Y-65930342D01*
X162869657Y-65784024D01*
X162783626Y-65726541D01*
X162697598Y-65669059D01*
X162506420Y-65589870D01*
X162506412Y-65589868D01*
X162303469Y-65549500D01*
X162303465Y-65549500D01*
X162096535Y-65549500D01*
X162096530Y-65549500D01*
X161893587Y-65589868D01*
X161893579Y-65589870D01*
X161702403Y-65669058D01*
X161530342Y-65784024D01*
X161384024Y-65930342D01*
X161269058Y-66102403D01*
X161189870Y-66293579D01*
X161189868Y-66293587D01*
X161149500Y-66496530D01*
X160710500Y-66496530D01*
X160710500Y-65730249D01*
X160710499Y-65730247D01*
X160698868Y-65671770D01*
X160698867Y-65671769D01*
X160654552Y-65605447D01*
X160588230Y-65561132D01*
X160588229Y-65561131D01*
X160529752Y-65549500D01*
X160529748Y-65549500D01*
X158790252Y-65549500D01*
X158790247Y-65549500D01*
X158731770Y-65561131D01*
X158731769Y-65561132D01*
X158665447Y-65605447D01*
X158621132Y-65671769D01*
X158621131Y-65671770D01*
X158609500Y-65730247D01*
X154935020Y-65730247D01*
X154950500Y-65672475D01*
X154950500Y-65527525D01*
X154912984Y-65387515D01*
X154875431Y-65322472D01*
X154840511Y-65261988D01*
X154840506Y-65261982D01*
X154738017Y-65159493D01*
X154738011Y-65159488D01*
X154612488Y-65087017D01*
X154612489Y-65087017D01*
X154589100Y-65080750D01*
X154472475Y-65049500D01*
X154327525Y-65049500D01*
X154210900Y-65080750D01*
X154187511Y-65087017D01*
X154061988Y-65159488D01*
X154061982Y-65159493D01*
X153959493Y-65261982D01*
X153959488Y-65261988D01*
X153887017Y-65387511D01*
X153887016Y-65387515D01*
X153849500Y-65527525D01*
X144525433Y-65527525D01*
X144562984Y-65462485D01*
X144600500Y-65322475D01*
X144600500Y-65177525D01*
X144562984Y-65037515D01*
X144541867Y-65000940D01*
X144490511Y-64911988D01*
X144490506Y-64911982D01*
X144388017Y-64809493D01*
X144388011Y-64809488D01*
X144262488Y-64737017D01*
X144262489Y-64737017D01*
X144251006Y-64733940D01*
X144122475Y-64699500D01*
X143977525Y-64699500D01*
X143848993Y-64733940D01*
X143837511Y-64737017D01*
X143711988Y-64809488D01*
X143711982Y-64809493D01*
X143609493Y-64911982D01*
X143609488Y-64911988D01*
X143537017Y-65037511D01*
X143537016Y-65037515D01*
X143499500Y-65177525D01*
X142850500Y-65177525D01*
X142850500Y-64830249D01*
X142850499Y-64830247D01*
X142838868Y-64771770D01*
X142838867Y-64771769D01*
X142794552Y-64705447D01*
X142728230Y-64661132D01*
X142728229Y-64661131D01*
X142669752Y-64649500D01*
X142669748Y-64649500D01*
X140930252Y-64649500D01*
X140930247Y-64649500D01*
X140871770Y-64661131D01*
X140871769Y-64661132D01*
X140805447Y-64705447D01*
X140761132Y-64771769D01*
X140761131Y-64771770D01*
X140749500Y-64830247D01*
X139900500Y-64830247D01*
X139900500Y-64327525D01*
X155649500Y-64327525D01*
X155649500Y-64472475D01*
X155687016Y-64612485D01*
X155687017Y-64612488D01*
X155759488Y-64738011D01*
X155759490Y-64738013D01*
X155759491Y-64738015D01*
X155861985Y-64840509D01*
X155861986Y-64840510D01*
X155861988Y-64840511D01*
X155987511Y-64912982D01*
X155987512Y-64912982D01*
X155987515Y-64912984D01*
X156127525Y-64950500D01*
X156127528Y-64950500D01*
X156272472Y-64950500D01*
X156272475Y-64950500D01*
X156412485Y-64912984D01*
X156538015Y-64840509D01*
X156640509Y-64738015D01*
X156712984Y-64612485D01*
X156750500Y-64472475D01*
X156750500Y-64327525D01*
X156712984Y-64187515D01*
X156702947Y-64170131D01*
X156640511Y-64061988D01*
X156640506Y-64061982D01*
X156538017Y-63959493D01*
X156538011Y-63959488D01*
X156412488Y-63887017D01*
X156412489Y-63887017D01*
X156401006Y-63883940D01*
X156272475Y-63849500D01*
X156127525Y-63849500D01*
X155998993Y-63883940D01*
X155987511Y-63887017D01*
X155861988Y-63959488D01*
X155861982Y-63959493D01*
X155759493Y-64061982D01*
X155759488Y-64061988D01*
X155687017Y-64187511D01*
X155687016Y-64187515D01*
X155649500Y-64327525D01*
X139900500Y-64327525D01*
X139900500Y-63056530D01*
X140749500Y-63056530D01*
X140749500Y-63263469D01*
X140789868Y-63466412D01*
X140789870Y-63466420D01*
X140869058Y-63657596D01*
X140984024Y-63829657D01*
X141130342Y-63975975D01*
X141130345Y-63975977D01*
X141302402Y-64090941D01*
X141493580Y-64170130D01*
X141632592Y-64197781D01*
X141696530Y-64210499D01*
X141696534Y-64210500D01*
X141696535Y-64210500D01*
X141903466Y-64210500D01*
X141903467Y-64210499D01*
X141920376Y-64207136D01*
X141967411Y-64197781D01*
X142035544Y-64184227D01*
X142106420Y-64170130D01*
X142297598Y-64090941D01*
X142469655Y-63975977D01*
X142615977Y-63829655D01*
X142730941Y-63657598D01*
X142810130Y-63466420D01*
X142850500Y-63263465D01*
X142850500Y-63056535D01*
X142824838Y-62927525D01*
X151849500Y-62927525D01*
X151849500Y-63072475D01*
X151887016Y-63212485D01*
X151887017Y-63212488D01*
X151959488Y-63338011D01*
X151959490Y-63338013D01*
X151959491Y-63338015D01*
X152061985Y-63440509D01*
X152061986Y-63440510D01*
X152061988Y-63440511D01*
X152187511Y-63512982D01*
X152187512Y-63512982D01*
X152187515Y-63512984D01*
X152327525Y-63550500D01*
X152327528Y-63550500D01*
X152472472Y-63550500D01*
X152472475Y-63550500D01*
X152612485Y-63512984D01*
X152738015Y-63440509D01*
X152840509Y-63338015D01*
X152912984Y-63212485D01*
X152950500Y-63072475D01*
X152950500Y-62927525D01*
X152912984Y-62787515D01*
X152840750Y-62662403D01*
X152840511Y-62661988D01*
X152840506Y-62661982D01*
X152738017Y-62559493D01*
X152738011Y-62559488D01*
X152612488Y-62487017D01*
X152612489Y-62487017D01*
X152601006Y-62483940D01*
X152472475Y-62449500D01*
X152327525Y-62449500D01*
X152198993Y-62483940D01*
X152187511Y-62487017D01*
X152061988Y-62559488D01*
X152061982Y-62559493D01*
X151959493Y-62661982D01*
X151959488Y-62661988D01*
X151887017Y-62787511D01*
X151887016Y-62787515D01*
X151849500Y-62927525D01*
X142824838Y-62927525D01*
X142810131Y-62853587D01*
X142810130Y-62853580D01*
X142730941Y-62662402D01*
X142615977Y-62490345D01*
X142615975Y-62490342D01*
X142469657Y-62344024D01*
X142383626Y-62286541D01*
X142297598Y-62229059D01*
X142106420Y-62149870D01*
X142106412Y-62149868D01*
X141903469Y-62109500D01*
X141903465Y-62109500D01*
X141696535Y-62109500D01*
X141696530Y-62109500D01*
X141493587Y-62149868D01*
X141493579Y-62149870D01*
X141302403Y-62229058D01*
X141130342Y-62344024D01*
X140984024Y-62490342D01*
X140869058Y-62662403D01*
X140789870Y-62853579D01*
X140789868Y-62853587D01*
X140749500Y-63056530D01*
X139900500Y-63056530D01*
X139900500Y-59096530D01*
X140749500Y-59096530D01*
X140749500Y-59303469D01*
X140789868Y-59506412D01*
X140789870Y-59506420D01*
X140869058Y-59697596D01*
X140984024Y-59869657D01*
X141130342Y-60015975D01*
X141130345Y-60015977D01*
X141302402Y-60130941D01*
X141493580Y-60210130D01*
X141696530Y-60250499D01*
X141696534Y-60250500D01*
X141696535Y-60250500D01*
X141903466Y-60250500D01*
X141903467Y-60250499D01*
X142106420Y-60210130D01*
X142297598Y-60130941D01*
X142469655Y-60015977D01*
X142615977Y-59869655D01*
X142730941Y-59697598D01*
X142810130Y-59506420D01*
X142815878Y-59477525D01*
X145549500Y-59477525D01*
X145549500Y-59622475D01*
X145587016Y-59762485D01*
X145587017Y-59762488D01*
X145659488Y-59888011D01*
X145659490Y-59888013D01*
X145659491Y-59888015D01*
X145761985Y-59990509D01*
X145761986Y-59990510D01*
X145761988Y-59990511D01*
X145887511Y-60062982D01*
X145887512Y-60062982D01*
X145887515Y-60062984D01*
X146027525Y-60100500D01*
X146027528Y-60100500D01*
X146172472Y-60100500D01*
X146172475Y-60100500D01*
X146312485Y-60062984D01*
X146438015Y-59990509D01*
X146540509Y-59888015D01*
X146612984Y-59762485D01*
X146650500Y-59622475D01*
X146650500Y-59477525D01*
X146612984Y-59337515D01*
X146593327Y-59303469D01*
X146540511Y-59211988D01*
X146540506Y-59211982D01*
X146438017Y-59109493D01*
X146438011Y-59109488D01*
X146312488Y-59037017D01*
X146312489Y-59037017D01*
X146301006Y-59033940D01*
X146172475Y-58999500D01*
X146027525Y-58999500D01*
X145898993Y-59033940D01*
X145887511Y-59037017D01*
X145761988Y-59109488D01*
X145761982Y-59109493D01*
X145659493Y-59211982D01*
X145659488Y-59211988D01*
X145587017Y-59337511D01*
X145587016Y-59337515D01*
X145549500Y-59477525D01*
X142815878Y-59477525D01*
X142850500Y-59303465D01*
X142850500Y-59096535D01*
X142810130Y-58893580D01*
X142730941Y-58702402D01*
X142654692Y-58588287D01*
X142654692Y-58588285D01*
X142615980Y-58530349D01*
X142615974Y-58530341D01*
X142613158Y-58527525D01*
X143849500Y-58527525D01*
X143849500Y-58672475D01*
X143886944Y-58812217D01*
X143887017Y-58812488D01*
X143959488Y-58938011D01*
X143959490Y-58938013D01*
X143959491Y-58938015D01*
X144061985Y-59040509D01*
X144061986Y-59040510D01*
X144061988Y-59040511D01*
X144187511Y-59112982D01*
X144187512Y-59112982D01*
X144187515Y-59112984D01*
X144327525Y-59150500D01*
X144327528Y-59150500D01*
X144472472Y-59150500D01*
X144472475Y-59150500D01*
X144612485Y-59112984D01*
X144738015Y-59040509D01*
X144840509Y-58938015D01*
X144912984Y-58812485D01*
X144950500Y-58672475D01*
X144950500Y-58527525D01*
X144912984Y-58387515D01*
X144910968Y-58384024D01*
X144840511Y-58261988D01*
X144840506Y-58261982D01*
X144738017Y-58159493D01*
X144738011Y-58159488D01*
X144612488Y-58087017D01*
X144612489Y-58087017D01*
X144601006Y-58083940D01*
X144472475Y-58049500D01*
X144327525Y-58049500D01*
X144198993Y-58083940D01*
X144187511Y-58087017D01*
X144061988Y-58159488D01*
X144061982Y-58159493D01*
X143959493Y-58261982D01*
X143959488Y-58261988D01*
X143887017Y-58387511D01*
X143887016Y-58387515D01*
X143849500Y-58527525D01*
X142613158Y-58527525D01*
X142469657Y-58384024D01*
X142383626Y-58326541D01*
X142297598Y-58269059D01*
X142280527Y-58261988D01*
X142106420Y-58189870D01*
X142106412Y-58189868D01*
X141903469Y-58149500D01*
X141903465Y-58149500D01*
X141696535Y-58149500D01*
X141696530Y-58149500D01*
X141493587Y-58189868D01*
X141493579Y-58189870D01*
X141302403Y-58269058D01*
X141130342Y-58384024D01*
X140984024Y-58530342D01*
X140869058Y-58702403D01*
X140789870Y-58893579D01*
X140789868Y-58893587D01*
X140749500Y-59096530D01*
X139900500Y-59096530D01*
X139900500Y-56556530D01*
X140749500Y-56556530D01*
X140749500Y-56763469D01*
X140789868Y-56966412D01*
X140789870Y-56966420D01*
X140855898Y-57125826D01*
X140869059Y-57157598D01*
X140888716Y-57187017D01*
X140984024Y-57329657D01*
X141130342Y-57475975D01*
X141130345Y-57475977D01*
X141302402Y-57590941D01*
X141493580Y-57670130D01*
X141696530Y-57710499D01*
X141696534Y-57710500D01*
X141696535Y-57710500D01*
X141903466Y-57710500D01*
X141903467Y-57710499D01*
X142106420Y-57670130D01*
X142209277Y-57627525D01*
X147349500Y-57627525D01*
X147349500Y-57772475D01*
X147387016Y-57912485D01*
X147387017Y-57912488D01*
X147459488Y-58038011D01*
X147459490Y-58038013D01*
X147459491Y-58038015D01*
X147561985Y-58140509D01*
X147561986Y-58140510D01*
X147561988Y-58140511D01*
X147687511Y-58212982D01*
X147687512Y-58212982D01*
X147687515Y-58212984D01*
X147827525Y-58250500D01*
X147827528Y-58250500D01*
X147972472Y-58250500D01*
X147972475Y-58250500D01*
X148112485Y-58212984D01*
X148238015Y-58140509D01*
X148340509Y-58038015D01*
X148412984Y-57912485D01*
X148450500Y-57772475D01*
X148450500Y-57627525D01*
X148412984Y-57487515D01*
X148406321Y-57475975D01*
X148340511Y-57361988D01*
X148340506Y-57361982D01*
X148238017Y-57259493D01*
X148238011Y-57259488D01*
X148112488Y-57187017D01*
X148112489Y-57187017D01*
X148101006Y-57183940D01*
X147972475Y-57149500D01*
X147827525Y-57149500D01*
X147698993Y-57183940D01*
X147687511Y-57187017D01*
X147561988Y-57259488D01*
X147561982Y-57259493D01*
X147459493Y-57361982D01*
X147459488Y-57361988D01*
X147387017Y-57487511D01*
X147387016Y-57487515D01*
X147349500Y-57627525D01*
X142209277Y-57627525D01*
X142297598Y-57590941D01*
X142297599Y-57590940D01*
X142297600Y-57590940D01*
X142409309Y-57516299D01*
X142409314Y-57516295D01*
X142436741Y-57497969D01*
X142469655Y-57475977D01*
X142615977Y-57329655D01*
X142730941Y-57157598D01*
X142810130Y-56966420D01*
X142847703Y-56777525D01*
X157299500Y-56777525D01*
X157299500Y-56922475D01*
X157318712Y-56994174D01*
X157337017Y-57062488D01*
X157409488Y-57188011D01*
X157409490Y-57188013D01*
X157409491Y-57188015D01*
X157511985Y-57290509D01*
X157511986Y-57290510D01*
X157511988Y-57290511D01*
X157637511Y-57362982D01*
X157637512Y-57362982D01*
X157637515Y-57362984D01*
X157777525Y-57400500D01*
X157777528Y-57400500D01*
X157922472Y-57400500D01*
X157922475Y-57400500D01*
X158062485Y-57362984D01*
X158188015Y-57290509D01*
X158290509Y-57188015D01*
X158362984Y-57062485D01*
X158400500Y-56922475D01*
X158400500Y-56777525D01*
X158362984Y-56637515D01*
X158316229Y-56556534D01*
X158290511Y-56511988D01*
X158290506Y-56511982D01*
X158188017Y-56409493D01*
X158188011Y-56409488D01*
X158062488Y-56337017D01*
X158062489Y-56337017D01*
X158051006Y-56333940D01*
X157922475Y-56299500D01*
X157777525Y-56299500D01*
X157648993Y-56333940D01*
X157637511Y-56337017D01*
X157511988Y-56409488D01*
X157511982Y-56409493D01*
X157409493Y-56511982D01*
X157409488Y-56511988D01*
X157337017Y-56637511D01*
X157337016Y-56637515D01*
X157299500Y-56777525D01*
X142847703Y-56777525D01*
X142850500Y-56763465D01*
X142850500Y-56556535D01*
X142810130Y-56353580D01*
X142730941Y-56162402D01*
X142615977Y-55990345D01*
X142615975Y-55990342D01*
X142469657Y-55844024D01*
X142301980Y-55731987D01*
X142297598Y-55729059D01*
X142106420Y-55649870D01*
X142106412Y-55649868D01*
X141903469Y-55609500D01*
X141903465Y-55609500D01*
X141696535Y-55609500D01*
X141696530Y-55609500D01*
X141493587Y-55649868D01*
X141493579Y-55649870D01*
X141302403Y-55729058D01*
X141130342Y-55844024D01*
X140984024Y-55990342D01*
X140869058Y-56162403D01*
X140789870Y-56353579D01*
X140789868Y-56353587D01*
X140749500Y-56556530D01*
X139900500Y-56556530D01*
X139900500Y-54016530D01*
X140749500Y-54016530D01*
X140749500Y-54223469D01*
X140789868Y-54426412D01*
X140789870Y-54426420D01*
X140869058Y-54617596D01*
X140984024Y-54789657D01*
X141130342Y-54935975D01*
X141130345Y-54935977D01*
X141302402Y-55050941D01*
X141493580Y-55130130D01*
X141696530Y-55170499D01*
X141696534Y-55170500D01*
X141696535Y-55170500D01*
X141903466Y-55170500D01*
X141903467Y-55170499D01*
X142106420Y-55130130D01*
X142297598Y-55050941D01*
X142469655Y-54935977D01*
X142615977Y-54789655D01*
X142730941Y-54617598D01*
X142810130Y-54426420D01*
X142850500Y-54223465D01*
X142850500Y-54016535D01*
X142810130Y-53813580D01*
X142753774Y-53677525D01*
X156999500Y-53677525D01*
X156999500Y-53822475D01*
X157027649Y-53927527D01*
X157037017Y-53962488D01*
X157109488Y-54088011D01*
X157109490Y-54088013D01*
X157109491Y-54088015D01*
X157211985Y-54190509D01*
X157211986Y-54190510D01*
X157211988Y-54190511D01*
X157337511Y-54262982D01*
X157337512Y-54262982D01*
X157337515Y-54262984D01*
X157477525Y-54300500D01*
X157477528Y-54300500D01*
X157622472Y-54300500D01*
X157622475Y-54300500D01*
X157762485Y-54262984D01*
X157888015Y-54190509D01*
X157990509Y-54088015D01*
X158062984Y-53962485D01*
X158072352Y-53927525D01*
X161449500Y-53927525D01*
X161449500Y-54072475D01*
X161481128Y-54190511D01*
X161487017Y-54212488D01*
X161559488Y-54338011D01*
X161559490Y-54338013D01*
X161559491Y-54338015D01*
X161661985Y-54440509D01*
X161661986Y-54440510D01*
X161661988Y-54440511D01*
X161787511Y-54512982D01*
X161787512Y-54512982D01*
X161787515Y-54512984D01*
X161927525Y-54550500D01*
X161927528Y-54550500D01*
X162072472Y-54550500D01*
X162072475Y-54550500D01*
X162212485Y-54512984D01*
X162338015Y-54440509D01*
X162440509Y-54338015D01*
X162512984Y-54212485D01*
X162550500Y-54072475D01*
X162550500Y-53927525D01*
X162512984Y-53787515D01*
X162491613Y-53750500D01*
X162440511Y-53661988D01*
X162440506Y-53661982D01*
X162338017Y-53559493D01*
X162338011Y-53559488D01*
X162212488Y-53487017D01*
X162212489Y-53487017D01*
X162201006Y-53483940D01*
X162072475Y-53449500D01*
X161927525Y-53449500D01*
X161798993Y-53483940D01*
X161787511Y-53487017D01*
X161661988Y-53559488D01*
X161661982Y-53559493D01*
X161559493Y-53661982D01*
X161559488Y-53661988D01*
X161487017Y-53787511D01*
X161487016Y-53787515D01*
X161449500Y-53927525D01*
X158072352Y-53927525D01*
X158100500Y-53822475D01*
X158100500Y-53677525D01*
X158062984Y-53537515D01*
X158033828Y-53487016D01*
X157990511Y-53411988D01*
X157990506Y-53411982D01*
X157888017Y-53309493D01*
X157888011Y-53309488D01*
X157762488Y-53237017D01*
X157762489Y-53237017D01*
X157751006Y-53233940D01*
X157622475Y-53199500D01*
X157477525Y-53199500D01*
X157348993Y-53233940D01*
X157337511Y-53237017D01*
X157211988Y-53309488D01*
X157211982Y-53309493D01*
X157109493Y-53411982D01*
X157109488Y-53411988D01*
X157037017Y-53537511D01*
X157037016Y-53537515D01*
X156999500Y-53677525D01*
X142753774Y-53677525D01*
X142730941Y-53622402D01*
X142615977Y-53450345D01*
X142615975Y-53450342D01*
X142469657Y-53304024D01*
X142313224Y-53199500D01*
X142297598Y-53189059D01*
X142149043Y-53127525D01*
X163759500Y-53127525D01*
X163759500Y-53272475D01*
X163796881Y-53411982D01*
X163797017Y-53412488D01*
X163869488Y-53538011D01*
X163869490Y-53538013D01*
X163869491Y-53538015D01*
X163971985Y-53640509D01*
X163971986Y-53640510D01*
X163971988Y-53640511D01*
X164097511Y-53712982D01*
X164097512Y-53712982D01*
X164097515Y-53712984D01*
X164237525Y-53750500D01*
X164237528Y-53750500D01*
X164382472Y-53750500D01*
X164382475Y-53750500D01*
X164522485Y-53712984D01*
X164648015Y-53640509D01*
X164750509Y-53538015D01*
X164822984Y-53412485D01*
X164860500Y-53272475D01*
X164860500Y-53127525D01*
X164822984Y-52987515D01*
X164795843Y-52940506D01*
X164750511Y-52861988D01*
X164750506Y-52861982D01*
X164648017Y-52759493D01*
X164648011Y-52759488D01*
X164522488Y-52687017D01*
X164522489Y-52687017D01*
X164511006Y-52683940D01*
X164382475Y-52649500D01*
X164237525Y-52649500D01*
X164108993Y-52683940D01*
X164097511Y-52687017D01*
X163971988Y-52759488D01*
X163971982Y-52759493D01*
X163869493Y-52861982D01*
X163869488Y-52861988D01*
X163797017Y-52987511D01*
X163797016Y-52987515D01*
X163759500Y-53127525D01*
X142149043Y-53127525D01*
X142106420Y-53109870D01*
X142106412Y-53109868D01*
X141903469Y-53069500D01*
X141903465Y-53069500D01*
X141696535Y-53069500D01*
X141696530Y-53069500D01*
X141493587Y-53109868D01*
X141493579Y-53109870D01*
X141302403Y-53189058D01*
X141130342Y-53304024D01*
X140984024Y-53450342D01*
X140869058Y-53622403D01*
X140789870Y-53813579D01*
X140789868Y-53813587D01*
X140749500Y-54016530D01*
X139900500Y-54016530D01*
X139900500Y-50710247D01*
X140749500Y-50710247D01*
X140749500Y-52449752D01*
X140761131Y-52508229D01*
X140761132Y-52508230D01*
X140805447Y-52574552D01*
X140871769Y-52618867D01*
X140871770Y-52618868D01*
X140930247Y-52630499D01*
X140930250Y-52630500D01*
X140930252Y-52630500D01*
X142669750Y-52630500D01*
X142669751Y-52630499D01*
X142684568Y-52627552D01*
X142728229Y-52618868D01*
X142728229Y-52618867D01*
X142728231Y-52618867D01*
X142794552Y-52574552D01*
X142838867Y-52508231D01*
X142838867Y-52508229D01*
X142838868Y-52508229D01*
X142850499Y-52449752D01*
X142850500Y-52449750D01*
X142850500Y-51927525D01*
X144049500Y-51927525D01*
X144049500Y-52072475D01*
X144087016Y-52212485D01*
X144087017Y-52212488D01*
X144159488Y-52338011D01*
X144159490Y-52338013D01*
X144159491Y-52338015D01*
X144261985Y-52440509D01*
X144261986Y-52440510D01*
X144261988Y-52440511D01*
X144387511Y-52512982D01*
X144387512Y-52512982D01*
X144387515Y-52512984D01*
X144527525Y-52550500D01*
X144527528Y-52550500D01*
X144672472Y-52550500D01*
X144672475Y-52550500D01*
X144812485Y-52512984D01*
X144938015Y-52440509D01*
X144950999Y-52427525D01*
X162299500Y-52427525D01*
X162299500Y-52572475D01*
X162315048Y-52630499D01*
X162337017Y-52712488D01*
X162409488Y-52838011D01*
X162409490Y-52838013D01*
X162409491Y-52838015D01*
X162511985Y-52940509D01*
X162511986Y-52940510D01*
X162511988Y-52940511D01*
X162637511Y-53012982D01*
X162637512Y-53012982D01*
X162637515Y-53012984D01*
X162777525Y-53050500D01*
X162777528Y-53050500D01*
X162922472Y-53050500D01*
X162922475Y-53050500D01*
X163062485Y-53012984D01*
X163064170Y-53012011D01*
X163064171Y-53012011D01*
X163106605Y-52987511D01*
X163188015Y-52940509D01*
X163290509Y-52838015D01*
X163362984Y-52712485D01*
X163400500Y-52572475D01*
X163400500Y-52427525D01*
X163362984Y-52287515D01*
X163341613Y-52250500D01*
X163290511Y-52161988D01*
X163290506Y-52161982D01*
X163188017Y-52059493D01*
X163188011Y-52059488D01*
X163062488Y-51987017D01*
X163062489Y-51987017D01*
X163051006Y-51983940D01*
X162922475Y-51949500D01*
X162777525Y-51949500D01*
X162648993Y-51983940D01*
X162637511Y-51987017D01*
X162511988Y-52059488D01*
X162511982Y-52059493D01*
X162409493Y-52161982D01*
X162409488Y-52161988D01*
X162337017Y-52287511D01*
X162337016Y-52287515D01*
X162299500Y-52427525D01*
X144950999Y-52427525D01*
X145040509Y-52338015D01*
X145112984Y-52212485D01*
X145150500Y-52072475D01*
X145150500Y-51927525D01*
X145112984Y-51787515D01*
X145040509Y-51661985D01*
X145006049Y-51627525D01*
X152149500Y-51627525D01*
X152149500Y-51772475D01*
X152177383Y-51876535D01*
X152187017Y-51912488D01*
X152259488Y-52038011D01*
X152259490Y-52038013D01*
X152259491Y-52038015D01*
X152361985Y-52140509D01*
X152361986Y-52140510D01*
X152361988Y-52140511D01*
X152487511Y-52212982D01*
X152487512Y-52212982D01*
X152487515Y-52212984D01*
X152627525Y-52250500D01*
X152627528Y-52250500D01*
X152772472Y-52250500D01*
X152772475Y-52250500D01*
X152912485Y-52212984D01*
X153038015Y-52140509D01*
X153140509Y-52038015D01*
X153212984Y-51912485D01*
X153250500Y-51772475D01*
X153250500Y-51627525D01*
X153212984Y-51487515D01*
X153212696Y-51487017D01*
X153140511Y-51361988D01*
X153140506Y-51361982D01*
X153038017Y-51259493D01*
X153038011Y-51259488D01*
X152912488Y-51187017D01*
X152912489Y-51187017D01*
X152901006Y-51183940D01*
X152772475Y-51149500D01*
X152627525Y-51149500D01*
X152498993Y-51183940D01*
X152487511Y-51187017D01*
X152361988Y-51259488D01*
X152361982Y-51259493D01*
X152259493Y-51361982D01*
X152259488Y-51361988D01*
X152187017Y-51487511D01*
X152187016Y-51487515D01*
X152149500Y-51627525D01*
X145006049Y-51627525D01*
X144938015Y-51559491D01*
X144938013Y-51559490D01*
X144938011Y-51559488D01*
X144812488Y-51487017D01*
X144812489Y-51487017D01*
X144801006Y-51483940D01*
X144672475Y-51449500D01*
X144527525Y-51449500D01*
X144398993Y-51483940D01*
X144387511Y-51487017D01*
X144261988Y-51559488D01*
X144261982Y-51559493D01*
X144159493Y-51661982D01*
X144159488Y-51661988D01*
X144087017Y-51787511D01*
X144087016Y-51787515D01*
X144049500Y-51927525D01*
X142850500Y-51927525D01*
X142850500Y-50710249D01*
X142850499Y-50710247D01*
X142838868Y-50651770D01*
X142838867Y-50651769D01*
X142794552Y-50585447D01*
X142728230Y-50541132D01*
X142728229Y-50541131D01*
X142669752Y-50529500D01*
X142669748Y-50529500D01*
X140930252Y-50529500D01*
X140930247Y-50529500D01*
X140871770Y-50541131D01*
X140871769Y-50541132D01*
X140805447Y-50585447D01*
X140761132Y-50651769D01*
X140761131Y-50651770D01*
X140749500Y-50710247D01*
X139900500Y-50710247D01*
X139900500Y-50387525D01*
X163059500Y-50387525D01*
X163059500Y-50532475D01*
X163097016Y-50672485D01*
X163097017Y-50672488D01*
X163169488Y-50798011D01*
X163169490Y-50798013D01*
X163169491Y-50798015D01*
X163271985Y-50900509D01*
X163271986Y-50900510D01*
X163271988Y-50900511D01*
X163397511Y-50972982D01*
X163397512Y-50972982D01*
X163397515Y-50972984D01*
X163537525Y-51010500D01*
X163537528Y-51010500D01*
X163682472Y-51010500D01*
X163682475Y-51010500D01*
X163822485Y-50972984D01*
X163948015Y-50900509D01*
X164050509Y-50798015D01*
X164122984Y-50672485D01*
X164160500Y-50532475D01*
X164160500Y-50387525D01*
X164122984Y-50247515D01*
X164050509Y-50121985D01*
X163948015Y-50019491D01*
X163948013Y-50019490D01*
X163948011Y-50019488D01*
X163822488Y-49947017D01*
X163822489Y-49947017D01*
X163811006Y-49943940D01*
X163682475Y-49909500D01*
X163537525Y-49909500D01*
X163408993Y-49943940D01*
X163397511Y-49947017D01*
X163271988Y-50019488D01*
X163271982Y-50019493D01*
X163169493Y-50121982D01*
X163169488Y-50121988D01*
X163097017Y-50247511D01*
X163097016Y-50247515D01*
X163059500Y-50387525D01*
X139900500Y-50387525D01*
X139900500Y-48228386D01*
X139920185Y-48161347D01*
X139972989Y-48115592D01*
X140042147Y-48105648D01*
X140105703Y-48134673D01*
X140112181Y-48140705D01*
X140161985Y-48190509D01*
X140161986Y-48190510D01*
X140161988Y-48190511D01*
X140287511Y-48262982D01*
X140287512Y-48262982D01*
X140287515Y-48262984D01*
X140427525Y-48300500D01*
X140427528Y-48300500D01*
X140572472Y-48300500D01*
X140572475Y-48300500D01*
X140712485Y-48262984D01*
X140838015Y-48190509D01*
X140900999Y-48127525D01*
X151249500Y-48127525D01*
X151249500Y-48272475D01*
X151287016Y-48412485D01*
X151287017Y-48412488D01*
X151359488Y-48538011D01*
X151359490Y-48538013D01*
X151359491Y-48538015D01*
X151461985Y-48640509D01*
X151461986Y-48640510D01*
X151461988Y-48640511D01*
X151587511Y-48712982D01*
X151587512Y-48712982D01*
X151587515Y-48712984D01*
X151727525Y-48750500D01*
X151727528Y-48750500D01*
X151872472Y-48750500D01*
X151872475Y-48750500D01*
X152012485Y-48712984D01*
X152138015Y-48640509D01*
X152240509Y-48538015D01*
X152312984Y-48412485D01*
X152350500Y-48272475D01*
X152350500Y-48127525D01*
X152312984Y-47987515D01*
X152240509Y-47861985D01*
X152138015Y-47759491D01*
X152138013Y-47759490D01*
X152138011Y-47759488D01*
X152012488Y-47687017D01*
X152012489Y-47687017D01*
X152001006Y-47683940D01*
X151872475Y-47649500D01*
X151727525Y-47649500D01*
X151598993Y-47683940D01*
X151587511Y-47687017D01*
X151461988Y-47759488D01*
X151461982Y-47759493D01*
X151359493Y-47861982D01*
X151359488Y-47861988D01*
X151287017Y-47987511D01*
X151287016Y-47987515D01*
X151249500Y-48127525D01*
X140900999Y-48127525D01*
X140940509Y-48088015D01*
X141012984Y-47962485D01*
X141050500Y-47822475D01*
X141050500Y-47677525D01*
X141012984Y-47537515D01*
X140956977Y-47440509D01*
X140940511Y-47411988D01*
X140940506Y-47411982D01*
X140838017Y-47309493D01*
X140838011Y-47309488D01*
X140712488Y-47237017D01*
X140712489Y-47237017D01*
X140701006Y-47233940D01*
X140572475Y-47199500D01*
X140427525Y-47199500D01*
X140298993Y-47233940D01*
X140287511Y-47237017D01*
X140161988Y-47309488D01*
X140161982Y-47309493D01*
X140112181Y-47359295D01*
X140050858Y-47392780D01*
X139981166Y-47387796D01*
X139925233Y-47345924D01*
X139900816Y-47280460D01*
X139900500Y-47271614D01*
X139900500Y-46728386D01*
X139920185Y-46661347D01*
X139972989Y-46615592D01*
X140042147Y-46605648D01*
X140105703Y-46634673D01*
X140112181Y-46640705D01*
X140161985Y-46690509D01*
X140161986Y-46690510D01*
X140161988Y-46690511D01*
X140287511Y-46762982D01*
X140287512Y-46762982D01*
X140287515Y-46762984D01*
X140427525Y-46800500D01*
X140427528Y-46800500D01*
X140572472Y-46800500D01*
X140572475Y-46800500D01*
X140712485Y-46762984D01*
X140838015Y-46690509D01*
X140940509Y-46588015D01*
X141012984Y-46462485D01*
X141050500Y-46322475D01*
X141050500Y-46177525D01*
X141012984Y-46037515D01*
X140940509Y-45911985D01*
X140838015Y-45809491D01*
X140838013Y-45809490D01*
X140838011Y-45809488D01*
X140712488Y-45737017D01*
X140712489Y-45737017D01*
X140701006Y-45733940D01*
X140572475Y-45699500D01*
X140427525Y-45699500D01*
X140298993Y-45733940D01*
X140287511Y-45737017D01*
X140161988Y-45809488D01*
X140161982Y-45809493D01*
X140112181Y-45859295D01*
X140050858Y-45892780D01*
X139981166Y-45887796D01*
X139925233Y-45845924D01*
X139900816Y-45780460D01*
X139900500Y-45771614D01*
X139900500Y-44728386D01*
X139920185Y-44661347D01*
X139972989Y-44615592D01*
X140042147Y-44605648D01*
X140105703Y-44634673D01*
X140112181Y-44640705D01*
X140161985Y-44690509D01*
X140161986Y-44690510D01*
X140161988Y-44690511D01*
X140287511Y-44762982D01*
X140287512Y-44762982D01*
X140287515Y-44762984D01*
X140427525Y-44800500D01*
X140427528Y-44800500D01*
X140572472Y-44800500D01*
X140572475Y-44800500D01*
X140712485Y-44762984D01*
X140838015Y-44690509D01*
X140940509Y-44588015D01*
X140975433Y-44527525D01*
X149449500Y-44527525D01*
X149449500Y-44672475D01*
X149483805Y-44800500D01*
X149487017Y-44812488D01*
X149559488Y-44938011D01*
X149559490Y-44938013D01*
X149559491Y-44938015D01*
X149661985Y-45040509D01*
X149661986Y-45040510D01*
X149661988Y-45040511D01*
X149787511Y-45112982D01*
X149787512Y-45112982D01*
X149787515Y-45112984D01*
X149927525Y-45150500D01*
X149927528Y-45150500D01*
X150072472Y-45150500D01*
X150072475Y-45150500D01*
X150212485Y-45112984D01*
X150338015Y-45040509D01*
X150440509Y-44938015D01*
X150512984Y-44812485D01*
X150549147Y-44677525D01*
X157699500Y-44677525D01*
X157699500Y-44822475D01*
X157730460Y-44938017D01*
X157737017Y-44962488D01*
X157809488Y-45088011D01*
X157809490Y-45088013D01*
X157809491Y-45088015D01*
X157911985Y-45190509D01*
X157911986Y-45190510D01*
X157911988Y-45190511D01*
X158037511Y-45262982D01*
X158037512Y-45262982D01*
X158037515Y-45262984D01*
X158177525Y-45300500D01*
X158177528Y-45300500D01*
X158322472Y-45300500D01*
X158322475Y-45300500D01*
X158462485Y-45262984D01*
X158588015Y-45190509D01*
X158690509Y-45088015D01*
X158762984Y-44962485D01*
X158800500Y-44822475D01*
X158800500Y-44677525D01*
X158762984Y-44537515D01*
X158757217Y-44527527D01*
X158690511Y-44411988D01*
X158690506Y-44411982D01*
X158588017Y-44309493D01*
X158588011Y-44309488D01*
X158462488Y-44237017D01*
X158462489Y-44237017D01*
X158451006Y-44233940D01*
X158322475Y-44199500D01*
X158177525Y-44199500D01*
X158048993Y-44233940D01*
X158037511Y-44237017D01*
X157911988Y-44309488D01*
X157911982Y-44309493D01*
X157809493Y-44411982D01*
X157809488Y-44411988D01*
X157737017Y-44537511D01*
X157737016Y-44537515D01*
X157699500Y-44677525D01*
X150549147Y-44677525D01*
X150550500Y-44672475D01*
X150550500Y-44527525D01*
X150512984Y-44387515D01*
X150475431Y-44322472D01*
X150440511Y-44261988D01*
X150440506Y-44261982D01*
X150338017Y-44159493D01*
X150338011Y-44159488D01*
X150212488Y-44087017D01*
X150212489Y-44087017D01*
X150201006Y-44083940D01*
X150072475Y-44049500D01*
X149927525Y-44049500D01*
X149798993Y-44083940D01*
X149787511Y-44087017D01*
X149661988Y-44159488D01*
X149661982Y-44159493D01*
X149559493Y-44261982D01*
X149559488Y-44261988D01*
X149487017Y-44387511D01*
X149487016Y-44387515D01*
X149449500Y-44527525D01*
X140975433Y-44527525D01*
X141012984Y-44462485D01*
X141050500Y-44322475D01*
X141050500Y-44177525D01*
X141012984Y-44037515D01*
X140940509Y-43911985D01*
X140838015Y-43809491D01*
X140838013Y-43809490D01*
X140838011Y-43809488D01*
X140712488Y-43737017D01*
X140712489Y-43737017D01*
X140662345Y-43723581D01*
X140572475Y-43699500D01*
X140427525Y-43699500D01*
X140337655Y-43723581D01*
X140287511Y-43737017D01*
X140161988Y-43809488D01*
X140161982Y-43809493D01*
X140112181Y-43859295D01*
X140050858Y-43892780D01*
X139981166Y-43887796D01*
X139925233Y-43845924D01*
X139900816Y-43780460D01*
X139900500Y-43771614D01*
X139900500Y-43118995D01*
X149089499Y-43118995D01*
X149116418Y-43254322D01*
X149116421Y-43254332D01*
X149169221Y-43381804D01*
X149169228Y-43381817D01*
X149245885Y-43496541D01*
X149245888Y-43496545D01*
X149343454Y-43594111D01*
X149343458Y-43594114D01*
X149458182Y-43670771D01*
X149458195Y-43670778D01*
X149585667Y-43723578D01*
X149585672Y-43723580D01*
X149585676Y-43723580D01*
X149585677Y-43723581D01*
X149721004Y-43750500D01*
X149721007Y-43750500D01*
X149858995Y-43750500D01*
X149950041Y-43732389D01*
X149994328Y-43723580D01*
X150121811Y-43670775D01*
X150236542Y-43594114D01*
X150334114Y-43496542D01*
X150410775Y-43381811D01*
X150463580Y-43254328D01*
X150490500Y-43118993D01*
X150490500Y-42350244D01*
X150510185Y-42283205D01*
X150562989Y-42237450D01*
X150632147Y-42227506D01*
X150695703Y-42256531D01*
X150721887Y-42288244D01*
X150759482Y-42353361D01*
X150759484Y-42353363D01*
X150759485Y-42353365D01*
X150866635Y-42460515D01*
X150997865Y-42536281D01*
X151144234Y-42575500D01*
X151144236Y-42575500D01*
X151295764Y-42575500D01*
X151295766Y-42575500D01*
X151442135Y-42536281D01*
X151573365Y-42460515D01*
X151680515Y-42353365D01*
X151756281Y-42222135D01*
X151795500Y-42075766D01*
X151795500Y-41924234D01*
X156424500Y-41924234D01*
X156424500Y-42075765D01*
X156463719Y-42222136D01*
X156498978Y-42283205D01*
X156539485Y-42353365D01*
X156646635Y-42460515D01*
X156777865Y-42536281D01*
X156924234Y-42575500D01*
X156924236Y-42575500D01*
X157075764Y-42575500D01*
X157075766Y-42575500D01*
X157222135Y-42536281D01*
X157353365Y-42460515D01*
X157460515Y-42353365D01*
X157498113Y-42288244D01*
X157548680Y-42240028D01*
X157617287Y-42226806D01*
X157682152Y-42252774D01*
X157722680Y-42309688D01*
X157729500Y-42350244D01*
X157729500Y-43118993D01*
X157729500Y-43118995D01*
X157729499Y-43118995D01*
X157756418Y-43254322D01*
X157756421Y-43254332D01*
X157809221Y-43381804D01*
X157809228Y-43381817D01*
X157885885Y-43496541D01*
X157885888Y-43496545D01*
X157983454Y-43594111D01*
X157983458Y-43594114D01*
X158098182Y-43670771D01*
X158098195Y-43670778D01*
X158225667Y-43723578D01*
X158225672Y-43723580D01*
X158225676Y-43723580D01*
X158225677Y-43723581D01*
X158361004Y-43750500D01*
X158361007Y-43750500D01*
X158498995Y-43750500D01*
X158590041Y-43732389D01*
X158634328Y-43723580D01*
X158761811Y-43670775D01*
X158876542Y-43594114D01*
X158974114Y-43496542D01*
X159050775Y-43381811D01*
X159103580Y-43254328D01*
X159130500Y-43118993D01*
X159130500Y-41881007D01*
X159130500Y-41881004D01*
X159103581Y-41745677D01*
X159103580Y-41745676D01*
X159103580Y-41745672D01*
X159062558Y-41646635D01*
X159050778Y-41618195D01*
X159050771Y-41618182D01*
X158974114Y-41503458D01*
X158974111Y-41503454D01*
X158876545Y-41405888D01*
X158876541Y-41405885D01*
X158761817Y-41329228D01*
X158761804Y-41329221D01*
X158634332Y-41276421D01*
X158634322Y-41276418D01*
X158498995Y-41249500D01*
X158498993Y-41249500D01*
X158361007Y-41249500D01*
X158361005Y-41249500D01*
X158225677Y-41276418D01*
X158225667Y-41276421D01*
X158098195Y-41329221D01*
X158098182Y-41329228D01*
X157983458Y-41405885D01*
X157983454Y-41405888D01*
X157885888Y-41503454D01*
X157885885Y-41503458D01*
X157809228Y-41618182D01*
X157809221Y-41618195D01*
X157754089Y-41751299D01*
X157752289Y-41750553D01*
X157718920Y-41801464D01*
X157655105Y-41829916D01*
X157586039Y-41819350D01*
X157533649Y-41773122D01*
X157531177Y-41769024D01*
X157460517Y-41646638D01*
X157460512Y-41646632D01*
X157353367Y-41539487D01*
X157353365Y-41539485D01*
X157287750Y-41501602D01*
X157222136Y-41463719D01*
X157148950Y-41444109D01*
X157075766Y-41424500D01*
X156924234Y-41424500D01*
X156777863Y-41463719D01*
X156646635Y-41539485D01*
X156646632Y-41539487D01*
X156539487Y-41646632D01*
X156539485Y-41646635D01*
X156463719Y-41777863D01*
X156424500Y-41924234D01*
X151795500Y-41924234D01*
X151756281Y-41777865D01*
X151680515Y-41646635D01*
X151573365Y-41539485D01*
X151507750Y-41501602D01*
X151442136Y-41463719D01*
X151368950Y-41444109D01*
X151295766Y-41424500D01*
X151144234Y-41424500D01*
X150997863Y-41463719D01*
X150866635Y-41539485D01*
X150866632Y-41539487D01*
X150759487Y-41646632D01*
X150759485Y-41646635D01*
X150688822Y-41769025D01*
X150638254Y-41817240D01*
X150569647Y-41830462D01*
X150504782Y-41804494D01*
X150466677Y-41750981D01*
X150465911Y-41751299D01*
X150464531Y-41747968D01*
X150464254Y-41747579D01*
X150463834Y-41746286D01*
X150410778Y-41618195D01*
X150410771Y-41618182D01*
X150334114Y-41503458D01*
X150334111Y-41503454D01*
X150236545Y-41405888D01*
X150236541Y-41405885D01*
X150121817Y-41329228D01*
X150121804Y-41329221D01*
X149994332Y-41276421D01*
X149994322Y-41276418D01*
X149858995Y-41249500D01*
X149858993Y-41249500D01*
X149721007Y-41249500D01*
X149721005Y-41249500D01*
X149585677Y-41276418D01*
X149585667Y-41276421D01*
X149458195Y-41329221D01*
X149458182Y-41329228D01*
X149343458Y-41405885D01*
X149343454Y-41405888D01*
X149245888Y-41503454D01*
X149245885Y-41503458D01*
X149169228Y-41618182D01*
X149169221Y-41618195D01*
X149116421Y-41745667D01*
X149116418Y-41745677D01*
X149089500Y-41881004D01*
X149089500Y-41881007D01*
X149089500Y-43118993D01*
X149089500Y-43118995D01*
X149089499Y-43118995D01*
X139900500Y-43118995D01*
X139900500Y-41027525D01*
X165349500Y-41027525D01*
X165349500Y-41172475D01*
X165377353Y-41276421D01*
X165387017Y-41312488D01*
X165459488Y-41438011D01*
X165459490Y-41438013D01*
X165459491Y-41438015D01*
X165561985Y-41540509D01*
X165561986Y-41540510D01*
X165561988Y-41540511D01*
X165687511Y-41612982D01*
X165687512Y-41612982D01*
X165687515Y-41612984D01*
X165827525Y-41650500D01*
X165827528Y-41650500D01*
X165972472Y-41650500D01*
X165972475Y-41650500D01*
X166112485Y-41612984D01*
X166238015Y-41540509D01*
X166340509Y-41438015D01*
X166412984Y-41312485D01*
X166450500Y-41172475D01*
X166450500Y-41027525D01*
X166412984Y-40887515D01*
X166392222Y-40851555D01*
X166340511Y-40761988D01*
X166340506Y-40761982D01*
X166238017Y-40659493D01*
X166238011Y-40659488D01*
X166112488Y-40587017D01*
X166112489Y-40587017D01*
X166101006Y-40583940D01*
X165972475Y-40549500D01*
X165827525Y-40549500D01*
X165698993Y-40583940D01*
X165687511Y-40587017D01*
X165561988Y-40659488D01*
X165561982Y-40659493D01*
X165459493Y-40761982D01*
X165459488Y-40761988D01*
X165387017Y-40887511D01*
X165387016Y-40887515D01*
X165349500Y-41027525D01*
X139900500Y-41027525D01*
X139900500Y-38195730D01*
X140299500Y-38195730D01*
X140299500Y-40404269D01*
X140302353Y-40434699D01*
X140302353Y-40434701D01*
X140334293Y-40525977D01*
X140347207Y-40562882D01*
X140427850Y-40672150D01*
X140537118Y-40752793D01*
X140563396Y-40761988D01*
X140665299Y-40797646D01*
X140695730Y-40800500D01*
X140695734Y-40800500D01*
X142904270Y-40800500D01*
X142934699Y-40797646D01*
X142934701Y-40797646D01*
X142998790Y-40775219D01*
X143062882Y-40752793D01*
X143172150Y-40672150D01*
X143252793Y-40562882D01*
X143275219Y-40498790D01*
X143297646Y-40434701D01*
X143297646Y-40434699D01*
X143300500Y-40404269D01*
X143300500Y-39493713D01*
X144849500Y-39493713D01*
X144849500Y-39706287D01*
X144882754Y-39916243D01*
X144934279Y-40074821D01*
X144948444Y-40118414D01*
X145044951Y-40307820D01*
X145169890Y-40479786D01*
X145320213Y-40630109D01*
X145492179Y-40755048D01*
X145492181Y-40755049D01*
X145492184Y-40755051D01*
X145681588Y-40851557D01*
X145883757Y-40917246D01*
X146093713Y-40950500D01*
X146093714Y-40950500D01*
X146306286Y-40950500D01*
X146306287Y-40950500D01*
X146516243Y-40917246D01*
X146718412Y-40851557D01*
X146907816Y-40755051D01*
X146955881Y-40720130D01*
X147079786Y-40630109D01*
X147079788Y-40630106D01*
X147079792Y-40630104D01*
X147230104Y-40479792D01*
X147230106Y-40479788D01*
X147230109Y-40479786D01*
X147340732Y-40327525D01*
X161084500Y-40327525D01*
X161084500Y-40472475D01*
X161108725Y-40562882D01*
X161122017Y-40612488D01*
X161194488Y-40738011D01*
X161194490Y-40738013D01*
X161194491Y-40738015D01*
X161296985Y-40840509D01*
X161296986Y-40840510D01*
X161296988Y-40840511D01*
X161422511Y-40912982D01*
X161422512Y-40912982D01*
X161422515Y-40912984D01*
X161562525Y-40950500D01*
X161562528Y-40950500D01*
X161707472Y-40950500D01*
X161707475Y-40950500D01*
X161847485Y-40912984D01*
X161849170Y-40912011D01*
X161849171Y-40912011D01*
X161891605Y-40887511D01*
X161973015Y-40840509D01*
X162075509Y-40738015D01*
X162147984Y-40612485D01*
X162185500Y-40472475D01*
X162185500Y-40327525D01*
X162147984Y-40187515D01*
X162108088Y-40118414D01*
X162075511Y-40061988D01*
X162075506Y-40061982D01*
X161973017Y-39959493D01*
X161973011Y-39959488D01*
X161847488Y-39887017D01*
X161847489Y-39887017D01*
X161836006Y-39883940D01*
X161707475Y-39849500D01*
X161562525Y-39849500D01*
X161433993Y-39883940D01*
X161422511Y-39887017D01*
X161296988Y-39959488D01*
X161296982Y-39959493D01*
X161194493Y-40061982D01*
X161194488Y-40061988D01*
X161122017Y-40187511D01*
X161122016Y-40187515D01*
X161084500Y-40327525D01*
X147340732Y-40327525D01*
X147355050Y-40307817D01*
X147377833Y-40263104D01*
X147377833Y-40263103D01*
X147451557Y-40118412D01*
X147517246Y-39916243D01*
X147550500Y-39706287D01*
X147550500Y-39493713D01*
X147517246Y-39283757D01*
X147451557Y-39081588D01*
X147355051Y-38892184D01*
X147355049Y-38892181D01*
X147355048Y-38892179D01*
X147230109Y-38720213D01*
X147079786Y-38569890D01*
X146907820Y-38444951D01*
X146718414Y-38348444D01*
X146718413Y-38348443D01*
X146718412Y-38348443D01*
X146516243Y-38282754D01*
X146516241Y-38282753D01*
X146516240Y-38282753D01*
X146354957Y-38257208D01*
X146306287Y-38249500D01*
X146093713Y-38249500D01*
X146045042Y-38257208D01*
X145883760Y-38282753D01*
X145681585Y-38348444D01*
X145492179Y-38444951D01*
X145320213Y-38569890D01*
X145169890Y-38720213D01*
X145044951Y-38892179D01*
X144948444Y-39081585D01*
X144882753Y-39283760D01*
X144862677Y-39410519D01*
X144849500Y-39493713D01*
X143300500Y-39493713D01*
X143300500Y-38195730D01*
X143297646Y-38165300D01*
X143297646Y-38165298D01*
X143252793Y-38037119D01*
X143252792Y-38037117D01*
X143172150Y-37927850D01*
X143062882Y-37847207D01*
X143062880Y-37847206D01*
X142934700Y-37802353D01*
X142904270Y-37799500D01*
X142904266Y-37799500D01*
X140695734Y-37799500D01*
X140695730Y-37799500D01*
X140665300Y-37802353D01*
X140665298Y-37802353D01*
X140537119Y-37847206D01*
X140537117Y-37847207D01*
X140427850Y-37927850D01*
X140347207Y-38037117D01*
X140347206Y-38037119D01*
X140302353Y-38165298D01*
X140302353Y-38165300D01*
X140299500Y-38195730D01*
X139900500Y-38195730D01*
X139900500Y-37324500D01*
X139920185Y-37257461D01*
X139972989Y-37211706D01*
X140024500Y-37200500D01*
X149346828Y-37200500D01*
X149413867Y-37220185D01*
G37*
%TD.AperFunction*%
%TD*%
M02*
