%TF.GenerationSoftware,KiCad,Pcbnew,9.0.7*%
%TF.CreationDate,2026-06-22T23:15:01-07:00*%
%TF.ProjectId,clock-radio,636c6f63-6b2d-4726-9164-696f2e6b6963,rev?*%
%TF.SameCoordinates,Original*%
%TF.FileFunction,Legend,Bot*%
%TF.FilePolarity,Positive*%
%FSLAX46Y46*%
G04 Gerber Fmt 4.6, Leading zero omitted, Abs format (unit mm)*
G04 Created by KiCad (PCBNEW 9.0.7) date 2026-06-22 23:15:01*
%MOMM*%
%LPD*%
G01*
G04 APERTURE LIST*
%ADD10C,0.150000*%
%ADD11C,0.250000*%
%ADD12C,0.120000*%
G04 APERTURE END LIST*
D10*
X164133333Y-58101009D02*
X164466666Y-58101009D01*
X164466666Y-58624819D02*
X164466666Y-57624819D01*
X164466666Y-57624819D02*
X163990476Y-57624819D01*
X163276190Y-58101009D02*
X163133333Y-58148628D01*
X163133333Y-58148628D02*
X163085714Y-58196247D01*
X163085714Y-58196247D02*
X163038095Y-58291485D01*
X163038095Y-58291485D02*
X163038095Y-58434342D01*
X163038095Y-58434342D02*
X163085714Y-58529580D01*
X163085714Y-58529580D02*
X163133333Y-58577200D01*
X163133333Y-58577200D02*
X163228571Y-58624819D01*
X163228571Y-58624819D02*
X163609523Y-58624819D01*
X163609523Y-58624819D02*
X163609523Y-57624819D01*
X163609523Y-57624819D02*
X163276190Y-57624819D01*
X163276190Y-57624819D02*
X163180952Y-57672438D01*
X163180952Y-57672438D02*
X163133333Y-57720057D01*
X163133333Y-57720057D02*
X163085714Y-57815295D01*
X163085714Y-57815295D02*
X163085714Y-57910533D01*
X163085714Y-57910533D02*
X163133333Y-58005771D01*
X163133333Y-58005771D02*
X163180952Y-58053390D01*
X163180952Y-58053390D02*
X163276190Y-58101009D01*
X163276190Y-58101009D02*
X163609523Y-58101009D01*
X162657142Y-57720057D02*
X162609523Y-57672438D01*
X162609523Y-57672438D02*
X162514285Y-57624819D01*
X162514285Y-57624819D02*
X162276190Y-57624819D01*
X162276190Y-57624819D02*
X162180952Y-57672438D01*
X162180952Y-57672438D02*
X162133333Y-57720057D01*
X162133333Y-57720057D02*
X162085714Y-57815295D01*
X162085714Y-57815295D02*
X162085714Y-57910533D01*
X162085714Y-57910533D02*
X162133333Y-58053390D01*
X162133333Y-58053390D02*
X162704761Y-58624819D01*
X162704761Y-58624819D02*
X162085714Y-58624819D01*
X161156826Y-63554388D02*
X161204446Y-63506769D01*
X161204446Y-63506769D02*
X161252065Y-63363912D01*
X161252065Y-63363912D02*
X161252065Y-63268674D01*
X161252065Y-63268674D02*
X161204446Y-63125817D01*
X161204446Y-63125817D02*
X161109207Y-63030579D01*
X161109207Y-63030579D02*
X161013969Y-62982960D01*
X161013969Y-62982960D02*
X160823493Y-62935341D01*
X160823493Y-62935341D02*
X160680636Y-62935341D01*
X160680636Y-62935341D02*
X160490160Y-62982960D01*
X160490160Y-62982960D02*
X160394922Y-63030579D01*
X160394922Y-63030579D02*
X160299684Y-63125817D01*
X160299684Y-63125817D02*
X160252065Y-63268674D01*
X160252065Y-63268674D02*
X160252065Y-63363912D01*
X160252065Y-63363912D02*
X160299684Y-63506769D01*
X160299684Y-63506769D02*
X160347303Y-63554388D01*
X161252065Y-64506769D02*
X161252065Y-63935341D01*
X161252065Y-64221055D02*
X160252065Y-64221055D01*
X160252065Y-64221055D02*
X160394922Y-64125817D01*
X160394922Y-64125817D02*
X160490160Y-64030579D01*
X160490160Y-64030579D02*
X160537779Y-63935341D01*
X161252065Y-65459150D02*
X161252065Y-64887722D01*
X161252065Y-65173436D02*
X160252065Y-65173436D01*
X160252065Y-65173436D02*
X160394922Y-65078198D01*
X160394922Y-65078198D02*
X160490160Y-64982960D01*
X160490160Y-64982960D02*
X160537779Y-64887722D01*
X170333333Y-61824819D02*
X170333333Y-62539104D01*
X170333333Y-62539104D02*
X170380952Y-62681961D01*
X170380952Y-62681961D02*
X170476190Y-62777200D01*
X170476190Y-62777200D02*
X170619047Y-62824819D01*
X170619047Y-62824819D02*
X170714285Y-62824819D01*
X169380952Y-61824819D02*
X169857142Y-61824819D01*
X169857142Y-61824819D02*
X169904761Y-62301009D01*
X169904761Y-62301009D02*
X169857142Y-62253390D01*
X169857142Y-62253390D02*
X169761904Y-62205771D01*
X169761904Y-62205771D02*
X169523809Y-62205771D01*
X169523809Y-62205771D02*
X169428571Y-62253390D01*
X169428571Y-62253390D02*
X169380952Y-62301009D01*
X169380952Y-62301009D02*
X169333333Y-62396247D01*
X169333333Y-62396247D02*
X169333333Y-62634342D01*
X169333333Y-62634342D02*
X169380952Y-62729580D01*
X169380952Y-62729580D02*
X169428571Y-62777200D01*
X169428571Y-62777200D02*
X169523809Y-62824819D01*
X169523809Y-62824819D02*
X169761904Y-62824819D01*
X169761904Y-62824819D02*
X169857142Y-62777200D01*
X169857142Y-62777200D02*
X169904761Y-62729580D01*
X151161904Y-63154819D02*
X151161904Y-63964342D01*
X151161904Y-63964342D02*
X151114285Y-64059580D01*
X151114285Y-64059580D02*
X151066666Y-64107200D01*
X151066666Y-64107200D02*
X150971428Y-64154819D01*
X150971428Y-64154819D02*
X150780952Y-64154819D01*
X150780952Y-64154819D02*
X150685714Y-64107200D01*
X150685714Y-64107200D02*
X150638095Y-64059580D01*
X150638095Y-64059580D02*
X150590476Y-63964342D01*
X150590476Y-63964342D02*
X150590476Y-63154819D01*
X149685714Y-63154819D02*
X149876190Y-63154819D01*
X149876190Y-63154819D02*
X149971428Y-63202438D01*
X149971428Y-63202438D02*
X150019047Y-63250057D01*
X150019047Y-63250057D02*
X150114285Y-63392914D01*
X150114285Y-63392914D02*
X150161904Y-63583390D01*
X150161904Y-63583390D02*
X150161904Y-63964342D01*
X150161904Y-63964342D02*
X150114285Y-64059580D01*
X150114285Y-64059580D02*
X150066666Y-64107200D01*
X150066666Y-64107200D02*
X149971428Y-64154819D01*
X149971428Y-64154819D02*
X149780952Y-64154819D01*
X149780952Y-64154819D02*
X149685714Y-64107200D01*
X149685714Y-64107200D02*
X149638095Y-64059580D01*
X149638095Y-64059580D02*
X149590476Y-63964342D01*
X149590476Y-63964342D02*
X149590476Y-63726247D01*
X149590476Y-63726247D02*
X149638095Y-63631009D01*
X149638095Y-63631009D02*
X149685714Y-63583390D01*
X149685714Y-63583390D02*
X149780952Y-63535771D01*
X149780952Y-63535771D02*
X149971428Y-63535771D01*
X149971428Y-63535771D02*
X150066666Y-63583390D01*
X150066666Y-63583390D02*
X150114285Y-63631009D01*
X150114285Y-63631009D02*
X150161904Y-63726247D01*
X162456826Y-63554388D02*
X162504446Y-63506769D01*
X162504446Y-63506769D02*
X162552065Y-63363912D01*
X162552065Y-63363912D02*
X162552065Y-63268674D01*
X162552065Y-63268674D02*
X162504446Y-63125817D01*
X162504446Y-63125817D02*
X162409207Y-63030579D01*
X162409207Y-63030579D02*
X162313969Y-62982960D01*
X162313969Y-62982960D02*
X162123493Y-62935341D01*
X162123493Y-62935341D02*
X161980636Y-62935341D01*
X161980636Y-62935341D02*
X161790160Y-62982960D01*
X161790160Y-62982960D02*
X161694922Y-63030579D01*
X161694922Y-63030579D02*
X161599684Y-63125817D01*
X161599684Y-63125817D02*
X161552065Y-63268674D01*
X161552065Y-63268674D02*
X161552065Y-63363912D01*
X161552065Y-63363912D02*
X161599684Y-63506769D01*
X161599684Y-63506769D02*
X161647303Y-63554388D01*
X162552065Y-64506769D02*
X162552065Y-63935341D01*
X162552065Y-64221055D02*
X161552065Y-64221055D01*
X161552065Y-64221055D02*
X161694922Y-64125817D01*
X161694922Y-64125817D02*
X161790160Y-64030579D01*
X161790160Y-64030579D02*
X161837779Y-63935341D01*
X161552065Y-65125817D02*
X161552065Y-65221055D01*
X161552065Y-65221055D02*
X161599684Y-65316293D01*
X161599684Y-65316293D02*
X161647303Y-65363912D01*
X161647303Y-65363912D02*
X161742541Y-65411531D01*
X161742541Y-65411531D02*
X161933017Y-65459150D01*
X161933017Y-65459150D02*
X162171112Y-65459150D01*
X162171112Y-65459150D02*
X162361588Y-65411531D01*
X162361588Y-65411531D02*
X162456826Y-65363912D01*
X162456826Y-65363912D02*
X162504446Y-65316293D01*
X162504446Y-65316293D02*
X162552065Y-65221055D01*
X162552065Y-65221055D02*
X162552065Y-65125817D01*
X162552065Y-65125817D02*
X162504446Y-65030579D01*
X162504446Y-65030579D02*
X162456826Y-64982960D01*
X162456826Y-64982960D02*
X162361588Y-64935341D01*
X162361588Y-64935341D02*
X162171112Y-64887722D01*
X162171112Y-64887722D02*
X161933017Y-64887722D01*
X161933017Y-64887722D02*
X161742541Y-64935341D01*
X161742541Y-64935341D02*
X161647303Y-64982960D01*
X161647303Y-64982960D02*
X161599684Y-65030579D01*
X161599684Y-65030579D02*
X161552065Y-65125817D01*
D11*
X156273809Y-60912238D02*
X156273809Y-62531285D01*
X156273809Y-62531285D02*
X156178571Y-62721761D01*
X156178571Y-62721761D02*
X156083333Y-62817000D01*
X156083333Y-62817000D02*
X155892857Y-62912238D01*
X155892857Y-62912238D02*
X155511904Y-62912238D01*
X155511904Y-62912238D02*
X155321428Y-62817000D01*
X155321428Y-62817000D02*
X155226190Y-62721761D01*
X155226190Y-62721761D02*
X155130952Y-62531285D01*
X155130952Y-62531285D02*
X155130952Y-60912238D01*
X154369047Y-60912238D02*
X153130952Y-60912238D01*
X153130952Y-60912238D02*
X153797619Y-61674142D01*
X153797619Y-61674142D02*
X153511904Y-61674142D01*
X153511904Y-61674142D02*
X153321428Y-61769380D01*
X153321428Y-61769380D02*
X153226190Y-61864619D01*
X153226190Y-61864619D02*
X153130952Y-62055095D01*
X153130952Y-62055095D02*
X153130952Y-62531285D01*
X153130952Y-62531285D02*
X153226190Y-62721761D01*
X153226190Y-62721761D02*
X153321428Y-62817000D01*
X153321428Y-62817000D02*
X153511904Y-62912238D01*
X153511904Y-62912238D02*
X154083333Y-62912238D01*
X154083333Y-62912238D02*
X154273809Y-62817000D01*
X154273809Y-62817000D02*
X154369047Y-62721761D01*
D10*
X146142857Y-64154819D02*
X146476190Y-63678628D01*
X146714285Y-64154819D02*
X146714285Y-63154819D01*
X146714285Y-63154819D02*
X146333333Y-63154819D01*
X146333333Y-63154819D02*
X146238095Y-63202438D01*
X146238095Y-63202438D02*
X146190476Y-63250057D01*
X146190476Y-63250057D02*
X146142857Y-63345295D01*
X146142857Y-63345295D02*
X146142857Y-63488152D01*
X146142857Y-63488152D02*
X146190476Y-63583390D01*
X146190476Y-63583390D02*
X146238095Y-63631009D01*
X146238095Y-63631009D02*
X146333333Y-63678628D01*
X146333333Y-63678628D02*
X146714285Y-63678628D01*
X145190476Y-64154819D02*
X145761904Y-64154819D01*
X145476190Y-64154819D02*
X145476190Y-63154819D01*
X145476190Y-63154819D02*
X145571428Y-63297676D01*
X145571428Y-63297676D02*
X145666666Y-63392914D01*
X145666666Y-63392914D02*
X145761904Y-63440533D01*
X144809523Y-63250057D02*
X144761904Y-63202438D01*
X144761904Y-63202438D02*
X144666666Y-63154819D01*
X144666666Y-63154819D02*
X144428571Y-63154819D01*
X144428571Y-63154819D02*
X144333333Y-63202438D01*
X144333333Y-63202438D02*
X144285714Y-63250057D01*
X144285714Y-63250057D02*
X144238095Y-63345295D01*
X144238095Y-63345295D02*
X144238095Y-63440533D01*
X144238095Y-63440533D02*
X144285714Y-63583390D01*
X144285714Y-63583390D02*
X144857142Y-64154819D01*
X144857142Y-64154819D02*
X144238095Y-64154819D01*
X144299580Y-65524642D02*
X144347200Y-65477023D01*
X144347200Y-65477023D02*
X144394819Y-65334166D01*
X144394819Y-65334166D02*
X144394819Y-65238928D01*
X144394819Y-65238928D02*
X144347200Y-65096071D01*
X144347200Y-65096071D02*
X144251961Y-65000833D01*
X144251961Y-65000833D02*
X144156723Y-64953214D01*
X144156723Y-64953214D02*
X143966247Y-64905595D01*
X143966247Y-64905595D02*
X143823390Y-64905595D01*
X143823390Y-64905595D02*
X143632914Y-64953214D01*
X143632914Y-64953214D02*
X143537676Y-65000833D01*
X143537676Y-65000833D02*
X143442438Y-65096071D01*
X143442438Y-65096071D02*
X143394819Y-65238928D01*
X143394819Y-65238928D02*
X143394819Y-65334166D01*
X143394819Y-65334166D02*
X143442438Y-65477023D01*
X143442438Y-65477023D02*
X143490057Y-65524642D01*
X144394819Y-66477023D02*
X144394819Y-65905595D01*
X144394819Y-66191309D02*
X143394819Y-66191309D01*
X143394819Y-66191309D02*
X143537676Y-66096071D01*
X143537676Y-66096071D02*
X143632914Y-66000833D01*
X143632914Y-66000833D02*
X143680533Y-65905595D01*
X144394819Y-66953214D02*
X144394819Y-67143690D01*
X144394819Y-67143690D02*
X144347200Y-67238928D01*
X144347200Y-67238928D02*
X144299580Y-67286547D01*
X144299580Y-67286547D02*
X144156723Y-67381785D01*
X144156723Y-67381785D02*
X143966247Y-67429404D01*
X143966247Y-67429404D02*
X143585295Y-67429404D01*
X143585295Y-67429404D02*
X143490057Y-67381785D01*
X143490057Y-67381785D02*
X143442438Y-67334166D01*
X143442438Y-67334166D02*
X143394819Y-67238928D01*
X143394819Y-67238928D02*
X143394819Y-67048452D01*
X143394819Y-67048452D02*
X143442438Y-66953214D01*
X143442438Y-66953214D02*
X143490057Y-66905595D01*
X143490057Y-66905595D02*
X143585295Y-66857976D01*
X143585295Y-66857976D02*
X143823390Y-66857976D01*
X143823390Y-66857976D02*
X143918628Y-66905595D01*
X143918628Y-66905595D02*
X143966247Y-66953214D01*
X143966247Y-66953214D02*
X144013866Y-67048452D01*
X144013866Y-67048452D02*
X144013866Y-67238928D01*
X144013866Y-67238928D02*
X143966247Y-67334166D01*
X143966247Y-67334166D02*
X143918628Y-67381785D01*
X143918628Y-67381785D02*
X143823390Y-67429404D01*
X153442857Y-64159580D02*
X153490476Y-64207200D01*
X153490476Y-64207200D02*
X153633333Y-64254819D01*
X153633333Y-64254819D02*
X153728571Y-64254819D01*
X153728571Y-64254819D02*
X153871428Y-64207200D01*
X153871428Y-64207200D02*
X153966666Y-64111961D01*
X153966666Y-64111961D02*
X154014285Y-64016723D01*
X154014285Y-64016723D02*
X154061904Y-63826247D01*
X154061904Y-63826247D02*
X154061904Y-63683390D01*
X154061904Y-63683390D02*
X154014285Y-63492914D01*
X154014285Y-63492914D02*
X153966666Y-63397676D01*
X153966666Y-63397676D02*
X153871428Y-63302438D01*
X153871428Y-63302438D02*
X153728571Y-63254819D01*
X153728571Y-63254819D02*
X153633333Y-63254819D01*
X153633333Y-63254819D02*
X153490476Y-63302438D01*
X153490476Y-63302438D02*
X153442857Y-63350057D01*
X152490476Y-64254819D02*
X153061904Y-64254819D01*
X152776190Y-64254819D02*
X152776190Y-63254819D01*
X152776190Y-63254819D02*
X152871428Y-63397676D01*
X152871428Y-63397676D02*
X152966666Y-63492914D01*
X152966666Y-63492914D02*
X153061904Y-63540533D01*
X151585714Y-63254819D02*
X152061904Y-63254819D01*
X152061904Y-63254819D02*
X152109523Y-63731009D01*
X152109523Y-63731009D02*
X152061904Y-63683390D01*
X152061904Y-63683390D02*
X151966666Y-63635771D01*
X151966666Y-63635771D02*
X151728571Y-63635771D01*
X151728571Y-63635771D02*
X151633333Y-63683390D01*
X151633333Y-63683390D02*
X151585714Y-63731009D01*
X151585714Y-63731009D02*
X151538095Y-63826247D01*
X151538095Y-63826247D02*
X151538095Y-64064342D01*
X151538095Y-64064342D02*
X151585714Y-64159580D01*
X151585714Y-64159580D02*
X151633333Y-64207200D01*
X151633333Y-64207200D02*
X151728571Y-64254819D01*
X151728571Y-64254819D02*
X151966666Y-64254819D01*
X151966666Y-64254819D02*
X152061904Y-64207200D01*
X152061904Y-64207200D02*
X152109523Y-64159580D01*
X154859580Y-65507142D02*
X154907200Y-65459523D01*
X154907200Y-65459523D02*
X154954819Y-65316666D01*
X154954819Y-65316666D02*
X154954819Y-65221428D01*
X154954819Y-65221428D02*
X154907200Y-65078571D01*
X154907200Y-65078571D02*
X154811961Y-64983333D01*
X154811961Y-64983333D02*
X154716723Y-64935714D01*
X154716723Y-64935714D02*
X154526247Y-64888095D01*
X154526247Y-64888095D02*
X154383390Y-64888095D01*
X154383390Y-64888095D02*
X154192914Y-64935714D01*
X154192914Y-64935714D02*
X154097676Y-64983333D01*
X154097676Y-64983333D02*
X154002438Y-65078571D01*
X154002438Y-65078571D02*
X153954819Y-65221428D01*
X153954819Y-65221428D02*
X153954819Y-65316666D01*
X153954819Y-65316666D02*
X154002438Y-65459523D01*
X154002438Y-65459523D02*
X154050057Y-65507142D01*
X154954819Y-66459523D02*
X154954819Y-65888095D01*
X154954819Y-66173809D02*
X153954819Y-66173809D01*
X153954819Y-66173809D02*
X154097676Y-66078571D01*
X154097676Y-66078571D02*
X154192914Y-65983333D01*
X154192914Y-65983333D02*
X154240533Y-65888095D01*
X153954819Y-67316666D02*
X153954819Y-67126190D01*
X153954819Y-67126190D02*
X154002438Y-67030952D01*
X154002438Y-67030952D02*
X154050057Y-66983333D01*
X154050057Y-66983333D02*
X154192914Y-66888095D01*
X154192914Y-66888095D02*
X154383390Y-66840476D01*
X154383390Y-66840476D02*
X154764342Y-66840476D01*
X154764342Y-66840476D02*
X154859580Y-66888095D01*
X154859580Y-66888095D02*
X154907200Y-66935714D01*
X154907200Y-66935714D02*
X154954819Y-67030952D01*
X154954819Y-67030952D02*
X154954819Y-67221428D01*
X154954819Y-67221428D02*
X154907200Y-67316666D01*
X154907200Y-67316666D02*
X154859580Y-67364285D01*
X154859580Y-67364285D02*
X154764342Y-67411904D01*
X154764342Y-67411904D02*
X154526247Y-67411904D01*
X154526247Y-67411904D02*
X154431009Y-67364285D01*
X154431009Y-67364285D02*
X154383390Y-67316666D01*
X154383390Y-67316666D02*
X154335771Y-67221428D01*
X154335771Y-67221428D02*
X154335771Y-67030952D01*
X154335771Y-67030952D02*
X154383390Y-66935714D01*
X154383390Y-66935714D02*
X154431009Y-66888095D01*
X154431009Y-66888095D02*
X154526247Y-66840476D01*
X146142857Y-62854819D02*
X146476190Y-62378628D01*
X146714285Y-62854819D02*
X146714285Y-61854819D01*
X146714285Y-61854819D02*
X146333333Y-61854819D01*
X146333333Y-61854819D02*
X146238095Y-61902438D01*
X146238095Y-61902438D02*
X146190476Y-61950057D01*
X146190476Y-61950057D02*
X146142857Y-62045295D01*
X146142857Y-62045295D02*
X146142857Y-62188152D01*
X146142857Y-62188152D02*
X146190476Y-62283390D01*
X146190476Y-62283390D02*
X146238095Y-62331009D01*
X146238095Y-62331009D02*
X146333333Y-62378628D01*
X146333333Y-62378628D02*
X146714285Y-62378628D01*
X145190476Y-62854819D02*
X145761904Y-62854819D01*
X145476190Y-62854819D02*
X145476190Y-61854819D01*
X145476190Y-61854819D02*
X145571428Y-61997676D01*
X145571428Y-61997676D02*
X145666666Y-62092914D01*
X145666666Y-62092914D02*
X145761904Y-62140533D01*
X144238095Y-62854819D02*
X144809523Y-62854819D01*
X144523809Y-62854819D02*
X144523809Y-61854819D01*
X144523809Y-61854819D02*
X144619047Y-61997676D01*
X144619047Y-61997676D02*
X144714285Y-62092914D01*
X144714285Y-62092914D02*
X144809523Y-62140533D01*
X146142857Y-61554819D02*
X146476190Y-61078628D01*
X146714285Y-61554819D02*
X146714285Y-60554819D01*
X146714285Y-60554819D02*
X146333333Y-60554819D01*
X146333333Y-60554819D02*
X146238095Y-60602438D01*
X146238095Y-60602438D02*
X146190476Y-60650057D01*
X146190476Y-60650057D02*
X146142857Y-60745295D01*
X146142857Y-60745295D02*
X146142857Y-60888152D01*
X146142857Y-60888152D02*
X146190476Y-60983390D01*
X146190476Y-60983390D02*
X146238095Y-61031009D01*
X146238095Y-61031009D02*
X146333333Y-61078628D01*
X146333333Y-61078628D02*
X146714285Y-61078628D01*
X145190476Y-61554819D02*
X145761904Y-61554819D01*
X145476190Y-61554819D02*
X145476190Y-60554819D01*
X145476190Y-60554819D02*
X145571428Y-60697676D01*
X145571428Y-60697676D02*
X145666666Y-60792914D01*
X145666666Y-60792914D02*
X145761904Y-60840533D01*
X144571428Y-60554819D02*
X144476190Y-60554819D01*
X144476190Y-60554819D02*
X144380952Y-60602438D01*
X144380952Y-60602438D02*
X144333333Y-60650057D01*
X144333333Y-60650057D02*
X144285714Y-60745295D01*
X144285714Y-60745295D02*
X144238095Y-60935771D01*
X144238095Y-60935771D02*
X144238095Y-61173866D01*
X144238095Y-61173866D02*
X144285714Y-61364342D01*
X144285714Y-61364342D02*
X144333333Y-61459580D01*
X144333333Y-61459580D02*
X144380952Y-61507200D01*
X144380952Y-61507200D02*
X144476190Y-61554819D01*
X144476190Y-61554819D02*
X144571428Y-61554819D01*
X144571428Y-61554819D02*
X144666666Y-61507200D01*
X144666666Y-61507200D02*
X144714285Y-61459580D01*
X144714285Y-61459580D02*
X144761904Y-61364342D01*
X144761904Y-61364342D02*
X144809523Y-61173866D01*
X144809523Y-61173866D02*
X144809523Y-60935771D01*
X144809523Y-60935771D02*
X144761904Y-60745295D01*
X144761904Y-60745295D02*
X144714285Y-60650057D01*
X144714285Y-60650057D02*
X144666666Y-60602438D01*
X144666666Y-60602438D02*
X144571428Y-60554819D01*
X152242857Y-59759580D02*
X152290476Y-59807200D01*
X152290476Y-59807200D02*
X152433333Y-59854819D01*
X152433333Y-59854819D02*
X152528571Y-59854819D01*
X152528571Y-59854819D02*
X152671428Y-59807200D01*
X152671428Y-59807200D02*
X152766666Y-59711961D01*
X152766666Y-59711961D02*
X152814285Y-59616723D01*
X152814285Y-59616723D02*
X152861904Y-59426247D01*
X152861904Y-59426247D02*
X152861904Y-59283390D01*
X152861904Y-59283390D02*
X152814285Y-59092914D01*
X152814285Y-59092914D02*
X152766666Y-58997676D01*
X152766666Y-58997676D02*
X152671428Y-58902438D01*
X152671428Y-58902438D02*
X152528571Y-58854819D01*
X152528571Y-58854819D02*
X152433333Y-58854819D01*
X152433333Y-58854819D02*
X152290476Y-58902438D01*
X152290476Y-58902438D02*
X152242857Y-58950057D01*
X151290476Y-59854819D02*
X151861904Y-59854819D01*
X151576190Y-59854819D02*
X151576190Y-58854819D01*
X151576190Y-58854819D02*
X151671428Y-58997676D01*
X151671428Y-58997676D02*
X151766666Y-59092914D01*
X151766666Y-59092914D02*
X151861904Y-59140533D01*
X150433333Y-59188152D02*
X150433333Y-59854819D01*
X150671428Y-58807200D02*
X150909523Y-59521485D01*
X150909523Y-59521485D02*
X150290476Y-59521485D01*
D12*
%TO.C,FB2*%
X163446267Y-59090000D02*
X163153733Y-59090000D01*
X163446267Y-60110000D02*
X163153733Y-60110000D01*
%TO.C,C11*%
X160537246Y-61348911D02*
X160537246Y-61580581D01*
X161257246Y-61348911D02*
X161257246Y-61580581D01*
%TO.C,J5*%
X168670000Y-50650000D02*
X171330000Y-50650000D01*
X168670000Y-58330000D02*
X168670000Y-50650000D01*
X168670000Y-58330000D02*
X171330000Y-58330000D01*
X170000000Y-60930000D02*
X171330000Y-60930000D01*
X171330000Y-58330000D02*
X171330000Y-50650000D01*
X171330000Y-60930000D02*
X171330000Y-59600000D01*
%TO.C,U6*%
X147440000Y-64490000D02*
X147440000Y-64665000D01*
X147440000Y-67535000D02*
X147440000Y-67710000D01*
X147440000Y-67710000D02*
X150660000Y-67710000D01*
X150660000Y-64490000D02*
X147440000Y-64490000D01*
X150660000Y-64665000D02*
X150660000Y-64490000D01*
X150660000Y-67710000D02*
X150660000Y-67535000D01*
X151210000Y-64660000D02*
X150970000Y-64330000D01*
X151450000Y-64330000D01*
X151210000Y-64660000D01*
G36*
X151210000Y-64660000D02*
G01*
X150970000Y-64330000D01*
X151450000Y-64330000D01*
X151210000Y-64660000D01*
G37*
%TO.C,C10*%
X161737246Y-61348911D02*
X161737246Y-61580581D01*
X162457246Y-61348911D02*
X162457246Y-61580581D01*
D10*
%TO.C,U3*%
X149050000Y-48800000D02*
X149050000Y-49600000D01*
X149050000Y-51400000D02*
X149050000Y-51600000D01*
X149050000Y-53400000D02*
X149050000Y-53600000D01*
X149050000Y-55400000D02*
X149050000Y-55600000D01*
X149050000Y-57400000D02*
X149050000Y-57600000D01*
X149050000Y-59400000D02*
X149050000Y-60200000D01*
X160450000Y-48800000D02*
X149050000Y-48800000D01*
X160450000Y-48800000D02*
X160450000Y-49600000D01*
X160450000Y-51400000D02*
X160450000Y-51600000D01*
X160450000Y-53400000D02*
X160450000Y-53600000D01*
X160450000Y-55400000D02*
X160450000Y-55600000D01*
X160450000Y-57400000D02*
X160450000Y-57600000D01*
X160450000Y-59400000D02*
X160450000Y-60200000D01*
X160450000Y-60200000D02*
X149050000Y-60200000D01*
D12*
%TO.C,R12*%
X148029879Y-63120000D02*
X148365121Y-63120000D01*
X148029879Y-63880000D02*
X148365121Y-63880000D01*
%TO.C,C19*%
X144740000Y-66051665D02*
X144740000Y-66283335D01*
X145460000Y-66051665D02*
X145460000Y-66283335D01*
%TO.C,C15*%
X151060835Y-61954052D02*
X150829165Y-61954052D01*
X151060835Y-62674052D02*
X150829165Y-62674052D01*
%TO.C,C16*%
X152940000Y-66265835D02*
X152940000Y-66034165D01*
X153660000Y-66265835D02*
X153660000Y-66034165D01*
%TO.C,R11*%
X148029879Y-61920000D02*
X148365121Y-61920000D01*
X148029879Y-62680000D02*
X148365121Y-62680000D01*
%TO.C,R10*%
X148402467Y-60620000D02*
X148067225Y-60620000D01*
X148402467Y-61380000D02*
X148067225Y-61380000D01*
%TO.C,C14*%
X151128335Y-60640000D02*
X150896665Y-60640000D01*
X151128335Y-61360000D02*
X150896665Y-61360000D01*
%TD*%
M02*
