ISO-10303-21;
HEADER;
/* Generated by software containing ST-Developer
 * from STEP Tools, Inc. (www.steptools.com) 
 */

FILE_DESCRIPTION(
/* description */ (''),
/* implementation_level */ '2;1');

FILE_NAME(
/* name */ 'Board Holder.step',
/* time_stamp */ '2026-07-30T20:07:50-04:00',
/* author */ (''),
/* organization */ (''),
/* preprocessor_version */ 'ST-DEVELOPER v20.1',
/* originating_system */ 'Autodesk Translation Framework v15.8.0.0',
/* authorisation */ '');

FILE_SCHEMA (('AUTOMOTIVE_DESIGN { 1 0 10303 214 3 1 1 }'));
ENDSEC;

DATA;
#10=MECHANICAL_DESIGN_GEOMETRIC_PRESENTATION_REPRESENTATION('',(#13),#1717);
#11=SHAPE_REPRESENTATION_RELATIONSHIP('SRR','None',#1724,#12);
#12=ADVANCED_BREP_SHAPE_REPRESENTATION('',(#14),#1716);
#13=STYLED_ITEM('',(#1733),#14);
#14=MANIFOLD_SOLID_BREP('Body1',#1039);
#15=TOROIDAL_SURFACE('',#1101,1.5,0.5);
#16=TOROIDAL_SURFACE('',#1109,1.5,0.5);
#17=ELLIPSE('',#1100,0.610387294380728,0.5);
#18=ELLIPSE('',#1108,0.610387294380728,0.5);
#19=SPHERICAL_SURFACE('',#1077,0.499999999999998);
#20=SPHERICAL_SURFACE('',#1086,0.500000000000001);
#21=CYLINDRICAL_SURFACE('',#1073,0.5);
#22=CYLINDRICAL_SURFACE('',#1075,0.5);
#23=CYLINDRICAL_SURFACE('',#1080,0.5);
#24=CYLINDRICAL_SURFACE('',#1082,0.5);
#25=CYLINDRICAL_SURFACE('',#1090,0.5);
#26=CYLINDRICAL_SURFACE('',#1091,0.5);
#27=CYLINDRICAL_SURFACE('',#1093,0.5);
#28=CYLINDRICAL_SURFACE('',#1098,0.5);
#29=CYLINDRICAL_SURFACE('',#1103,1.);
#30=CYLINDRICAL_SURFACE('',#1106,0.5);
#31=CYLINDRICAL_SURFACE('',#1113,0.5);
#32=CYLINDRICAL_SURFACE('',#1117,1.);
#33=CIRCLE('',#1057,0.5);
#34=CIRCLE('',#1058,0.5);
#35=CIRCLE('',#1060,0.5);
#36=CIRCLE('',#1061,0.5);
#37=CIRCLE('',#1070,0.5);
#38=CIRCLE('',#1074,0.499999999999998);
#39=CIRCLE('',#1076,0.499999999999998);
#40=CIRCLE('',#1078,0.499999999999998);
#41=CIRCLE('',#1079,0.5);
#42=CIRCLE('',#1081,0.5);
#43=CIRCLE('',#1084,1.5);
#44=CIRCLE('',#1087,0.499999999999998);
#45=CIRCLE('',#1088,0.500000000000001);
#46=CIRCLE('',#1089,0.5);
#47=CIRCLE('',#1092,0.5);
#48=CIRCLE('',#1094,0.5);
#49=CIRCLE('',#1097,1.);
#50=CIRCLE('',#1099,0.5);
#51=CIRCLE('',#1102,1.);
#52=CIRCLE('',#1104,1.);
#53=CIRCLE('',#1107,0.499999999999999);
#54=CIRCLE('',#1110,0.500000000000001);
#55=CIRCLE('',#1111,1.);
#56=CIRCLE('',#1112,1.5);
#57=FACE_OUTER_BOUND('',#111,.T.);
#58=FACE_OUTER_BOUND('',#112,.T.);
#59=FACE_OUTER_BOUND('',#113,.T.);
#60=FACE_OUTER_BOUND('',#114,.T.);
#61=FACE_OUTER_BOUND('',#115,.T.);
#62=FACE_OUTER_BOUND('',#116,.T.);
#63=FACE_OUTER_BOUND('',#117,.T.);
#64=FACE_OUTER_BOUND('',#118,.T.);
#65=FACE_OUTER_BOUND('',#119,.T.);
#66=FACE_OUTER_BOUND('',#120,.T.);
#67=FACE_OUTER_BOUND('',#121,.T.);
#68=FACE_OUTER_BOUND('',#122,.T.);
#69=FACE_OUTER_BOUND('',#123,.T.);
#70=FACE_OUTER_BOUND('',#124,.T.);
#71=FACE_OUTER_BOUND('',#125,.T.);
#72=FACE_OUTER_BOUND('',#126,.T.);
#73=FACE_OUTER_BOUND('',#127,.T.);
#74=FACE_OUTER_BOUND('',#128,.T.);
#75=FACE_OUTER_BOUND('',#129,.T.);
#76=FACE_OUTER_BOUND('',#130,.T.);
#77=FACE_OUTER_BOUND('',#131,.T.);
#78=FACE_OUTER_BOUND('',#132,.T.);
#79=FACE_OUTER_BOUND('',#133,.T.);
#80=FACE_OUTER_BOUND('',#134,.T.);
#81=FACE_OUTER_BOUND('',#135,.T.);
#82=FACE_OUTER_BOUND('',#136,.T.);
#83=FACE_OUTER_BOUND('',#137,.T.);
#84=FACE_OUTER_BOUND('',#138,.T.);
#85=FACE_OUTER_BOUND('',#139,.T.);
#86=FACE_OUTER_BOUND('',#140,.T.);
#87=FACE_OUTER_BOUND('',#141,.T.);
#88=FACE_OUTER_BOUND('',#142,.T.);
#89=FACE_OUTER_BOUND('',#143,.T.);
#90=FACE_OUTER_BOUND('',#144,.T.);
#91=FACE_OUTER_BOUND('',#145,.T.);
#92=FACE_OUTER_BOUND('',#146,.T.);
#93=FACE_OUTER_BOUND('',#147,.T.);
#94=FACE_OUTER_BOUND('',#148,.T.);
#95=FACE_OUTER_BOUND('',#149,.T.);
#96=FACE_OUTER_BOUND('',#150,.T.);
#97=FACE_OUTER_BOUND('',#151,.T.);
#98=FACE_OUTER_BOUND('',#152,.T.);
#99=FACE_OUTER_BOUND('',#153,.T.);
#100=FACE_OUTER_BOUND('',#154,.T.);
#101=FACE_OUTER_BOUND('',#155,.T.);
#102=FACE_OUTER_BOUND('',#156,.T.);
#103=FACE_OUTER_BOUND('',#157,.T.);
#104=FACE_OUTER_BOUND('',#158,.T.);
#105=FACE_OUTER_BOUND('',#159,.T.);
#106=FACE_OUTER_BOUND('',#160,.T.);
#107=FACE_OUTER_BOUND('',#161,.T.);
#108=FACE_OUTER_BOUND('',#162,.T.);
#109=FACE_OUTER_BOUND('',#163,.T.);
#110=FACE_OUTER_BOUND('',#164,.T.);
#111=EDGE_LOOP('',(#651,#652,#653,#654));
#112=EDGE_LOOP('',(#655,#656,#657,#658));
#113=EDGE_LOOP('',(#659,#660,#661,#662,#663,#664));
#114=EDGE_LOOP('',(#665,#666,#667,#668,#669,#670));
#115=EDGE_LOOP('',(#671,#672,#673,#674,#675,#676));
#116=EDGE_LOOP('',(#677,#678,#679,#680));
#117=EDGE_LOOP('',(#681,#682,#683,#684));
#118=EDGE_LOOP('',(#685,#686,#687,#688,#689,#690));
#119=EDGE_LOOP('',(#691,#692,#693,#694,#695,#696));
#120=EDGE_LOOP('',(#697,#698,#699,#700));
#121=EDGE_LOOP('',(#701,#702,#703,#704));
#122=EDGE_LOOP('',(#705,#706,#707,#708,#709,#710,#711));
#123=EDGE_LOOP('',(#712,#713,#714,#715,#716,#717,#718,#719,#720));
#124=EDGE_LOOP('',(#721,#722,#723,#724,#725,#726,#727));
#125=EDGE_LOOP('',(#728,#729,#730,#731));
#126=EDGE_LOOP('',(#732,#733,#734,#735));
#127=EDGE_LOOP('',(#736,#737,#738,#739));
#128=EDGE_LOOP('',(#740,#741,#742));
#129=EDGE_LOOP('',(#743,#744,#745,#746));
#130=EDGE_LOOP('',(#747,#748,#749,#750));
#131=EDGE_LOOP('',(#751,#752,#753,#754,#755,#756,#757,#758,#759,#760));
#132=EDGE_LOOP('',(#761,#762,#763,#764,#765,#766,#767,#768,#769,#770,#771,
#772));
#133=EDGE_LOOP('',(#773,#774,#775));
#134=EDGE_LOOP('',(#776,#777,#778,#779));
#135=EDGE_LOOP('',(#780,#781,#782,#783));
#136=EDGE_LOOP('',(#784,#785,#786,#787));
#137=EDGE_LOOP('',(#788,#789,#790,#791,#792,#793));
#138=EDGE_LOOP('',(#794,#795,#796,#797,#798,#799,#800,#801,#802,#803));
#139=EDGE_LOOP('',(#804,#805,#806,#807));
#140=EDGE_LOOP('',(#808,#809,#810,#811));
#141=EDGE_LOOP('',(#812,#813,#814,#815));
#142=EDGE_LOOP('',(#816,#817,#818,#819,#820,#821,#822,#823,#824,#825,#826,
#827));
#143=EDGE_LOOP('',(#828,#829,#830,#831));
#144=EDGE_LOOP('',(#832,#833,#834,#835));
#145=EDGE_LOOP('',(#836,#837,#838,#839));
#146=EDGE_LOOP('',(#840,#841,#842,#843,#844,#845,#846,#847,#848,#849));
#147=EDGE_LOOP('',(#850,#851,#852,#853,#854));
#148=EDGE_LOOP('',(#855,#856,#857,#858,#859));
#149=EDGE_LOOP('',(#860,#861,#862,#863));
#150=EDGE_LOOP('',(#864,#865,#866,#867));
#151=EDGE_LOOP('',(#868,#869,#870,#871));
#152=EDGE_LOOP('',(#872,#873,#874,#875));
#153=EDGE_LOOP('',(#876,#877,#878,#879));
#154=EDGE_LOOP('',(#880,#881,#882,#883));
#155=EDGE_LOOP('',(#884,#885,#886,#887,#888,#889,#890,#891,#892,#893));
#156=EDGE_LOOP('',(#894,#895,#896,#897));
#157=EDGE_LOOP('',(#898,#899,#900,#901));
#158=EDGE_LOOP('',(#902,#903,#904,#905));
#159=EDGE_LOOP('',(#906,#907,#908,#909));
#160=EDGE_LOOP('',(#910,#911,#912,#913,#914,#915,#916,#917,#918,#919));
#161=EDGE_LOOP('',(#920,#921,#922,#923));
#162=EDGE_LOOP('',(#924,#925,#926,#927,#928,#929,#930,#931,#932,#933));
#163=EDGE_LOOP('',(#934,#935,#936,#937));
#164=EDGE_LOOP('',(#938,#939,#940,#941,#942,#943,#944,#945,#946));
#165=LINE('',#1421,#287);
#166=LINE('',#1423,#288);
#167=LINE('',#1425,#289);
#168=LINE('',#1426,#290);
#169=LINE('',#1430,#291);
#170=LINE('',#1432,#292);
#171=LINE('',#1434,#293);
#172=LINE('',#1435,#294);
#173=LINE('',#1438,#295);
#174=LINE('',#1440,#296);
#175=LINE('',#1442,#297);
#176=LINE('',#1444,#298);
#177=LINE('',#1445,#299);
#178=LINE('',#1450,#300);
#179=LINE('',#1453,#301);
#180=LINE('',#1456,#302);
#181=LINE('',#1460,#303);
#182=LINE('',#1463,#304);
#183=LINE('',#1466,#305);
#184=LINE('',#1468,#306);
#185=LINE('',#1469,#307);
#186=LINE('',#1472,#308);
#187=LINE('',#1473,#309);
#188=LINE('',#1476,#310);
#189=LINE('',#1478,#311);
#190=LINE('',#1479,#312);
#191=LINE('',#1482,#313);
#192=LINE('',#1484,#314);
#193=LINE('',#1485,#315);
#194=LINE('',#1489,#316);
#195=LINE('',#1491,#317);
#196=LINE('',#1493,#318);
#197=LINE('',#1494,#319);
#198=LINE('',#1498,#320);
#199=LINE('',#1500,#321);
#200=LINE('',#1502,#322);
#201=LINE('',#1503,#323);
#202=LINE('',#1506,#324);
#203=LINE('',#1508,#325);
#204=LINE('',#1510,#326);
#205=LINE('',#1512,#327);
#206=LINE('',#1514,#328);
#207=LINE('',#1515,#329);
#208=LINE('',#1518,#330);
#209=LINE('',#1522,#331);
#210=LINE('',#1524,#332);
#211=LINE('',#1526,#333);
#212=LINE('',#1528,#334);
#213=LINE('',#1529,#335);
#214=LINE('',#1532,#336);
#215=LINE('',#1534,#337);
#216=LINE('',#1536,#338);
#217=LINE('',#1538,#339);
#218=LINE('',#1540,#340);
#219=LINE('',#1541,#341);
#220=LINE('',#1544,#342);
#221=LINE('',#1545,#343);
#222=LINE('',#1548,#344);
#223=LINE('',#1553,#345);
#224=LINE('',#1561,#346);
#225=LINE('',#1563,#347);
#226=LINE('',#1564,#348);
#227=LINE('',#1567,#349);
#228=LINE('',#1569,#350);
#229=LINE('',#1571,#351);
#230=LINE('',#1575,#352);
#231=LINE('',#1577,#353);
#232=LINE('',#1579,#354);
#233=LINE('',#1581,#355);
#234=LINE('',#1583,#356);
#235=LINE('',#1585,#357);
#236=LINE('',#1587,#358);
#237=LINE('',#1589,#359);
#238=LINE('',#1590,#360);
#239=LINE('',#1598,#361);
#240=LINE('',#1599,#362);
#241=LINE('',#1603,#363);
#242=LINE('',#1607,#364);
#243=LINE('',#1609,#365);
#244=LINE('',#1612,#366);
#245=LINE('',#1614,#367);
#246=LINE('',#1616,#368);
#247=LINE('',#1618,#369);
#248=LINE('',#1625,#370);
#249=LINE('',#1630,#371);
#250=LINE('',#1633,#372);
#251=LINE('',#1634,#373);
#252=LINE('',#1636,#374);
#253=LINE('',#1638,#375);
#254=LINE('',#1639,#376);
#255=LINE('',#1641,#377);
#256=LINE('',#1642,#378);
#257=LINE('',#1648,#379);
#258=LINE('',#1655,#380);
#259=LINE('',#1657,#381);
#260=LINE('',#1658,#382);
#261=LINE('',#1661,#383);
#262=LINE('',#1666,#384);
#263=LINE('',#1667,#385);
#264=LINE('',#1670,#386);
#265=LINE('',#1671,#387);
#266=LINE('',#1674,#388);
#267=LINE('',#1675,#389);
#268=LINE('',#1678,#390);
#269=LINE('',#1679,#391);
#270=LINE('',#1682,#392);
#271=LINE('',#1684,#393);
#272=LINE('',#1685,#394);
#273=LINE('',#1687,#395);
#274=LINE('',#1688,#396);
#275=LINE('',#1691,#397);
#276=LINE('',#1692,#398);
#277=LINE('',#1695,#399);
#278=LINE('',#1696,#400);
#279=LINE('',#1700,#401);
#280=LINE('',#1701,#402);
#281=LINE('',#1702,#403);
#282=LINE('',#1704,#404);
#283=LINE('',#1706,#405);
#284=LINE('',#1707,#406);
#285=LINE('',#1708,#407);
#286=LINE('',#1711,#408);
#287=VECTOR('',#1137,10.);
#288=VECTOR('',#1138,10.);
#289=VECTOR('',#1139,10.);
#290=VECTOR('',#1140,10.);
#291=VECTOR('',#1143,10.);
#292=VECTOR('',#1144,10.);
#293=VECTOR('',#1145,10.);
#294=VECTOR('',#1146,10.);
#295=VECTOR('',#1149,10.);
#296=VECTOR('',#1150,10.);
#297=VECTOR('',#1151,10.);
#298=VECTOR('',#1152,10.);
#299=VECTOR('',#1153,10.);
#300=VECTOR('',#1158,10.);
#301=VECTOR('',#1161,10.);
#302=VECTOR('',#1164,10.);
#303=VECTOR('',#1167,10.);
#304=VECTOR('',#1170,10.);
#305=VECTOR('',#1173,10.);
#306=VECTOR('',#1174,10.);
#307=VECTOR('',#1175,10.);
#308=VECTOR('',#1178,10.);
#309=VECTOR('',#1179,10.);
#310=VECTOR('',#1182,10.);
#311=VECTOR('',#1183,10.);
#312=VECTOR('',#1184,10.);
#313=VECTOR('',#1187,10.);
#314=VECTOR('',#1188,10.);
#315=VECTOR('',#1189,10.);
#316=VECTOR('',#1192,10.);
#317=VECTOR('',#1193,10.);
#318=VECTOR('',#1194,10.);
#319=VECTOR('',#1195,10.);
#320=VECTOR('',#1198,10.);
#321=VECTOR('',#1199,10.);
#322=VECTOR('',#1200,10.);
#323=VECTOR('',#1201,10.);
#324=VECTOR('',#1204,10.);
#325=VECTOR('',#1205,10.);
#326=VECTOR('',#1206,10.);
#327=VECTOR('',#1207,10.);
#328=VECTOR('',#1208,10.);
#329=VECTOR('',#1209,10.);
#330=VECTOR('',#1212,10.);
#331=VECTOR('',#1215,10.);
#332=VECTOR('',#1216,10.);
#333=VECTOR('',#1217,10.);
#334=VECTOR('',#1218,10.);
#335=VECTOR('',#1219,10.);
#336=VECTOR('',#1222,10.);
#337=VECTOR('',#1223,10.);
#338=VECTOR('',#1224,10.);
#339=VECTOR('',#1225,10.);
#340=VECTOR('',#1226,10.);
#341=VECTOR('',#1227,10.);
#342=VECTOR('',#1230,10.);
#343=VECTOR('',#1231,10.);
#344=VECTOR('',#1234,10.);
#345=VECTOR('',#1241,10.);
#346=VECTOR('',#1252,10.);
#347=VECTOR('',#1255,10.);
#348=VECTOR('',#1256,10.);
#349=VECTOR('',#1259,10.);
#350=VECTOR('',#1260,10.);
#351=VECTOR('',#1261,10.);
#352=VECTOR('',#1266,10.);
#353=VECTOR('',#1267,10.);
#354=VECTOR('',#1268,10.);
#355=VECTOR('',#1269,10.);
#356=VECTOR('',#1270,10.);
#357=VECTOR('',#1271,10.);
#358=VECTOR('',#1272,10.);
#359=VECTOR('',#1273,10.);
#360=VECTOR('',#1274,10.);
#361=VECTOR('',#1285,10.);
#362=VECTOR('',#1286,10.);
#363=VECTOR('',#1291,10.);
#364=VECTOR('',#1296,10.);
#365=VECTOR('',#1299,10.);
#366=VECTOR('',#1302,10.);
#367=VECTOR('',#1303,10.);
#368=VECTOR('',#1304,10.);
#369=VECTOR('',#1305,10.);
#370=VECTOR('',#1314,10.);
#371=VECTOR('',#1321,10.);
#372=VECTOR('',#1326,10.);
#373=VECTOR('',#1327,10.);
#374=VECTOR('',#1328,10.);
#375=VECTOR('',#1329,10.);
#376=VECTOR('',#1330,10.);
#377=VECTOR('',#1331,10.);
#378=VECTOR('',#1332,10.);
#379=VECTOR('',#1339,10.);
#380=VECTOR('',#1350,10.);
#381=VECTOR('',#1353,10.);
#382=VECTOR('',#1354,10.);
#383=VECTOR('',#1359,10.);
#384=VECTOR('',#1366,10.);
#385=VECTOR('',#1367,10.);
#386=VECTOR('',#1370,10.);
#387=VECTOR('',#1371,10.);
#388=VECTOR('',#1374,10.);
#389=VECTOR('',#1375,10.);
#390=VECTOR('',#1378,10.);
#391=VECTOR('',#1379,10.);
#392=VECTOR('',#1382,10.);
#393=VECTOR('',#1383,10.);
#394=VECTOR('',#1384,10.);
#395=VECTOR('',#1385,10.);
#396=VECTOR('',#1386,10.);
#397=VECTOR('',#1389,10.);
#398=VECTOR('',#1390,10.);
#399=VECTOR('',#1393,10.);
#400=VECTOR('',#1394,10.);
#401=VECTOR('',#1397,10.);
#402=VECTOR('',#1398,10.);
#403=VECTOR('',#1399,10.);
#404=VECTOR('',#1402,10.);
#405=VECTOR('',#1405,10.);
#406=VECTOR('',#1406,10.);
#407=VECTOR('',#1407,10.);
#408=VECTOR('',#1412,10.);
#409=VERTEX_POINT('',#1419);
#410=VERTEX_POINT('',#1420);
#411=VERTEX_POINT('',#1422);
#412=VERTEX_POINT('',#1424);
#413=VERTEX_POINT('',#1428);
#414=VERTEX_POINT('',#1429);
#415=VERTEX_POINT('',#1431);
#416=VERTEX_POINT('',#1433);
#417=VERTEX_POINT('',#1437);
#418=VERTEX_POINT('',#1439);
#419=VERTEX_POINT('',#1441);
#420=VERTEX_POINT('',#1443);
#421=VERTEX_POINT('',#1447);
#422=VERTEX_POINT('',#1449);
#423=VERTEX_POINT('',#1451);
#424=VERTEX_POINT('',#1455);
#425=VERTEX_POINT('',#1457);
#426=VERTEX_POINT('',#1459);
#427=VERTEX_POINT('',#1461);
#428=VERTEX_POINT('',#1465);
#429=VERTEX_POINT('',#1467);
#430=VERTEX_POINT('',#1471);
#431=VERTEX_POINT('',#1475);
#432=VERTEX_POINT('',#1477);
#433=VERTEX_POINT('',#1481);
#434=VERTEX_POINT('',#1483);
#435=VERTEX_POINT('',#1487);
#436=VERTEX_POINT('',#1488);
#437=VERTEX_POINT('',#1490);
#438=VERTEX_POINT('',#1492);
#439=VERTEX_POINT('',#1496);
#440=VERTEX_POINT('',#1497);
#441=VERTEX_POINT('',#1499);
#442=VERTEX_POINT('',#1501);
#443=VERTEX_POINT('',#1505);
#444=VERTEX_POINT('',#1507);
#445=VERTEX_POINT('',#1509);
#446=VERTEX_POINT('',#1511);
#447=VERTEX_POINT('',#1513);
#448=VERTEX_POINT('',#1517);
#449=VERTEX_POINT('',#1519);
#450=VERTEX_POINT('',#1521);
#451=VERTEX_POINT('',#1523);
#452=VERTEX_POINT('',#1525);
#453=VERTEX_POINT('',#1527);
#454=VERTEX_POINT('',#1531);
#455=VERTEX_POINT('',#1533);
#456=VERTEX_POINT('',#1535);
#457=VERTEX_POINT('',#1537);
#458=VERTEX_POINT('',#1539);
#459=VERTEX_POINT('',#1543);
#460=VERTEX_POINT('',#1547);
#461=VERTEX_POINT('',#1551);
#462=VERTEX_POINT('',#1555);
#463=VERTEX_POINT('',#1559);
#464=VERTEX_POINT('',#1566);
#465=VERTEX_POINT('',#1568);
#466=VERTEX_POINT('',#1570);
#467=VERTEX_POINT('',#1574);
#468=VERTEX_POINT('',#1576);
#469=VERTEX_POINT('',#1578);
#470=VERTEX_POINT('',#1580);
#471=VERTEX_POINT('',#1582);
#472=VERTEX_POINT('',#1584);
#473=VERTEX_POINT('',#1586);
#474=VERTEX_POINT('',#1588);
#475=VERTEX_POINT('',#1592);
#476=VERTEX_POINT('',#1594);
#477=VERTEX_POINT('',#1601);
#478=VERTEX_POINT('',#1605);
#479=VERTEX_POINT('',#1611);
#480=VERTEX_POINT('',#1613);
#481=VERTEX_POINT('',#1615);
#482=VERTEX_POINT('',#1617);
#483=VERTEX_POINT('',#1621);
#484=VERTEX_POINT('',#1623);
#485=VERTEX_POINT('',#1629);
#486=VERTEX_POINT('',#1635);
#487=VERTEX_POINT('',#1637);
#488=VERTEX_POINT('',#1640);
#489=VERTEX_POINT('',#1644);
#490=VERTEX_POINT('',#1646);
#491=VERTEX_POINT('',#1650);
#492=VERTEX_POINT('',#1665);
#493=VERTEX_POINT('',#1669);
#494=VERTEX_POINT('',#1673);
#495=VERTEX_POINT('',#1677);
#496=VERTEX_POINT('',#1681);
#497=VERTEX_POINT('',#1683);
#498=VERTEX_POINT('',#1686);
#499=VERTEX_POINT('',#1690);
#500=VERTEX_POINT('',#1694);
#501=VERTEX_POINT('',#1698);
#502=VERTEX_POINT('',#1699);
#503=EDGE_CURVE('',#409,#410,#165,.T.);
#504=EDGE_CURVE('',#411,#409,#166,.T.);
#505=EDGE_CURVE('',#412,#411,#167,.T.);
#506=EDGE_CURVE('',#410,#412,#168,.T.);
#507=EDGE_CURVE('',#413,#414,#169,.T.);
#508=EDGE_CURVE('',#415,#413,#170,.T.);
#509=EDGE_CURVE('',#416,#415,#171,.T.);
#510=EDGE_CURVE('',#414,#416,#172,.T.);
#511=EDGE_CURVE('',#416,#417,#173,.T.);
#512=EDGE_CURVE('',#417,#418,#174,.T.);
#513=EDGE_CURVE('',#419,#418,#175,.T.);
#514=EDGE_CURVE('',#420,#419,#176,.T.);
#515=EDGE_CURVE('',#420,#414,#177,.T.);
#516=EDGE_CURVE('',#421,#420,#33,.T.);
#517=EDGE_CURVE('',#422,#421,#178,.T.);
#518=EDGE_CURVE('',#423,#422,#34,.T.);
#519=EDGE_CURVE('',#413,#423,#179,.T.);
#520=EDGE_CURVE('',#424,#410,#180,.T.);
#521=EDGE_CURVE('',#425,#424,#35,.T.);
#522=EDGE_CURVE('',#426,#425,#181,.T.);
#523=EDGE_CURVE('',#427,#426,#36,.T.);
#524=EDGE_CURVE('',#409,#427,#182,.T.);
#525=EDGE_CURVE('',#428,#411,#183,.T.);
#526=EDGE_CURVE('',#429,#428,#184,.T.);
#527=EDGE_CURVE('',#412,#429,#185,.T.);
#528=EDGE_CURVE('',#430,#415,#186,.T.);
#529=EDGE_CURVE('',#417,#430,#187,.T.);
#530=EDGE_CURVE('',#431,#423,#188,.T.);
#531=EDGE_CURVE('',#432,#431,#189,.T.);
#532=EDGE_CURVE('',#432,#430,#190,.T.);
#533=EDGE_CURVE('',#429,#433,#191,.T.);
#534=EDGE_CURVE('',#434,#433,#192,.T.);
#535=EDGE_CURVE('',#424,#434,#193,.T.);
#536=EDGE_CURVE('',#435,#436,#194,.T.);
#537=EDGE_CURVE('',#437,#435,#195,.T.);
#538=EDGE_CURVE('',#438,#437,#196,.T.);
#539=EDGE_CURVE('',#436,#438,#197,.T.);
#540=EDGE_CURVE('',#439,#440,#198,.T.);
#541=EDGE_CURVE('',#441,#439,#199,.T.);
#542=EDGE_CURVE('',#442,#441,#200,.T.);
#543=EDGE_CURVE('',#440,#442,#201,.T.);
#544=EDGE_CURVE('',#443,#436,#202,.T.);
#545=EDGE_CURVE('',#443,#444,#203,.T.);
#546=EDGE_CURVE('',#444,#445,#204,.T.);
#547=EDGE_CURVE('',#446,#445,#205,.T.);
#548=EDGE_CURVE('',#447,#446,#206,.T.);
#549=EDGE_CURVE('',#447,#435,#207,.T.);
#550=EDGE_CURVE('',#438,#448,#208,.T.);
#551=EDGE_CURVE('',#449,#448,#37,.T.);
#552=EDGE_CURVE('',#450,#449,#209,.T.);
#553=EDGE_CURVE('',#451,#450,#210,.T.);
#554=EDGE_CURVE('',#452,#451,#211,.T.);
#555=EDGE_CURVE('',#453,#452,#212,.T.);
#556=EDGE_CURVE('',#453,#443,#213,.T.);
#557=EDGE_CURVE('',#454,#440,#214,.T.);
#558=EDGE_CURVE('',#455,#454,#215,.T.);
#559=EDGE_CURVE('',#456,#455,#216,.T.);
#560=EDGE_CURVE('',#457,#456,#217,.T.);
#561=EDGE_CURVE('',#458,#457,#218,.T.);
#562=EDGE_CURVE('',#458,#439,#219,.T.);
#563=EDGE_CURVE('',#459,#442,#220,.T.);
#564=EDGE_CURVE('',#454,#459,#221,.T.);
#565=EDGE_CURVE('',#422,#460,#222,.T.);
#566=EDGE_CURVE('',#431,#460,#38,.T.);
#567=EDGE_CURVE('',#419,#461,#39,.F.);
#568=EDGE_CURVE('',#461,#421,#223,.T.);
#569=EDGE_CURVE('',#461,#462,#40,.F.);
#570=EDGE_CURVE('',#462,#419,#41,.F.);
#571=EDGE_CURVE('',#418,#463,#42,.T.);
#572=EDGE_CURVE('',#463,#462,#224,.T.);
#573=EDGE_CURVE('',#448,#461,#225,.T.);
#574=EDGE_CURVE('',#462,#449,#226,.T.);
#575=EDGE_CURVE('',#464,#437,#227,.T.);
#576=EDGE_CURVE('',#465,#464,#228,.T.);
#577=EDGE_CURVE('',#466,#465,#229,.T.);
#578=EDGE_CURVE('',#460,#466,#43,.T.);
#579=EDGE_CURVE('',#463,#467,#230,.T.);
#580=EDGE_CURVE('',#467,#468,#231,.T.);
#581=EDGE_CURVE('',#468,#469,#232,.T.);
#582=EDGE_CURVE('',#470,#469,#233,.T.);
#583=EDGE_CURVE('',#471,#470,#234,.T.);
#584=EDGE_CURVE('',#471,#472,#235,.T.);
#585=EDGE_CURVE('',#472,#473,#236,.T.);
#586=EDGE_CURVE('',#473,#474,#237,.T.);
#587=EDGE_CURVE('',#474,#450,#238,.T.);
#588=EDGE_CURVE('',#475,#470,#44,.F.);
#589=EDGE_CURVE('',#476,#475,#45,.F.);
#590=EDGE_CURVE('',#470,#476,#46,.F.);
#591=EDGE_CURVE('',#426,#476,#239,.T.);
#592=EDGE_CURVE('',#475,#427,#240,.T.);
#593=EDGE_CURVE('',#477,#471,#47,.T.);
#594=EDGE_CURVE('',#476,#477,#241,.T.);
#595=EDGE_CURVE('',#469,#478,#48,.T.);
#596=EDGE_CURVE('',#478,#475,#242,.T.);
#597=EDGE_CURVE('',#428,#478,#243,.T.);
#598=EDGE_CURVE('',#479,#468,#244,.T.);
#599=EDGE_CURVE('',#480,#479,#245,.T.);
#600=EDGE_CURVE('',#480,#481,#246,.T.);
#601=EDGE_CURVE('',#482,#481,#247,.T.);
#602=EDGE_CURVE('',#433,#482,#49,.T.);
#603=EDGE_CURVE('',#483,#466,#50,.T.);
#604=EDGE_CURVE('',#465,#484,#17,.F.);
#605=EDGE_CURVE('',#484,#483,#248,.T.);
#606=EDGE_CURVE('',#483,#431,#51,.T.);
#607=EDGE_CURVE('',#483,#485,#249,.T.);
#608=EDGE_CURVE('',#432,#485,#52,.F.);
#609=EDGE_CURVE('',#446,#484,#250,.T.);
#610=EDGE_CURVE('',#445,#456,#251,.T.);
#611=EDGE_CURVE('',#486,#455,#252,.T.);
#612=EDGE_CURVE('',#487,#486,#253,.T.);
#613=EDGE_CURVE('',#482,#487,#254,.T.);
#614=EDGE_CURVE('',#481,#488,#255,.T.);
#615=EDGE_CURVE('',#488,#485,#256,.T.);
#616=EDGE_CURVE('',#489,#487,#53,.T.);
#617=EDGE_CURVE('',#486,#490,#18,.F.);
#618=EDGE_CURVE('',#490,#489,#257,.T.);
#619=EDGE_CURVE('',#491,#434,#54,.T.);
#620=EDGE_CURVE('',#434,#487,#55,.T.);
#621=EDGE_CURVE('',#489,#491,#56,.T.);
#622=EDGE_CURVE('',#491,#425,#258,.T.);
#623=EDGE_CURVE('',#441,#477,#259,.T.);
#624=EDGE_CURVE('',#459,#490,#260,.T.);
#625=EDGE_CURVE('',#464,#447,#261,.T.);
#626=EDGE_CURVE('',#492,#479,#262,.T.);
#627=EDGE_CURVE('',#492,#467,#263,.T.);
#628=EDGE_CURVE('',#451,#493,#264,.T.);
#629=EDGE_CURVE('',#493,#474,#265,.T.);
#630=EDGE_CURVE('',#494,#493,#266,.T.);
#631=EDGE_CURVE('',#494,#473,#267,.T.);
#632=EDGE_CURVE('',#495,#494,#268,.T.);
#633=EDGE_CURVE('',#495,#472,#269,.T.);
#634=EDGE_CURVE('',#496,#479,#270,.T.);
#635=EDGE_CURVE('',#492,#497,#271,.T.);
#636=EDGE_CURVE('',#497,#452,#272,.T.);
#637=EDGE_CURVE('',#498,#495,#273,.T.);
#638=EDGE_CURVE('',#498,#496,#274,.T.);
#639=EDGE_CURVE('',#480,#499,#275,.T.);
#640=EDGE_CURVE('',#499,#496,#276,.T.);
#641=EDGE_CURVE('',#499,#500,#277,.T.);
#642=EDGE_CURVE('',#500,#498,#278,.T.);
#643=EDGE_CURVE('',#501,#502,#279,.T.);
#644=EDGE_CURVE('',#501,#497,#280,.T.);
#645=EDGE_CURVE('',#502,#492,#281,.T.);
#646=EDGE_CURVE('',#453,#501,#282,.T.);
#647=EDGE_CURVE('',#500,#458,#283,.T.);
#648=EDGE_CURVE('',#457,#444,#284,.T.);
#649=EDGE_CURVE('',#502,#480,#285,.T.);
#650=EDGE_CURVE('',#502,#488,#286,.T.);
#651=ORIENTED_EDGE('',*,*,#503,.F.);
#652=ORIENTED_EDGE('',*,*,#504,.F.);
#653=ORIENTED_EDGE('',*,*,#505,.F.);
#654=ORIENTED_EDGE('',*,*,#506,.F.);
#655=ORIENTED_EDGE('',*,*,#507,.F.);
#656=ORIENTED_EDGE('',*,*,#508,.F.);
#657=ORIENTED_EDGE('',*,*,#509,.F.);
#658=ORIENTED_EDGE('',*,*,#510,.F.);
#659=ORIENTED_EDGE('',*,*,#510,.T.);
#660=ORIENTED_EDGE('',*,*,#511,.T.);
#661=ORIENTED_EDGE('',*,*,#512,.T.);
#662=ORIENTED_EDGE('',*,*,#513,.F.);
#663=ORIENTED_EDGE('',*,*,#514,.F.);
#664=ORIENTED_EDGE('',*,*,#515,.T.);
#665=ORIENTED_EDGE('',*,*,#507,.T.);
#666=ORIENTED_EDGE('',*,*,#515,.F.);
#667=ORIENTED_EDGE('',*,*,#516,.F.);
#668=ORIENTED_EDGE('',*,*,#517,.F.);
#669=ORIENTED_EDGE('',*,*,#518,.F.);
#670=ORIENTED_EDGE('',*,*,#519,.F.);
#671=ORIENTED_EDGE('',*,*,#503,.T.);
#672=ORIENTED_EDGE('',*,*,#520,.F.);
#673=ORIENTED_EDGE('',*,*,#521,.F.);
#674=ORIENTED_EDGE('',*,*,#522,.F.);
#675=ORIENTED_EDGE('',*,*,#523,.F.);
#676=ORIENTED_EDGE('',*,*,#524,.F.);
#677=ORIENTED_EDGE('',*,*,#505,.T.);
#678=ORIENTED_EDGE('',*,*,#525,.F.);
#679=ORIENTED_EDGE('',*,*,#526,.F.);
#680=ORIENTED_EDGE('',*,*,#527,.F.);
#681=ORIENTED_EDGE('',*,*,#509,.T.);
#682=ORIENTED_EDGE('',*,*,#528,.F.);
#683=ORIENTED_EDGE('',*,*,#529,.F.);
#684=ORIENTED_EDGE('',*,*,#511,.F.);
#685=ORIENTED_EDGE('',*,*,#508,.T.);
#686=ORIENTED_EDGE('',*,*,#519,.T.);
#687=ORIENTED_EDGE('',*,*,#530,.F.);
#688=ORIENTED_EDGE('',*,*,#531,.F.);
#689=ORIENTED_EDGE('',*,*,#532,.T.);
#690=ORIENTED_EDGE('',*,*,#528,.T.);
#691=ORIENTED_EDGE('',*,*,#506,.T.);
#692=ORIENTED_EDGE('',*,*,#527,.T.);
#693=ORIENTED_EDGE('',*,*,#533,.T.);
#694=ORIENTED_EDGE('',*,*,#534,.F.);
#695=ORIENTED_EDGE('',*,*,#535,.F.);
#696=ORIENTED_EDGE('',*,*,#520,.T.);
#697=ORIENTED_EDGE('',*,*,#536,.F.);
#698=ORIENTED_EDGE('',*,*,#537,.F.);
#699=ORIENTED_EDGE('',*,*,#538,.F.);
#700=ORIENTED_EDGE('',*,*,#539,.F.);
#701=ORIENTED_EDGE('',*,*,#540,.F.);
#702=ORIENTED_EDGE('',*,*,#541,.F.);
#703=ORIENTED_EDGE('',*,*,#542,.F.);
#704=ORIENTED_EDGE('',*,*,#543,.F.);
#705=ORIENTED_EDGE('',*,*,#536,.T.);
#706=ORIENTED_EDGE('',*,*,#544,.F.);
#707=ORIENTED_EDGE('',*,*,#545,.T.);
#708=ORIENTED_EDGE('',*,*,#546,.T.);
#709=ORIENTED_EDGE('',*,*,#547,.F.);
#710=ORIENTED_EDGE('',*,*,#548,.F.);
#711=ORIENTED_EDGE('',*,*,#549,.T.);
#712=ORIENTED_EDGE('',*,*,#539,.T.);
#713=ORIENTED_EDGE('',*,*,#550,.T.);
#714=ORIENTED_EDGE('',*,*,#551,.F.);
#715=ORIENTED_EDGE('',*,*,#552,.F.);
#716=ORIENTED_EDGE('',*,*,#553,.F.);
#717=ORIENTED_EDGE('',*,*,#554,.F.);
#718=ORIENTED_EDGE('',*,*,#555,.F.);
#719=ORIENTED_EDGE('',*,*,#556,.T.);
#720=ORIENTED_EDGE('',*,*,#544,.T.);
#721=ORIENTED_EDGE('',*,*,#540,.T.);
#722=ORIENTED_EDGE('',*,*,#557,.F.);
#723=ORIENTED_EDGE('',*,*,#558,.F.);
#724=ORIENTED_EDGE('',*,*,#559,.F.);
#725=ORIENTED_EDGE('',*,*,#560,.F.);
#726=ORIENTED_EDGE('',*,*,#561,.F.);
#727=ORIENTED_EDGE('',*,*,#562,.T.);
#728=ORIENTED_EDGE('',*,*,#543,.T.);
#729=ORIENTED_EDGE('',*,*,#563,.F.);
#730=ORIENTED_EDGE('',*,*,#564,.F.);
#731=ORIENTED_EDGE('',*,*,#557,.T.);
#732=ORIENTED_EDGE('',*,*,#518,.T.);
#733=ORIENTED_EDGE('',*,*,#565,.T.);
#734=ORIENTED_EDGE('',*,*,#566,.F.);
#735=ORIENTED_EDGE('',*,*,#530,.T.);
#736=ORIENTED_EDGE('',*,*,#516,.T.);
#737=ORIENTED_EDGE('',*,*,#514,.T.);
#738=ORIENTED_EDGE('',*,*,#567,.T.);
#739=ORIENTED_EDGE('',*,*,#568,.T.);
#740=ORIENTED_EDGE('',*,*,#569,.F.);
#741=ORIENTED_EDGE('',*,*,#567,.F.);
#742=ORIENTED_EDGE('',*,*,#570,.F.);
#743=ORIENTED_EDGE('',*,*,#571,.T.);
#744=ORIENTED_EDGE('',*,*,#572,.T.);
#745=ORIENTED_EDGE('',*,*,#570,.T.);
#746=ORIENTED_EDGE('',*,*,#513,.T.);
#747=ORIENTED_EDGE('',*,*,#551,.T.);
#748=ORIENTED_EDGE('',*,*,#573,.T.);
#749=ORIENTED_EDGE('',*,*,#569,.T.);
#750=ORIENTED_EDGE('',*,*,#574,.T.);
#751=ORIENTED_EDGE('',*,*,#538,.T.);
#752=ORIENTED_EDGE('',*,*,#575,.F.);
#753=ORIENTED_EDGE('',*,*,#576,.F.);
#754=ORIENTED_EDGE('',*,*,#577,.F.);
#755=ORIENTED_EDGE('',*,*,#578,.F.);
#756=ORIENTED_EDGE('',*,*,#565,.F.);
#757=ORIENTED_EDGE('',*,*,#517,.T.);
#758=ORIENTED_EDGE('',*,*,#568,.F.);
#759=ORIENTED_EDGE('',*,*,#573,.F.);
#760=ORIENTED_EDGE('',*,*,#550,.F.);
#761=ORIENTED_EDGE('',*,*,#574,.F.);
#762=ORIENTED_EDGE('',*,*,#572,.F.);
#763=ORIENTED_EDGE('',*,*,#579,.T.);
#764=ORIENTED_EDGE('',*,*,#580,.T.);
#765=ORIENTED_EDGE('',*,*,#581,.T.);
#766=ORIENTED_EDGE('',*,*,#582,.F.);
#767=ORIENTED_EDGE('',*,*,#583,.F.);
#768=ORIENTED_EDGE('',*,*,#584,.T.);
#769=ORIENTED_EDGE('',*,*,#585,.T.);
#770=ORIENTED_EDGE('',*,*,#586,.T.);
#771=ORIENTED_EDGE('',*,*,#587,.T.);
#772=ORIENTED_EDGE('',*,*,#552,.T.);
#773=ORIENTED_EDGE('',*,*,#588,.F.);
#774=ORIENTED_EDGE('',*,*,#589,.F.);
#775=ORIENTED_EDGE('',*,*,#590,.F.);
#776=ORIENTED_EDGE('',*,*,#523,.T.);
#777=ORIENTED_EDGE('',*,*,#591,.T.);
#778=ORIENTED_EDGE('',*,*,#589,.T.);
#779=ORIENTED_EDGE('',*,*,#592,.T.);
#780=ORIENTED_EDGE('',*,*,#593,.T.);
#781=ORIENTED_EDGE('',*,*,#583,.T.);
#782=ORIENTED_EDGE('',*,*,#590,.T.);
#783=ORIENTED_EDGE('',*,*,#594,.T.);
#784=ORIENTED_EDGE('',*,*,#595,.T.);
#785=ORIENTED_EDGE('',*,*,#596,.T.);
#786=ORIENTED_EDGE('',*,*,#588,.T.);
#787=ORIENTED_EDGE('',*,*,#582,.T.);
#788=ORIENTED_EDGE('',*,*,#504,.T.);
#789=ORIENTED_EDGE('',*,*,#524,.T.);
#790=ORIENTED_EDGE('',*,*,#592,.F.);
#791=ORIENTED_EDGE('',*,*,#596,.F.);
#792=ORIENTED_EDGE('',*,*,#597,.F.);
#793=ORIENTED_EDGE('',*,*,#525,.T.);
#794=ORIENTED_EDGE('',*,*,#595,.F.);
#795=ORIENTED_EDGE('',*,*,#581,.F.);
#796=ORIENTED_EDGE('',*,*,#598,.F.);
#797=ORIENTED_EDGE('',*,*,#599,.F.);
#798=ORIENTED_EDGE('',*,*,#600,.T.);
#799=ORIENTED_EDGE('',*,*,#601,.F.);
#800=ORIENTED_EDGE('',*,*,#602,.F.);
#801=ORIENTED_EDGE('',*,*,#533,.F.);
#802=ORIENTED_EDGE('',*,*,#526,.T.);
#803=ORIENTED_EDGE('',*,*,#597,.T.);
#804=ORIENTED_EDGE('',*,*,#603,.T.);
#805=ORIENTED_EDGE('',*,*,#577,.T.);
#806=ORIENTED_EDGE('',*,*,#604,.T.);
#807=ORIENTED_EDGE('',*,*,#605,.T.);
#808=ORIENTED_EDGE('',*,*,#566,.T.);
#809=ORIENTED_EDGE('',*,*,#578,.T.);
#810=ORIENTED_EDGE('',*,*,#603,.F.);
#811=ORIENTED_EDGE('',*,*,#606,.T.);
#812=ORIENTED_EDGE('',*,*,#606,.F.);
#813=ORIENTED_EDGE('',*,*,#607,.T.);
#814=ORIENTED_EDGE('',*,*,#608,.F.);
#815=ORIENTED_EDGE('',*,*,#531,.T.);
#816=ORIENTED_EDGE('',*,*,#605,.F.);
#817=ORIENTED_EDGE('',*,*,#609,.F.);
#818=ORIENTED_EDGE('',*,*,#547,.T.);
#819=ORIENTED_EDGE('',*,*,#610,.T.);
#820=ORIENTED_EDGE('',*,*,#559,.T.);
#821=ORIENTED_EDGE('',*,*,#611,.F.);
#822=ORIENTED_EDGE('',*,*,#612,.F.);
#823=ORIENTED_EDGE('',*,*,#613,.F.);
#824=ORIENTED_EDGE('',*,*,#601,.T.);
#825=ORIENTED_EDGE('',*,*,#614,.T.);
#826=ORIENTED_EDGE('',*,*,#615,.T.);
#827=ORIENTED_EDGE('',*,*,#607,.F.);
#828=ORIENTED_EDGE('',*,*,#616,.T.);
#829=ORIENTED_EDGE('',*,*,#612,.T.);
#830=ORIENTED_EDGE('',*,*,#617,.T.);
#831=ORIENTED_EDGE('',*,*,#618,.T.);
#832=ORIENTED_EDGE('',*,*,#619,.T.);
#833=ORIENTED_EDGE('',*,*,#620,.T.);
#834=ORIENTED_EDGE('',*,*,#616,.F.);
#835=ORIENTED_EDGE('',*,*,#621,.T.);
#836=ORIENTED_EDGE('',*,*,#521,.T.);
#837=ORIENTED_EDGE('',*,*,#535,.T.);
#838=ORIENTED_EDGE('',*,*,#619,.F.);
#839=ORIENTED_EDGE('',*,*,#622,.T.);
#840=ORIENTED_EDGE('',*,*,#542,.T.);
#841=ORIENTED_EDGE('',*,*,#623,.T.);
#842=ORIENTED_EDGE('',*,*,#594,.F.);
#843=ORIENTED_EDGE('',*,*,#591,.F.);
#844=ORIENTED_EDGE('',*,*,#522,.T.);
#845=ORIENTED_EDGE('',*,*,#622,.F.);
#846=ORIENTED_EDGE('',*,*,#621,.F.);
#847=ORIENTED_EDGE('',*,*,#618,.F.);
#848=ORIENTED_EDGE('',*,*,#624,.F.);
#849=ORIENTED_EDGE('',*,*,#563,.T.);
#850=ORIENTED_EDGE('',*,*,#558,.T.);
#851=ORIENTED_EDGE('',*,*,#564,.T.);
#852=ORIENTED_EDGE('',*,*,#624,.T.);
#853=ORIENTED_EDGE('',*,*,#617,.F.);
#854=ORIENTED_EDGE('',*,*,#611,.T.);
#855=ORIENTED_EDGE('',*,*,#548,.T.);
#856=ORIENTED_EDGE('',*,*,#609,.T.);
#857=ORIENTED_EDGE('',*,*,#604,.F.);
#858=ORIENTED_EDGE('',*,*,#576,.T.);
#859=ORIENTED_EDGE('',*,*,#625,.T.);
#860=ORIENTED_EDGE('',*,*,#620,.F.);
#861=ORIENTED_EDGE('',*,*,#534,.T.);
#862=ORIENTED_EDGE('',*,*,#602,.T.);
#863=ORIENTED_EDGE('',*,*,#613,.T.);
#864=ORIENTED_EDGE('',*,*,#537,.T.);
#865=ORIENTED_EDGE('',*,*,#549,.F.);
#866=ORIENTED_EDGE('',*,*,#625,.F.);
#867=ORIENTED_EDGE('',*,*,#575,.T.);
#868=ORIENTED_EDGE('',*,*,#626,.T.);
#869=ORIENTED_EDGE('',*,*,#598,.T.);
#870=ORIENTED_EDGE('',*,*,#580,.F.);
#871=ORIENTED_EDGE('',*,*,#627,.F.);
#872=ORIENTED_EDGE('',*,*,#628,.F.);
#873=ORIENTED_EDGE('',*,*,#553,.T.);
#874=ORIENTED_EDGE('',*,*,#587,.F.);
#875=ORIENTED_EDGE('',*,*,#629,.F.);
#876=ORIENTED_EDGE('',*,*,#630,.T.);
#877=ORIENTED_EDGE('',*,*,#629,.T.);
#878=ORIENTED_EDGE('',*,*,#586,.F.);
#879=ORIENTED_EDGE('',*,*,#631,.F.);
#880=ORIENTED_EDGE('',*,*,#632,.T.);
#881=ORIENTED_EDGE('',*,*,#631,.T.);
#882=ORIENTED_EDGE('',*,*,#585,.F.);
#883=ORIENTED_EDGE('',*,*,#633,.F.);
#884=ORIENTED_EDGE('',*,*,#634,.T.);
#885=ORIENTED_EDGE('',*,*,#626,.F.);
#886=ORIENTED_EDGE('',*,*,#635,.T.);
#887=ORIENTED_EDGE('',*,*,#636,.T.);
#888=ORIENTED_EDGE('',*,*,#554,.T.);
#889=ORIENTED_EDGE('',*,*,#628,.T.);
#890=ORIENTED_EDGE('',*,*,#630,.F.);
#891=ORIENTED_EDGE('',*,*,#632,.F.);
#892=ORIENTED_EDGE('',*,*,#637,.F.);
#893=ORIENTED_EDGE('',*,*,#638,.T.);
#894=ORIENTED_EDGE('',*,*,#639,.F.);
#895=ORIENTED_EDGE('',*,*,#599,.T.);
#896=ORIENTED_EDGE('',*,*,#634,.F.);
#897=ORIENTED_EDGE('',*,*,#640,.F.);
#898=ORIENTED_EDGE('',*,*,#641,.F.);
#899=ORIENTED_EDGE('',*,*,#640,.T.);
#900=ORIENTED_EDGE('',*,*,#638,.F.);
#901=ORIENTED_EDGE('',*,*,#642,.F.);
#902=ORIENTED_EDGE('',*,*,#643,.F.);
#903=ORIENTED_EDGE('',*,*,#644,.T.);
#904=ORIENTED_EDGE('',*,*,#635,.F.);
#905=ORIENTED_EDGE('',*,*,#645,.F.);
#906=ORIENTED_EDGE('',*,*,#646,.F.);
#907=ORIENTED_EDGE('',*,*,#555,.T.);
#908=ORIENTED_EDGE('',*,*,#636,.F.);
#909=ORIENTED_EDGE('',*,*,#644,.F.);
#910=ORIENTED_EDGE('',*,*,#641,.T.);
#911=ORIENTED_EDGE('',*,*,#647,.T.);
#912=ORIENTED_EDGE('',*,*,#561,.T.);
#913=ORIENTED_EDGE('',*,*,#648,.T.);
#914=ORIENTED_EDGE('',*,*,#545,.F.);
#915=ORIENTED_EDGE('',*,*,#556,.F.);
#916=ORIENTED_EDGE('',*,*,#646,.T.);
#917=ORIENTED_EDGE('',*,*,#643,.T.);
#918=ORIENTED_EDGE('',*,*,#649,.T.);
#919=ORIENTED_EDGE('',*,*,#639,.T.);
#920=ORIENTED_EDGE('',*,*,#648,.F.);
#921=ORIENTED_EDGE('',*,*,#560,.T.);
#922=ORIENTED_EDGE('',*,*,#610,.F.);
#923=ORIENTED_EDGE('',*,*,#546,.F.);
#924=ORIENTED_EDGE('',*,*,#571,.F.);
#925=ORIENTED_EDGE('',*,*,#512,.F.);
#926=ORIENTED_EDGE('',*,*,#529,.T.);
#927=ORIENTED_EDGE('',*,*,#532,.F.);
#928=ORIENTED_EDGE('',*,*,#608,.T.);
#929=ORIENTED_EDGE('',*,*,#615,.F.);
#930=ORIENTED_EDGE('',*,*,#650,.F.);
#931=ORIENTED_EDGE('',*,*,#645,.T.);
#932=ORIENTED_EDGE('',*,*,#627,.T.);
#933=ORIENTED_EDGE('',*,*,#579,.F.);
#934=ORIENTED_EDGE('',*,*,#649,.F.);
#935=ORIENTED_EDGE('',*,*,#650,.T.);
#936=ORIENTED_EDGE('',*,*,#614,.F.);
#937=ORIENTED_EDGE('',*,*,#600,.F.);
#938=ORIENTED_EDGE('',*,*,#541,.T.);
#939=ORIENTED_EDGE('',*,*,#562,.F.);
#940=ORIENTED_EDGE('',*,*,#647,.F.);
#941=ORIENTED_EDGE('',*,*,#642,.T.);
#942=ORIENTED_EDGE('',*,*,#637,.T.);
#943=ORIENTED_EDGE('',*,*,#633,.T.);
#944=ORIENTED_EDGE('',*,*,#584,.F.);
#945=ORIENTED_EDGE('',*,*,#593,.F.);
#946=ORIENTED_EDGE('',*,*,#623,.F.);
#947=PLANE('',#1053);
#948=PLANE('',#1054);
#949=PLANE('',#1055);
#950=PLANE('',#1056);
#951=PLANE('',#1059);
#952=PLANE('',#1062);
#953=PLANE('',#1063);
#954=PLANE('',#1064);
#955=PLANE('',#1065);
#956=PLANE('',#1066);
#957=PLANE('',#1067);
#958=PLANE('',#1068);
#959=PLANE('',#1069);
#960=PLANE('',#1071);
#961=PLANE('',#1072);
#962=PLANE('',#1083);
#963=PLANE('',#1085);
#964=PLANE('',#1095);
#965=PLANE('',#1096);
#966=PLANE('',#1105);
#967=PLANE('',#1114);
#968=PLANE('',#1115);
#969=PLANE('',#1116);
#970=PLANE('',#1118);
#971=PLANE('',#1119);
#972=PLANE('',#1120);
#973=PLANE('',#1121);
#974=PLANE('',#1122);
#975=PLANE('',#1123);
#976=PLANE('',#1124);
#977=PLANE('',#1125);
#978=PLANE('',#1126);
#979=PLANE('',#1127);
#980=PLANE('',#1128);
#981=PLANE('',#1129);
#982=PLANE('',#1130);
#983=PLANE('',#1131);
#984=PLANE('',#1132);
#985=ADVANCED_FACE('',(#57),#947,.F.);
#986=ADVANCED_FACE('',(#58),#948,.F.);
#987=ADVANCED_FACE('',(#59),#949,.T.);
#988=ADVANCED_FACE('',(#60),#950,.T.);
#989=ADVANCED_FACE('',(#61),#951,.T.);
#990=ADVANCED_FACE('',(#62),#952,.F.);
#991=ADVANCED_FACE('',(#63),#953,.F.);
#992=ADVANCED_FACE('',(#64),#954,.T.);
#993=ADVANCED_FACE('',(#65),#955,.T.);
#994=ADVANCED_FACE('',(#66),#956,.F.);
#995=ADVANCED_FACE('',(#67),#957,.F.);
#996=ADVANCED_FACE('',(#68),#958,.T.);
#997=ADVANCED_FACE('',(#69),#959,.T.);
#998=ADVANCED_FACE('',(#70),#960,.T.);
#999=ADVANCED_FACE('',(#71),#961,.T.);
#1000=ADVANCED_FACE('',(#72),#21,.T.);
#1001=ADVANCED_FACE('',(#73),#22,.T.);
#1002=ADVANCED_FACE('',(#74),#19,.T.);
#1003=ADVANCED_FACE('',(#75),#23,.T.);
#1004=ADVANCED_FACE('',(#76),#24,.T.);
#1005=ADVANCED_FACE('',(#77),#962,.T.);
#1006=ADVANCED_FACE('',(#78),#963,.T.);
#1007=ADVANCED_FACE('',(#79),#20,.T.);
#1008=ADVANCED_FACE('',(#80),#25,.T.);
#1009=ADVANCED_FACE('',(#81),#26,.T.);
#1010=ADVANCED_FACE('',(#82),#27,.T.);
#1011=ADVANCED_FACE('',(#83),#964,.T.);
#1012=ADVANCED_FACE('',(#84),#965,.T.);
#1013=ADVANCED_FACE('',(#85),#28,.T.);
#1014=ADVANCED_FACE('',(#86),#15,.T.);
#1015=ADVANCED_FACE('',(#87),#29,.F.);
#1016=ADVANCED_FACE('',(#88),#966,.T.);
#1017=ADVANCED_FACE('',(#89),#30,.T.);
#1018=ADVANCED_FACE('',(#90),#16,.T.);
#1019=ADVANCED_FACE('',(#91),#31,.T.);
#1020=ADVANCED_FACE('',(#92),#967,.T.);
#1021=ADVANCED_FACE('',(#93),#968,.T.);
#1022=ADVANCED_FACE('',(#94),#969,.T.);
#1023=ADVANCED_FACE('',(#95),#32,.F.);
#1024=ADVANCED_FACE('',(#96),#970,.T.);
#1025=ADVANCED_FACE('',(#97),#971,.T.);
#1026=ADVANCED_FACE('',(#98),#972,.T.);
#1027=ADVANCED_FACE('',(#99),#973,.T.);
#1028=ADVANCED_FACE('',(#100),#974,.T.);
#1029=ADVANCED_FACE('',(#101),#975,.F.);
#1030=ADVANCED_FACE('',(#102),#976,.T.);
#1031=ADVANCED_FACE('',(#103),#977,.T.);
#1032=ADVANCED_FACE('',(#104),#978,.T.);
#1033=ADVANCED_FACE('',(#105),#979,.T.);
#1034=ADVANCED_FACE('',(#106),#980,.T.);
#1035=ADVANCED_FACE('',(#107),#981,.T.);
#1036=ADVANCED_FACE('',(#108),#982,.T.);
#1037=ADVANCED_FACE('',(#109),#983,.T.);
#1038=ADVANCED_FACE('',(#110),#984,.T.);
#1039=CLOSED_SHELL('',(#985,#986,#987,#988,#989,#990,#991,#992,#993,#994,
#995,#996,#997,#998,#999,#1000,#1001,#1002,#1003,#1004,#1005,#1006,#1007,
#1008,#1009,#1010,#1011,#1012,#1013,#1014,#1015,#1016,#1017,#1018,#1019,
#1020,#1021,#1022,#1023,#1024,#1025,#1026,#1027,#1028,#1029,#1030,#1031,
#1032,#1033,#1034,#1035,#1036,#1037,#1038));
#1040=DERIVED_UNIT_ELEMENT(#1042,1.);
#1041=DERIVED_UNIT_ELEMENT(#1719,-3.);
#1042=(
MASS_UNIT()
NAMED_UNIT(*)
SI_UNIT(.KILO.,.GRAM.)
);
#1043=DERIVED_UNIT((#1040,#1041));
#1044=MEASURE_REPRESENTATION_ITEM('density measure',
POSITIVE_RATIO_MEASURE(7850.),#1043);
#1045=PROPERTY_DEFINITION_REPRESENTATION(#1050,#1047);
#1046=PROPERTY_DEFINITION_REPRESENTATION(#1051,#1048);
#1047=REPRESENTATION('material name',(#1049),#1716);
#1048=REPRESENTATION('density',(#1044),#1716);
#1049=DESCRIPTIVE_REPRESENTATION_ITEM('Steel','Steel');
#1050=PROPERTY_DEFINITION('material property','material name',#1726);
#1051=PROPERTY_DEFINITION('material property','density of part',#1726);
#1052=AXIS2_PLACEMENT_3D('',#1417,#1133,#1134);
#1053=AXIS2_PLACEMENT_3D('',#1418,#1135,#1136);
#1054=AXIS2_PLACEMENT_3D('',#1427,#1141,#1142);
#1055=AXIS2_PLACEMENT_3D('',#1436,#1147,#1148);
#1056=AXIS2_PLACEMENT_3D('',#1446,#1154,#1155);
#1057=AXIS2_PLACEMENT_3D('',#1448,#1156,#1157);
#1058=AXIS2_PLACEMENT_3D('',#1452,#1159,#1160);
#1059=AXIS2_PLACEMENT_3D('',#1454,#1162,#1163);
#1060=AXIS2_PLACEMENT_3D('',#1458,#1165,#1166);
#1061=AXIS2_PLACEMENT_3D('',#1462,#1168,#1169);
#1062=AXIS2_PLACEMENT_3D('',#1464,#1171,#1172);
#1063=AXIS2_PLACEMENT_3D('',#1470,#1176,#1177);
#1064=AXIS2_PLACEMENT_3D('',#1474,#1180,#1181);
#1065=AXIS2_PLACEMENT_3D('',#1480,#1185,#1186);
#1066=AXIS2_PLACEMENT_3D('',#1486,#1190,#1191);
#1067=AXIS2_PLACEMENT_3D('',#1495,#1196,#1197);
#1068=AXIS2_PLACEMENT_3D('',#1504,#1202,#1203);
#1069=AXIS2_PLACEMENT_3D('',#1516,#1210,#1211);
#1070=AXIS2_PLACEMENT_3D('',#1520,#1213,#1214);
#1071=AXIS2_PLACEMENT_3D('',#1530,#1220,#1221);
#1072=AXIS2_PLACEMENT_3D('',#1542,#1228,#1229);
#1073=AXIS2_PLACEMENT_3D('',#1546,#1232,#1233);
#1074=AXIS2_PLACEMENT_3D('',#1549,#1235,#1236);
#1075=AXIS2_PLACEMENT_3D('',#1550,#1237,#1238);
#1076=AXIS2_PLACEMENT_3D('',#1552,#1239,#1240);
#1077=AXIS2_PLACEMENT_3D('',#1554,#1242,#1243);
#1078=AXIS2_PLACEMENT_3D('',#1556,#1244,#1245);
#1079=AXIS2_PLACEMENT_3D('',#1557,#1246,#1247);
#1080=AXIS2_PLACEMENT_3D('',#1558,#1248,#1249);
#1081=AXIS2_PLACEMENT_3D('',#1560,#1250,#1251);
#1082=AXIS2_PLACEMENT_3D('',#1562,#1253,#1254);
#1083=AXIS2_PLACEMENT_3D('',#1565,#1257,#1258);
#1084=AXIS2_PLACEMENT_3D('',#1572,#1262,#1263);
#1085=AXIS2_PLACEMENT_3D('',#1573,#1264,#1265);
#1086=AXIS2_PLACEMENT_3D('',#1591,#1275,#1276);
#1087=AXIS2_PLACEMENT_3D('',#1593,#1277,#1278);
#1088=AXIS2_PLACEMENT_3D('',#1595,#1279,#1280);
#1089=AXIS2_PLACEMENT_3D('',#1596,#1281,#1282);
#1090=AXIS2_PLACEMENT_3D('',#1597,#1283,#1284);
#1091=AXIS2_PLACEMENT_3D('',#1600,#1287,#1288);
#1092=AXIS2_PLACEMENT_3D('',#1602,#1289,#1290);
#1093=AXIS2_PLACEMENT_3D('',#1604,#1292,#1293);
#1094=AXIS2_PLACEMENT_3D('',#1606,#1294,#1295);
#1095=AXIS2_PLACEMENT_3D('',#1608,#1297,#1298);
#1096=AXIS2_PLACEMENT_3D('',#1610,#1300,#1301);
#1097=AXIS2_PLACEMENT_3D('',#1619,#1306,#1307);
#1098=AXIS2_PLACEMENT_3D('',#1620,#1308,#1309);
#1099=AXIS2_PLACEMENT_3D('',#1622,#1310,#1311);
#1100=AXIS2_PLACEMENT_3D('',#1624,#1312,#1313);
#1101=AXIS2_PLACEMENT_3D('',#1626,#1315,#1316);
#1102=AXIS2_PLACEMENT_3D('',#1627,#1317,#1318);
#1103=AXIS2_PLACEMENT_3D('',#1628,#1319,#1320);
#1104=AXIS2_PLACEMENT_3D('',#1631,#1322,#1323);
#1105=AXIS2_PLACEMENT_3D('',#1632,#1324,#1325);
#1106=AXIS2_PLACEMENT_3D('',#1643,#1333,#1334);
#1107=AXIS2_PLACEMENT_3D('',#1645,#1335,#1336);
#1108=AXIS2_PLACEMENT_3D('',#1647,#1337,#1338);
#1109=AXIS2_PLACEMENT_3D('',#1649,#1340,#1341);
#1110=AXIS2_PLACEMENT_3D('',#1651,#1342,#1343);
#1111=AXIS2_PLACEMENT_3D('',#1652,#1344,#1345);
#1112=AXIS2_PLACEMENT_3D('',#1653,#1346,#1347);
#1113=AXIS2_PLACEMENT_3D('',#1654,#1348,#1349);
#1114=AXIS2_PLACEMENT_3D('',#1656,#1351,#1352);
#1115=AXIS2_PLACEMENT_3D('',#1659,#1355,#1356);
#1116=AXIS2_PLACEMENT_3D('',#1660,#1357,#1358);
#1117=AXIS2_PLACEMENT_3D('',#1662,#1360,#1361);
#1118=AXIS2_PLACEMENT_3D('',#1663,#1362,#1363);
#1119=AXIS2_PLACEMENT_3D('',#1664,#1364,#1365);
#1120=AXIS2_PLACEMENT_3D('',#1668,#1368,#1369);
#1121=AXIS2_PLACEMENT_3D('',#1672,#1372,#1373);
#1122=AXIS2_PLACEMENT_3D('',#1676,#1376,#1377);
#1123=AXIS2_PLACEMENT_3D('',#1680,#1380,#1381);
#1124=AXIS2_PLACEMENT_3D('',#1689,#1387,#1388);
#1125=AXIS2_PLACEMENT_3D('',#1693,#1391,#1392);
#1126=AXIS2_PLACEMENT_3D('',#1697,#1395,#1396);
#1127=AXIS2_PLACEMENT_3D('',#1703,#1400,#1401);
#1128=AXIS2_PLACEMENT_3D('',#1705,#1403,#1404);
#1129=AXIS2_PLACEMENT_3D('',#1709,#1408,#1409);
#1130=AXIS2_PLACEMENT_3D('',#1710,#1410,#1411);
#1131=AXIS2_PLACEMENT_3D('',#1712,#1413,#1414);
#1132=AXIS2_PLACEMENT_3D('',#1713,#1415,#1416);
#1133=DIRECTION('axis',(0.,0.,1.));
#1134=DIRECTION('refdir',(1.,0.,0.));
#1135=DIRECTION('center_axis',(-1.,0.,0.));
#1136=DIRECTION('ref_axis',(0.,0.,-1.));
#1137=DIRECTION('',(0.,0.,1.));
#1138=DIRECTION('',(0.,-1.,0.));
#1139=DIRECTION('',(0.,0.,-1.));
#1140=DIRECTION('',(0.,1.,0.));
#1141=DIRECTION('center_axis',(1.,0.,0.));
#1142=DIRECTION('ref_axis',(0.,0.,1.));
#1143=DIRECTION('',(0.,0.,-1.));
#1144=DIRECTION('',(0.,-1.,0.));
#1145=DIRECTION('',(0.,0.,1.));
#1146=DIRECTION('',(0.,1.,0.));
#1147=DIRECTION('center_axis',(0.,0.,-1.));
#1148=DIRECTION('ref_axis',(1.,0.,0.));
#1149=DIRECTION('',(1.,0.,0.));
#1150=DIRECTION('',(0.,1.,0.));
#1151=DIRECTION('',(-1.,0.,0.));
#1152=DIRECTION('',(0.,1.,0.));
#1153=DIRECTION('',(-1.,0.,0.));
#1154=DIRECTION('center_axis',(0.,-1.,0.));
#1155=DIRECTION('ref_axis',(0.,0.,-1.));
#1156=DIRECTION('center_axis',(0.,1.,0.));
#1157=DIRECTION('ref_axis',(0.707106781186548,0.,-0.707106781186548));
#1158=DIRECTION('',(0.,0.,-1.));
#1159=DIRECTION('center_axis',(0.,1.,0.));
#1160=DIRECTION('ref_axis',(0.707106781186541,0.,0.707106781186554));
#1161=DIRECTION('',(1.,0.,0.));
#1162=DIRECTION('center_axis',(0.,-1.,0.));
#1163=DIRECTION('ref_axis',(0.,0.,-1.));
#1164=DIRECTION('',(1.,0.,0.));
#1165=DIRECTION('center_axis',(0.,1.,0.));
#1166=DIRECTION('ref_axis',(-0.707106781186548,0.,0.707106781186548));
#1167=DIRECTION('',(7.30409884621813E-17,0.,1.));
#1168=DIRECTION('center_axis',(0.,1.,0.));
#1169=DIRECTION('ref_axis',(-0.707106781186549,0.,-0.707106781186546));
#1170=DIRECTION('',(-1.,0.,0.));
#1171=DIRECTION('center_axis',(0.,-1.,0.));
#1172=DIRECTION('ref_axis',(0.,0.,-1.));
#1173=DIRECTION('',(1.,0.,0.));
#1174=DIRECTION('',(0.,0.,-1.));
#1175=DIRECTION('',(-1.,0.,0.));
#1176=DIRECTION('center_axis',(0.,-1.,0.));
#1177=DIRECTION('ref_axis',(0.,0.,-1.));
#1178=DIRECTION('',(-1.,0.,0.));
#1179=DIRECTION('',(0.,0.,1.));
#1180=DIRECTION('center_axis',(0.,0.,1.));
#1181=DIRECTION('ref_axis',(-1.,0.,0.));
#1182=DIRECTION('',(0.,-1.,0.));
#1183=DIRECTION('',(1.,0.,0.));
#1184=DIRECTION('',(0.,-1.,0.));
#1185=DIRECTION('center_axis',(0.,0.,1.));
#1186=DIRECTION('ref_axis',(-1.,0.,0.));
#1187=DIRECTION('',(0.,1.,0.));
#1188=DIRECTION('',(1.,0.,0.));
#1189=DIRECTION('',(0.,1.,0.));
#1190=DIRECTION('center_axis',(0.,1.,0.));
#1191=DIRECTION('ref_axis',(0.,0.,1.));
#1192=DIRECTION('',(0.,0.,1.));
#1193=DIRECTION('',(-1.,0.,0.));
#1194=DIRECTION('',(0.,0.,-1.));
#1195=DIRECTION('',(1.,0.,0.));
#1196=DIRECTION('center_axis',(0.,1.,0.));
#1197=DIRECTION('ref_axis',(0.,0.,1.));
#1198=DIRECTION('',(0.,0.,-1.));
#1199=DIRECTION('',(1.,0.,0.));
#1200=DIRECTION('',(7.30409884621813E-17,0.,1.));
#1201=DIRECTION('',(-1.,0.,0.));
#1202=DIRECTION('center_axis',(-1.,0.,0.));
#1203=DIRECTION('ref_axis',(0.,0.,-1.));
#1204=DIRECTION('',(0.,-1.,0.));
#1205=DIRECTION('',(0.,0.,-1.));
#1206=DIRECTION('',(0.,-1.,0.));
#1207=DIRECTION('',(0.,0.,-1.));
#1208=DIRECTION('',(0.,0.819152044288992,-0.573576436351046));
#1209=DIRECTION('',(0.,-1.,0.));
#1210=DIRECTION('center_axis',(0.,0.,1.));
#1211=DIRECTION('ref_axis',(-1.,0.,0.));
#1212=DIRECTION('',(0.,1.,0.));
#1213=DIRECTION('center_axis',(0.,0.,-1.));
#1214=DIRECTION('ref_axis',(0.707106781186546,0.707106781186549,0.));
#1215=DIRECTION('',(1.,0.,0.));
#1216=DIRECTION('',(0.,1.,0.));
#1217=DIRECTION('',(-1.,0.,0.));
#1218=DIRECTION('',(0.,1.,0.));
#1219=DIRECTION('',(-1.,0.,0.));
#1220=DIRECTION('center_axis',(1.,0.,0.));
#1221=DIRECTION('ref_axis',(0.,0.,1.));
#1222=DIRECTION('',(0.,-1.,0.));
#1223=DIRECTION('',(0.,-0.819152044288992,0.573576436351046));
#1224=DIRECTION('',(0.,0.,1.));
#1225=DIRECTION('',(0.,-1.,0.));
#1226=DIRECTION('',(0.,0.,-1.));
#1227=DIRECTION('',(0.,-1.,0.));
#1228=DIRECTION('center_axis',(0.,0.,-1.));
#1229=DIRECTION('ref_axis',(1.,0.,0.));
#1230=DIRECTION('',(0.,-1.,0.));
#1231=DIRECTION('',(-1.,0.,0.));
#1232=DIRECTION('center_axis',(0.,-1.,0.));
#1233=DIRECTION('ref_axis',(0.707106781186541,0.,0.707106781186554));
#1234=DIRECTION('',(0.,1.,0.));
#1235=DIRECTION('center_axis',(0.,1.,0.));
#1236=DIRECTION('ref_axis',(0.,0.,1.));
#1237=DIRECTION('center_axis',(0.,1.,0.));
#1238=DIRECTION('ref_axis',(0.707106781186548,0.,-0.707106781186548));
#1239=DIRECTION('center_axis',(0.,1.,0.));
#1240=DIRECTION('ref_axis',(0.,0.,-1.));
#1241=DIRECTION('',(0.,-1.,0.));
#1242=DIRECTION('center_axis',(-0.816496580927725,0.408248290463865,-0.408248290463863));
#1243=DIRECTION('ref_axis',(0.577350269189625,0.577350269189628,-0.577350269189625));
#1244=DIRECTION('center_axis',(0.,0.,-1.));
#1245=DIRECTION('ref_axis',(1.,0.,0.));
#1246=DIRECTION('center_axis',(1.,0.,0.));
#1247=DIRECTION('ref_axis',(0.,1.,0.));
#1248=DIRECTION('center_axis',(-1.,0.,0.));
#1249=DIRECTION('ref_axis',(0.,0.707106781186549,-0.707106781186546));
#1250=DIRECTION('center_axis',(1.,0.,0.));
#1251=DIRECTION('ref_axis',(0.,0.707106781186549,-0.707106781186546));
#1252=DIRECTION('',(1.,0.,0.));
#1253=DIRECTION('center_axis',(0.,0.,-1.));
#1254=DIRECTION('ref_axis',(0.707106781186546,0.707106781186549,0.));
#1255=DIRECTION('',(0.,0.,-1.));
#1256=DIRECTION('',(0.,0.,1.));
#1257=DIRECTION('center_axis',(1.,0.,0.));
#1258=DIRECTION('ref_axis',(0.,0.,1.));
#1259=DIRECTION('',(0.,-1.,0.));
#1260=DIRECTION('',(0.,-0.819152044288992,0.573576436351046));
#1261=DIRECTION('',(0.,0.,1.));
#1262=DIRECTION('center_axis',(1.,0.,0.));
#1263=DIRECTION('ref_axis',(0.,0.707106781186548,-0.707106781186547));
#1264=DIRECTION('center_axis',(0.,1.,0.));
#1265=DIRECTION('ref_axis',(0.,0.,1.));
#1266=DIRECTION('',(0.,0.,1.));
#1267=DIRECTION('',(-1.,0.,0.));
#1268=DIRECTION('',(0.,0.,-1.));
#1269=DIRECTION('',(1.,0.,0.));
#1270=DIRECTION('',(-7.30409884621813E-17,0.,-1.));
#1271=DIRECTION('',(1.,0.,0.));
#1272=DIRECTION('',(0.,0.,-1.));
#1273=DIRECTION('',(1.,0.,0.));
#1274=DIRECTION('',(0.,0.,1.));
#1275=DIRECTION('center_axis',(0.408248290463863,-0.408248290463859,-0.816496580927728));
#1276=DIRECTION('ref_axis',(-0.57735026918963,0.577350269189624,-0.577350269189623));
#1277=DIRECTION('center_axis',(-1.,-8.88178419700125E-15,0.));
#1278=DIRECTION('ref_axis',(0.,0.,-1.));
#1279=DIRECTION('center_axis',(0.,1.,0.));
#1280=DIRECTION('ref_axis',(-1.,0.,0.));
#1281=DIRECTION('center_axis',(0.,0.,-1.));
#1282=DIRECTION('ref_axis',(0.,1.,0.));
#1283=DIRECTION('center_axis',(0.,1.,0.));
#1284=DIRECTION('ref_axis',(-0.707106781186549,0.,-0.707106781186546));
#1285=DIRECTION('',(0.,1.,0.));
#1286=DIRECTION('',(0.,-1.,0.));
#1287=DIRECTION('center_axis',(7.30409884621813E-17,0.,1.));
#1288=DIRECTION('ref_axis',(-0.707106781186546,0.707106781186549,0.));
#1289=DIRECTION('center_axis',(0.,0.,-1.));
#1290=DIRECTION('ref_axis',(-0.707106781186546,0.707106781186549,0.));
#1291=DIRECTION('',(7.30409884621813E-17,0.,1.));
#1292=DIRECTION('center_axis',(-1.,0.,0.));
#1293=DIRECTION('ref_axis',(0.,0.707106781186549,-0.707106781186546));
#1294=DIRECTION('center_axis',(-1.,0.,0.));
#1295=DIRECTION('ref_axis',(0.,0.707106781186549,-0.707106781186546));
#1296=DIRECTION('',(-1.,0.,0.));
#1297=DIRECTION('center_axis',(0.,0.,-1.));
#1298=DIRECTION('ref_axis',(1.,0.,0.));
#1299=DIRECTION('',(0.,1.,0.));
#1300=DIRECTION('center_axis',(1.,0.,0.));
#1301=DIRECTION('ref_axis',(0.,0.,1.));
#1302=DIRECTION('',(0.,1.,0.));
#1303=DIRECTION('',(0.,1.,0.));
#1304=DIRECTION('',(0.,-1.,0.));
#1305=DIRECTION('',(0.,0.,1.));
#1306=DIRECTION('center_axis',(1.,0.,0.));
#1307=DIRECTION('ref_axis',(0.,0.707106781186549,-0.707106781186546));
#1308=DIRECTION('center_axis',(0.,0.,1.));
#1309=DIRECTION('ref_axis',(0.707106781186546,-0.707106781186549,0.));
#1310=DIRECTION('center_axis',(0.,0.,1.));
#1311=DIRECTION('ref_axis',(0.,-1.,0.));
#1312=DIRECTION('center_axis',(0.,0.573576436351046,0.819152044288992));
#1313=DIRECTION('ref_axis',(0.,-0.819152044288992,0.573576436351046));
#1314=DIRECTION('',(0.,0.,-1.));
#1315=DIRECTION('center_axis',(1.,0.,0.));
#1316=DIRECTION('ref_axis',(0.,0.,-1.));
#1317=DIRECTION('center_axis',(-1.,0.,0.));
#1318=DIRECTION('ref_axis',(0.,0.707106781186548,-0.707106781186547));
#1319=DIRECTION('center_axis',(1.,0.,0.));
#1320=DIRECTION('ref_axis',(0.,0.707106781186549,-0.707106781186546));
#1321=DIRECTION('',(-1.,0.,0.));
#1322=DIRECTION('center_axis',(-1.,0.,0.));
#1323=DIRECTION('ref_axis',(0.,0.707106781186549,-0.707106781186546));
#1324=DIRECTION('center_axis',(0.,-1.,0.));
#1325=DIRECTION('ref_axis',(0.,0.,-1.));
#1326=DIRECTION('',(1.,0.,0.));
#1327=DIRECTION('',(-1.,0.,0.));
#1328=DIRECTION('',(1.,0.,0.));
#1329=DIRECTION('',(7.30409884621813E-17,0.,1.));
#1330=DIRECTION('',(-1.,0.,0.));
#1331=DIRECTION('',(1.,0.,0.));
#1332=DIRECTION('',(0.,0.,-1.));
#1333=DIRECTION('center_axis',(-7.30409884621813E-17,0.,-1.));
#1334=DIRECTION('ref_axis',(-0.707106781186546,-0.707106781186549,0.));
#1335=DIRECTION('center_axis',(0.,0.,1.));
#1336=DIRECTION('ref_axis',(-1.,0.,0.));
#1337=DIRECTION('center_axis',(0.,0.573576436351046,0.819152044288992));
#1338=DIRECTION('ref_axis',(0.,-0.819152044288992,0.573576436351046));
#1339=DIRECTION('',(-7.30409884621813E-17,0.,-1.));
#1340=DIRECTION('center_axis',(-1.,0.,7.30409884621813E-17));
#1341=DIRECTION('ref_axis',(0.,0.,1.));
#1342=DIRECTION('center_axis',(0.,1.,0.));
#1343=DIRECTION('ref_axis',(-1.,0.,0.));
#1344=DIRECTION('center_axis',(1.,0.,-7.30409884621813E-17));
#1345=DIRECTION('ref_axis',(-6.93889390390723E-17,0.707106781186548,-0.707106781186547));
#1346=DIRECTION('center_axis',(-1.,0.,7.30409884621813E-17));
#1347=DIRECTION('ref_axis',(-5.16477782461767E-17,0.707106781186548,-0.707106781186547));
#1348=DIRECTION('center_axis',(0.,-1.,0.));
#1349=DIRECTION('ref_axis',(-0.707106781186548,0.,0.707106781186548));
#1350=DIRECTION('',(0.,-1.,0.));
#1351=DIRECTION('center_axis',(-1.,0.,7.30409884621813E-17));
#1352=DIRECTION('ref_axis',(-7.30409884621813E-17,0.,-1.));
#1353=DIRECTION('',(0.,1.,0.));
#1354=DIRECTION('',(-4.18945898696959E-17,0.819152044288992,-0.573576436351046));
#1355=DIRECTION('center_axis',(0.,-0.573576436351046,-0.819152044288992));
#1356=DIRECTION('ref_axis',(-1.,0.,0.));
#1357=DIRECTION('center_axis',(0.,-0.573576436351046,-0.819152044288992));
#1358=DIRECTION('ref_axis',(-1.,0.,0.));
#1359=DIRECTION('',(-1.,0.,0.));
#1360=DIRECTION('center_axis',(1.,0.,0.));
#1361=DIRECTION('ref_axis',(0.,0.707106781186549,-0.707106781186546));
#1362=DIRECTION('center_axis',(0.,0.,-1.));
#1363=DIRECTION('ref_axis',(1.,0.,0.));
#1364=DIRECTION('center_axis',(0.,0.,-1.));
#1365=DIRECTION('ref_axis',(-1.,0.,0.));
#1366=DIRECTION('',(-1.,0.,0.));
#1367=DIRECTION('',(0.,1.,0.));
#1368=DIRECTION('center_axis',(-1.,0.,0.));
#1369=DIRECTION('ref_axis',(0.,0.,1.));
#1370=DIRECTION('',(0.,0.,-1.));
#1371=DIRECTION('',(0.,1.,0.));
#1372=DIRECTION('center_axis',(0.,0.,1.));
#1373=DIRECTION('ref_axis',(1.,0.,0.));
#1374=DIRECTION('',(1.,0.,0.));
#1375=DIRECTION('',(0.,1.,0.));
#1376=DIRECTION('center_axis',(1.,0.,0.));
#1377=DIRECTION('ref_axis',(0.,0.,-1.));
#1378=DIRECTION('',(0.,0.,-1.));
#1379=DIRECTION('',(0.,1.,0.));
#1380=DIRECTION('center_axis',(0.,1.,0.));
#1381=DIRECTION('ref_axis',(1.,0.,0.));
#1382=DIRECTION('',(1.,0.,0.));
#1383=DIRECTION('',(1.,0.,0.));
#1384=DIRECTION('',(0.,0.,1.));
#1385=DIRECTION('',(1.,0.,0.));
#1386=DIRECTION('',(-4.14881548813586E-18,0.,-1.));
#1387=DIRECTION('center_axis',(0.,0.,1.));
#1388=DIRECTION('ref_axis',(1.,0.,0.));
#1389=DIRECTION('',(-1.,0.,0.));
#1390=DIRECTION('',(0.,1.,0.));
#1391=DIRECTION('center_axis',(1.,0.,-4.14881548813586E-18));
#1392=DIRECTION('ref_axis',(-4.14881548813586E-18,0.,-1.));
#1393=DIRECTION('',(4.14881548813586E-18,0.,1.));
#1394=DIRECTION('',(0.,1.,0.));
#1395=DIRECTION('center_axis',(0.,0.,1.));
#1396=DIRECTION('ref_axis',(1.,0.,0.));
#1397=DIRECTION('',(-1.,0.,0.));
#1398=DIRECTION('',(0.,1.,0.));
#1399=DIRECTION('',(0.,1.,0.));
#1400=DIRECTION('center_axis',(-1.,0.,0.));
#1401=DIRECTION('ref_axis',(0.,0.,1.));
#1402=DIRECTION('',(0.,0.,-1.));
#1403=DIRECTION('center_axis',(0.,1.,0.));
#1404=DIRECTION('ref_axis',(1.,0.,0.));
#1405=DIRECTION('',(1.,0.,0.));
#1406=DIRECTION('',(1.,0.,0.));
#1407=DIRECTION('',(-1.,0.,0.));
#1408=DIRECTION('center_axis',(0.,0.,1.));
#1409=DIRECTION('ref_axis',(-1.,0.,0.));
#1410=DIRECTION('center_axis',(-1.,0.,0.));
#1411=DIRECTION('ref_axis',(0.,0.,-1.));
#1412=DIRECTION('',(0.,-1.,0.));
#1413=DIRECTION('center_axis',(0.,0.,-1.));
#1414=DIRECTION('ref_axis',(1.,0.,0.));
#1415=DIRECTION('center_axis',(0.,0.,1.));
#1416=DIRECTION('ref_axis',(-1.,0.,0.));
#1417=CARTESIAN_POINT('',(0.,0.,0.));
#1418=CARTESIAN_POINT('Origin',(11.9,-7.,-36.));
#1419=CARTESIAN_POINT('',(11.9,-8.8,-38.));
#1420=CARTESIAN_POINT('',(11.9,-8.8,-36.));
#1421=CARTESIAN_POINT('',(11.9,-8.8,-36.5));
#1422=CARTESIAN_POINT('',(11.9,-7.,-38.));
#1423=CARTESIAN_POINT('',(11.9,-3.5,-38.));
#1424=CARTESIAN_POINT('',(11.9,-7.,-36.));
#1425=CARTESIAN_POINT('',(11.9,-7.,-36.5));
#1426=CARTESIAN_POINT('',(11.9,-4.,-36.));
#1427=CARTESIAN_POINT('Origin',(19.9,-7.,-38.));
#1428=CARTESIAN_POINT('',(19.9,-8.8,-36.));
#1429=CARTESIAN_POINT('',(19.9,-8.8,-38.));
#1430=CARTESIAN_POINT('',(19.9,-8.8,-37.5));
#1431=CARTESIAN_POINT('',(19.9,-7.,-36.));
#1432=CARTESIAN_POINT('',(19.9,-4.,-36.));
#1433=CARTESIAN_POINT('',(19.9,-7.,-38.));
#1434=CARTESIAN_POINT('',(19.9,-7.,-37.5));
#1435=CARTESIAN_POINT('',(19.9,-3.5,-38.));
#1436=CARTESIAN_POINT('Origin',(31.3,0.,-38.));
#1437=CARTESIAN_POINT('',(31.3,-7.,-38.));
#1438=CARTESIAN_POINT('',(23.6,-7.,-38.));
#1439=CARTESIAN_POINT('',(31.3,2.2,-38.));
#1440=CARTESIAN_POINT('',(31.3,0.,-38.));
#1441=CARTESIAN_POINT('',(35.8,2.2,-38.));
#1442=CARTESIAN_POINT('',(23.6,2.2,-38.));
#1443=CARTESIAN_POINT('',(35.8,-8.8,-38.));
#1444=CARTESIAN_POINT('',(35.8,0.,-38.));
#1445=CARTESIAN_POINT('',(23.6,-8.8,-38.));
#1446=CARTESIAN_POINT('Origin',(15.9,-8.8,-37.));
#1447=CARTESIAN_POINT('',(36.3,-8.8,-37.5));
#1448=CARTESIAN_POINT('Origin',(35.8,-8.8,-37.5));
#1449=CARTESIAN_POINT('',(36.3,-8.8,-36.5));
#1450=CARTESIAN_POINT('',(36.3,-8.8,-37.5));
#1451=CARTESIAN_POINT('',(35.8,-8.8,-36.));
#1452=CARTESIAN_POINT('Origin',(35.8,-8.8,-36.5));
#1453=CARTESIAN_POINT('',(26.1,-8.8,-36.));
#1454=CARTESIAN_POINT('Origin',(15.9,-8.8,-37.));
#1455=CARTESIAN_POINT('',(-4.,-8.8,-36.));
#1456=CARTESIAN_POINT('',(26.1,-8.8,-36.));
#1457=CARTESIAN_POINT('',(-4.5,-8.8,-36.5));
#1458=CARTESIAN_POINT('Origin',(-4.,-8.8,-36.5));
#1459=CARTESIAN_POINT('',(-4.5,-8.8,-37.5));
#1460=CARTESIAN_POINT('',(-4.5,-8.8,-18.5));
#1461=CARTESIAN_POINT('',(-3.99999999999999,-8.8,-38.));
#1462=CARTESIAN_POINT('Origin',(-4.,-8.8,-37.5));
#1463=CARTESIAN_POINT('',(23.6,-8.8,-38.));
#1464=CARTESIAN_POINT('Origin',(15.9,-7.,-37.));
#1465=CARTESIAN_POINT('',(0.499999999999998,-7.,-38.));
#1466=CARTESIAN_POINT('',(23.6,-7.,-38.));
#1467=CARTESIAN_POINT('',(0.499999999999998,-7.,-36.));
#1468=CARTESIAN_POINT('',(0.5,-7.,-32.3));
#1469=CARTESIAN_POINT('',(26.1,-7.,-36.));
#1470=CARTESIAN_POINT('Origin',(15.9,-7.,-37.));
#1471=CARTESIAN_POINT('',(31.3,-7.,-36.));
#1472=CARTESIAN_POINT('',(26.1,-7.,-36.));
#1473=CARTESIAN_POINT('',(31.3,-7.,-32.3));
#1474=CARTESIAN_POINT('Origin',(36.3,-1.,-36.));
#1475=CARTESIAN_POINT('',(35.8,-2.,-36.));
#1476=CARTESIAN_POINT('',(35.8,-0.5,-36.));
#1477=CARTESIAN_POINT('',(31.3,-2.,-36.));
#1478=CARTESIAN_POINT('',(26.1,-2.,-36.));
#1479=CARTESIAN_POINT('',(31.3,-1.,-36.));
#1480=CARTESIAN_POINT('Origin',(36.3,-1.,-36.));
#1481=CARTESIAN_POINT('',(0.499999999999998,-2.,-36.));
#1482=CARTESIAN_POINT('',(0.499999999999998,-1.,-36.));
#1483=CARTESIAN_POINT('',(-4.,-2.,-36.));
#1484=CARTESIAN_POINT('',(26.1,-2.,-36.));
#1485=CARTESIAN_POINT('',(-4.,-0.5,-36.));
#1486=CARTESIAN_POINT('Origin',(33.8,-8.8,-1.));
#1487=CARTESIAN_POINT('',(31.3,-8.8,-2.));
#1488=CARTESIAN_POINT('',(31.3,-8.8,0.));
#1489=CARTESIAN_POINT('',(31.3,-8.8,-0.5));
#1490=CARTESIAN_POINT('',(36.3,-8.8,-2.));
#1491=CARTESIAN_POINT('',(32.55,-8.8,-2.));
#1492=CARTESIAN_POINT('',(36.3,-8.8,0.));
#1493=CARTESIAN_POINT('',(36.3,-8.8,-19.5));
#1494=CARTESIAN_POINT('',(35.05,-8.8,0.));
#1495=CARTESIAN_POINT('Origin',(-2.,-8.8,-1.));
#1496=CARTESIAN_POINT('',(0.5,-8.8,0.));
#1497=CARTESIAN_POINT('',(0.499999999999998,-8.8,-2.));
#1498=CARTESIAN_POINT('',(0.5,-8.8,-16.4));
#1499=CARTESIAN_POINT('',(-4.5,-8.8,0.));
#1500=CARTESIAN_POINT('',(-0.749999999999999,-8.8,0.));
#1501=CARTESIAN_POINT('',(-4.5,-8.8,-2.));
#1502=CARTESIAN_POINT('',(-4.5,-8.8,-0.5));
#1503=CARTESIAN_POINT('',(-3.25,-8.8,-2.));
#1504=CARTESIAN_POINT('Origin',(31.3,0.,0.));
#1505=CARTESIAN_POINT('',(31.3,0.,0.));
#1506=CARTESIAN_POINT('',(31.3,0.,0.));
#1507=CARTESIAN_POINT('',(31.3,0.,-31.8));
#1508=CARTESIAN_POINT('',(31.3,0.,0.));
#1509=CARTESIAN_POINT('',(31.3,-1.,-31.8));
#1510=CARTESIAN_POINT('',(31.3,0.,-31.8));
#1511=CARTESIAN_POINT('',(31.3,-1.,-3.));
#1512=CARTESIAN_POINT('',(31.3,-1.,0.));
#1513=CARTESIAN_POINT('',(31.3,-2.42814800674212,-2.));
#1514=CARTESIAN_POINT('',(31.3,-1.72630143144354,-2.49143826269073));
#1515=CARTESIAN_POINT('',(31.3,-1.,-2.));
#1516=CARTESIAN_POINT('Origin',(36.3,0.,0.));
#1517=CARTESIAN_POINT('',(36.3,2.2,0.));
#1518=CARTESIAN_POINT('',(36.3,0.,0.));
#1519=CARTESIAN_POINT('',(35.8,2.7,0.));
#1520=CARTESIAN_POINT('Origin',(35.8,2.2,0.));
#1521=CARTESIAN_POINT('',(31.3,2.7,0.));
#1522=CARTESIAN_POINT('',(31.8,2.7,0.));
#1523=CARTESIAN_POINT('',(31.3,1.7,0.));
#1524=CARTESIAN_POINT('',(31.3,1.7,0.));
#1525=CARTESIAN_POINT('',(32.375,1.7,0.));
#1526=CARTESIAN_POINT('',(31.8,1.7,0.));
#1527=CARTESIAN_POINT('',(32.375,0.,0.));
#1528=CARTESIAN_POINT('',(32.375,0.,0.));
#1529=CARTESIAN_POINT('',(31.8,0.,0.));
#1530=CARTESIAN_POINT('Origin',(0.5,0.,-31.8));
#1531=CARTESIAN_POINT('',(0.499999999999998,-2.42814800674212,-2.));
#1532=CARTESIAN_POINT('',(0.499999999999998,-1.,-2.));
#1533=CARTESIAN_POINT('',(0.5,-1.,-3.));
#1534=CARTESIAN_POINT('',(0.499999999999999,5.74425490380443,-7.72237812325167));
#1535=CARTESIAN_POINT('',(0.5,-1.,-31.8));
#1536=CARTESIAN_POINT('',(0.5,-1.,0.));
#1537=CARTESIAN_POINT('',(0.5,0.,-31.8));
#1538=CARTESIAN_POINT('',(0.5,0.,-31.8));
#1539=CARTESIAN_POINT('',(0.5,0.,0.));
#1540=CARTESIAN_POINT('',(0.5,0.,0.));
#1541=CARTESIAN_POINT('',(0.5,0.,0.));
#1542=CARTESIAN_POINT('Origin',(-4.5,-1.,-2.));
#1543=CARTESIAN_POINT('',(-4.5,-2.42814800674212,-2.));
#1544=CARTESIAN_POINT('',(-4.5,-1.,-2.));
#1545=CARTESIAN_POINT('',(5.7,-2.42814800674212,-2.));
#1546=CARTESIAN_POINT('Origin',(35.8,-0.5,-36.5));
#1547=CARTESIAN_POINT('',(36.3,-2.,-36.5));
#1548=CARTESIAN_POINT('',(36.3,-0.5,-36.5));
#1549=CARTESIAN_POINT('Origin',(35.8,-2.,-36.5));
#1550=CARTESIAN_POINT('Origin',(35.8,0.,-37.5));
#1551=CARTESIAN_POINT('',(36.3,2.2,-37.5));
#1552=CARTESIAN_POINT('Origin',(35.8,2.2,-37.5));
#1553=CARTESIAN_POINT('',(36.3,0.,-37.5));
#1554=CARTESIAN_POINT('Origin',(35.8,2.2,-37.5));
#1555=CARTESIAN_POINT('',(35.8,2.7,-37.5));
#1556=CARTESIAN_POINT('Origin',(35.8,2.2,-37.5));
#1557=CARTESIAN_POINT('Origin',(35.8,2.2,-37.5));
#1558=CARTESIAN_POINT('Origin',(23.6,2.2,-37.5));
#1559=CARTESIAN_POINT('',(31.3,2.7,-37.5));
#1560=CARTESIAN_POINT('Origin',(31.3,2.2,-37.5));
#1561=CARTESIAN_POINT('',(23.6,2.7,-37.5));
#1562=CARTESIAN_POINT('Origin',(35.8,2.2,-28.5));
#1563=CARTESIAN_POINT('',(36.3,2.2,-28.5));
#1564=CARTESIAN_POINT('',(35.8,2.7,-28.5));
#1565=CARTESIAN_POINT('Origin',(36.3,0.,-38.));
#1566=CARTESIAN_POINT('',(36.3,-2.42814800674212,-2.));
#1567=CARTESIAN_POINT('',(36.3,-1.,-2.));
#1568=CARTESIAN_POINT('',(36.3,-0.5,-3.35010376910486));
#1569=CARTESIAN_POINT('',(36.3,7.20077846602259,-8.74224690109688));
#1570=CARTESIAN_POINT('',(36.3,-0.5,-35.));
#1571=CARTESIAN_POINT('',(36.3,-0.5,-28.5));
#1572=CARTESIAN_POINT('Origin',(36.3,-2.,-35.));
#1573=CARTESIAN_POINT('Origin',(15.9,2.7,-19.));
#1574=CARTESIAN_POINT('',(31.3,2.7,-34.875));
#1575=CARTESIAN_POINT('',(31.3,2.7,-32.3));
#1576=CARTESIAN_POINT('',(0.5,2.7,-34.875));
#1577=CARTESIAN_POINT('',(32.375,2.7,-34.875));
#1578=CARTESIAN_POINT('',(0.5,2.7,-37.5));
#1579=CARTESIAN_POINT('',(0.5,2.7,-32.3));
#1580=CARTESIAN_POINT('',(-4.,2.7,-37.5));
#1581=CARTESIAN_POINT('',(23.6,2.7,-37.5));
#1582=CARTESIAN_POINT('',(-4.,2.7,0.));
#1583=CARTESIAN_POINT('',(-4.,2.7,-9.5));
#1584=CARTESIAN_POINT('',(0.5,2.7,0.));
#1585=CARTESIAN_POINT('',(0.,2.7,0.));
#1586=CARTESIAN_POINT('',(0.5,2.7,-31.8));
#1587=CARTESIAN_POINT('',(0.5,2.7,0.));
#1588=CARTESIAN_POINT('',(31.3,2.7,-31.8));
#1589=CARTESIAN_POINT('',(0.5,2.7,-31.8));
#1590=CARTESIAN_POINT('',(31.3,2.7,0.));
#1591=CARTESIAN_POINT('Origin',(-4.,2.2,-37.5));
#1592=CARTESIAN_POINT('',(-4.,2.2,-38.));
#1593=CARTESIAN_POINT('Origin',(-4.,2.2,-37.5));
#1594=CARTESIAN_POINT('',(-4.5,2.2,-37.5));
#1595=CARTESIAN_POINT('Origin',(-4.,2.2,-37.5));
#1596=CARTESIAN_POINT('Origin',(-4.,2.2,-37.5));
#1597=CARTESIAN_POINT('Origin',(-4.,0.,-37.5));
#1598=CARTESIAN_POINT('',(-4.5,0.,-37.5));
#1599=CARTESIAN_POINT('',(-4.,0.,-38.));
#1600=CARTESIAN_POINT('Origin',(-4.,2.2,-9.5));
#1601=CARTESIAN_POINT('',(-4.5,2.2,0.));
#1602=CARTESIAN_POINT('Origin',(-4.,2.2,0.));
#1603=CARTESIAN_POINT('',(-4.5,2.2,-9.5));
#1604=CARTESIAN_POINT('Origin',(23.6,2.2,-37.5));
#1605=CARTESIAN_POINT('',(0.5,2.2,-38.));
#1606=CARTESIAN_POINT('Origin',(0.499999999999998,2.2,-37.5));
#1607=CARTESIAN_POINT('',(23.6,2.2,-38.));
#1608=CARTESIAN_POINT('Origin',(31.3,0.,-38.));
#1609=CARTESIAN_POINT('',(0.5,0.,-38.));
#1610=CARTESIAN_POINT('Origin',(0.5,0.,-38.));
#1611=CARTESIAN_POINT('',(0.5,1.7,-34.875));
#1612=CARTESIAN_POINT('',(0.5,1.7,-34.875));
#1613=CARTESIAN_POINT('',(0.5,0.,-34.875));
#1614=CARTESIAN_POINT('',(0.5,0.,-34.875));
#1615=CARTESIAN_POINT('',(0.5,-1.,-34.875));
#1616=CARTESIAN_POINT('',(0.5,0.,-34.875));
#1617=CARTESIAN_POINT('',(0.5,-1.,-35.));
#1618=CARTESIAN_POINT('',(0.5,-1.,-32.3));
#1619=CARTESIAN_POINT('Origin',(0.499999999999998,-2.,-35.));
#1620=CARTESIAN_POINT('Origin',(35.8,-0.5,-28.5));
#1621=CARTESIAN_POINT('',(35.8,-1.,-35.));
#1622=CARTESIAN_POINT('Origin',(35.8,-0.5,-35.));
#1623=CARTESIAN_POINT('',(35.8,-1.,-3.));
#1624=CARTESIAN_POINT('Origin',(35.8,-0.5,-3.35010376910486));
#1625=CARTESIAN_POINT('',(35.8,-1.,-28.5));
#1626=CARTESIAN_POINT('Origin',(35.8,-2.,-35.));
#1627=CARTESIAN_POINT('Origin',(35.8,-2.,-35.));
#1628=CARTESIAN_POINT('Origin',(26.1,-2.,-35.));
#1629=CARTESIAN_POINT('',(31.3,-1.,-35.));
#1630=CARTESIAN_POINT('',(26.1,-1.,-35.));
#1631=CARTESIAN_POINT('Origin',(31.3,-2.,-35.));
#1632=CARTESIAN_POINT('Origin',(15.9,-1.,-19.));
#1633=CARTESIAN_POINT('',(23.6,-1.,-3.));
#1634=CARTESIAN_POINT('',(0.5,-1.,-31.8));
#1635=CARTESIAN_POINT('',(-4.,-1.,-3.));
#1636=CARTESIAN_POINT('',(5.7,-1.,-3.));
#1637=CARTESIAN_POINT('',(-4.,-1.,-35.));
#1638=CARTESIAN_POINT('',(-4.,-1.,-9.5));
#1639=CARTESIAN_POINT('',(26.1,-1.,-35.));
#1640=CARTESIAN_POINT('',(31.3,-1.,-34.875));
#1641=CARTESIAN_POINT('',(32.375,-1.,-34.875));
#1642=CARTESIAN_POINT('',(31.3,-1.,-32.3));
#1643=CARTESIAN_POINT('Origin',(-4.,-0.5,-9.5));
#1644=CARTESIAN_POINT('',(-4.5,-0.5,-35.));
#1645=CARTESIAN_POINT('Origin',(-4.,-0.5,-35.));
#1646=CARTESIAN_POINT('',(-4.5,-0.5,-3.35010376910486));
#1647=CARTESIAN_POINT('Origin',(-4.,-0.5,-3.35010376910486));
#1648=CARTESIAN_POINT('',(-4.5,-0.5,-9.5));
#1649=CARTESIAN_POINT('Origin',(-4.,-2.,-35.));
#1650=CARTESIAN_POINT('',(-4.5,-2.,-36.5));
#1651=CARTESIAN_POINT('Origin',(-4.,-2.,-36.5));
#1652=CARTESIAN_POINT('Origin',(-4.,-2.,-35.));
#1653=CARTESIAN_POINT('Origin',(-4.5,-2.,-35.));
#1654=CARTESIAN_POINT('Origin',(-4.,-0.5,-36.5));
#1655=CARTESIAN_POINT('',(-4.5,-0.5,-36.5));
#1656=CARTESIAN_POINT('Origin',(-4.5,0.,0.));
#1657=CARTESIAN_POINT('',(-4.5,0.,0.));
#1658=CARTESIAN_POINT('',(-4.5,-1.72630143144354,-2.49143826269073));
#1659=CARTESIAN_POINT('Origin',(5.7,-1.71407400337106,-2.5));
#1660=CARTESIAN_POINT('Origin',(23.6,-1.71407400337106,-2.5));
#1661=CARTESIAN_POINT('',(23.6,-2.42814800674212,-2.));
#1662=CARTESIAN_POINT('Origin',(26.1,-2.,-35.));
#1663=CARTESIAN_POINT('Origin',(31.3,-1.,-2.));
#1664=CARTESIAN_POINT('Origin',(31.3,1.7,-34.875));
#1665=CARTESIAN_POINT('',(31.3,1.7,-34.875));
#1666=CARTESIAN_POINT('',(32.375,1.7,-34.875));
#1667=CARTESIAN_POINT('',(31.3,1.7,-34.875));
#1668=CARTESIAN_POINT('Origin',(31.3,1.7,-31.8));
#1669=CARTESIAN_POINT('',(31.3,1.7,-31.8));
#1670=CARTESIAN_POINT('',(31.3,1.7,0.));
#1671=CARTESIAN_POINT('',(31.3,1.7,-31.8));
#1672=CARTESIAN_POINT('Origin',(0.5,1.7,-31.8));
#1673=CARTESIAN_POINT('',(0.5,1.7,-31.8));
#1674=CARTESIAN_POINT('',(0.5,1.7,-31.8));
#1675=CARTESIAN_POINT('',(0.5,1.7,-31.8));
#1676=CARTESIAN_POINT('Origin',(0.5,1.7,0.));
#1677=CARTESIAN_POINT('',(0.5,1.7,0.));
#1678=CARTESIAN_POINT('',(0.5,1.7,0.));
#1679=CARTESIAN_POINT('',(0.5,1.7,0.));
#1680=CARTESIAN_POINT('Origin',(15.9,1.7,-19.));
#1681=CARTESIAN_POINT('',(-0.575000000000001,1.7,-34.875));
#1682=CARTESIAN_POINT('',(15.9,1.7,-34.875));
#1683=CARTESIAN_POINT('',(32.375,1.7,-34.875));
#1684=CARTESIAN_POINT('',(32.375,1.7,-34.875));
#1685=CARTESIAN_POINT('',(32.375,1.7,-32.875));
#1686=CARTESIAN_POINT('',(-0.575000000000001,1.7,0.));
#1687=CARTESIAN_POINT('',(0.,1.7,0.));
#1688=CARTESIAN_POINT('',(-0.575,1.7,-32.875));
#1689=CARTESIAN_POINT('Origin',(-0.575000000000001,0.,-34.875));
#1690=CARTESIAN_POINT('',(-0.575000000000001,0.,-34.875));
#1691=CARTESIAN_POINT('',(7.6625,0.,-34.875));
#1692=CARTESIAN_POINT('',(-0.575000000000001,0.,-34.875));
#1693=CARTESIAN_POINT('Origin',(-0.575,0.,0.));
#1694=CARTESIAN_POINT('',(-0.575000000000001,0.,0.));
#1695=CARTESIAN_POINT('',(-0.575000000000001,0.,-9.5));
#1696=CARTESIAN_POINT('',(-0.575000000000001,0.,0.));
#1697=CARTESIAN_POINT('Origin',(31.3,0.,-34.875));
#1698=CARTESIAN_POINT('',(32.375,0.,-34.875));
#1699=CARTESIAN_POINT('',(31.3,0.,-34.875));
#1700=CARTESIAN_POINT('',(23.6,0.,-34.875));
#1701=CARTESIAN_POINT('',(32.375,0.,-34.875));
#1702=CARTESIAN_POINT('',(31.3,0.,-34.875));
#1703=CARTESIAN_POINT('Origin',(32.375,0.,-34.875));
#1704=CARTESIAN_POINT('',(32.375,0.,-26.9375));
#1705=CARTESIAN_POINT('Origin',(15.9,0.,-19.));
#1706=CARTESIAN_POINT('',(0.,0.,0.));
#1707=CARTESIAN_POINT('',(0.5,0.,-31.8));
#1708=CARTESIAN_POINT('',(32.375,0.,-34.875));
#1709=CARTESIAN_POINT('Origin',(31.3,0.,-31.8));
#1710=CARTESIAN_POINT('Origin',(31.3,0.,-34.875));
#1711=CARTESIAN_POINT('',(31.3,0.,-34.875));
#1712=CARTESIAN_POINT('Origin',(0.500000000000003,0.,-34.875));
#1713=CARTESIAN_POINT('Origin',(0.5,0.,0.));
#1714=UNCERTAINTY_MEASURE_WITH_UNIT(LENGTH_MEASURE(0.01),#1718,
'DISTANCE_ACCURACY_VALUE',
'Maximum model space distance between geometric entities at asserted c
onnectivities');
#1715=UNCERTAINTY_MEASURE_WITH_UNIT(LENGTH_MEASURE(0.01),#1718,
'DISTANCE_ACCURACY_VALUE',
'Maximum model space distance between geometric entities at asserted c
onnectivities');
#1716=(
GEOMETRIC_REPRESENTATION_CONTEXT(3)
GLOBAL_UNCERTAINTY_ASSIGNED_CONTEXT((#1714))
GLOBAL_UNIT_ASSIGNED_CONTEXT((#1718,#1720,#1721))
REPRESENTATION_CONTEXT('','3D')
);
#1717=(
GEOMETRIC_REPRESENTATION_CONTEXT(3)
GLOBAL_UNCERTAINTY_ASSIGNED_CONTEXT((#1715))
GLOBAL_UNIT_ASSIGNED_CONTEXT((#1718,#1720,#1721))
REPRESENTATION_CONTEXT('','3D')
);
#1718=(
LENGTH_UNIT()
NAMED_UNIT(*)
SI_UNIT(.MILLI.,.METRE.)
);
#1719=(
LENGTH_UNIT()
NAMED_UNIT(*)
SI_UNIT($,.METRE.)
);
#1720=(
NAMED_UNIT(*)
PLANE_ANGLE_UNIT()
SI_UNIT($,.RADIAN.)
);
#1721=(
NAMED_UNIT(*)
SI_UNIT($,.STERADIAN.)
SOLID_ANGLE_UNIT()
);
#1722=SHAPE_DEFINITION_REPRESENTATION(#1723,#1724);
#1723=PRODUCT_DEFINITION_SHAPE('',$,#1726);
#1724=SHAPE_REPRESENTATION('',(#1052),#1716);
#1725=PRODUCT_DEFINITION_CONTEXT('part definition',#1730,'design');
#1726=PRODUCT_DEFINITION('2026-07-21-14-16-20-285','Board Holder',#1727,
#1725);
#1727=PRODUCT_DEFINITION_FORMATION('',$,#1732);
#1728=PRODUCT_RELATED_PRODUCT_CATEGORY('Board Holder','Board Holder',(#1732));
#1729=APPLICATION_PROTOCOL_DEFINITION('international standard',
'automotive_design',2009,#1730);
#1730=APPLICATION_CONTEXT(
'Core Data for Automotive Mechanical Design Process');
#1731=PRODUCT_CONTEXT('part definition',#1730,'mechanical');
#1732=PRODUCT('2026-07-21-14-16-20-285','Board Holder',$,(#1731));
#1733=PRESENTATION_STYLE_ASSIGNMENT((#1734));
#1734=SURFACE_STYLE_USAGE(.BOTH.,#1735);
#1735=SURFACE_SIDE_STYLE('',(#1736));
#1736=SURFACE_STYLE_FILL_AREA(#1737);
#1737=FILL_AREA_STYLE('Steel - Satin',(#1738));
#1738=FILL_AREA_STYLE_COLOUR('Steel - Satin',#1739);
#1739=COLOUR_RGB('Steel - Satin',0.627450980392157,0.627450980392157,0.627450980392157);
ENDSEC;
END-ISO-10303-21;
