%TF.GenerationSoftware,KiCad,Pcbnew,9.0.7*%
%TF.CreationDate,2026-06-20T16:26:10-07:00*%
%TF.ProjectId,clock-radio,636c6f63-6b2d-4726-9164-696f2e6b6963,rev?*%
%TF.SameCoordinates,Original*%
%TF.FileFunction,Soldermask,Bot*%
%TF.FilePolarity,Negative*%
%FSLAX46Y46*%
G04 Gerber Fmt 4.6, Leading zero omitted, Abs format (unit mm)*
G04 Created by KiCad (PCBNEW 9.0.7) date 2026-06-20 16:26:10*
%MOMM*%
%LPD*%
G01*
G04 APERTURE LIST*
G04 Aperture macros list*
%AMRoundRect*
0 Rectangle with rounded corners*
0 $1 Rounding radius*
0 $2 $3 $4 $5 $6 $7 $8 $9 X,Y pos of 4 corners*
0 Add a 4 corners polygon primitive as box body*
4,1,4,$2,$3,$4,$5,$6,$7,$8,$9,$2,$3,0*
0 Add four circle primitives for the rounded corners*
1,1,$1+$1,$2,$3*
1,1,$1+$1,$4,$5*
1,1,$1+$1,$6,$7*
1,1,$1+$1,$8,$9*
0 Add four rect primitives between the rounded corners*
20,1,$1+$1,$2,$3,$4,$5,0*
20,1,$1+$1,$4,$5,$6,$7,0*
20,1,$1+$1,$6,$7,$8,$9,0*
20,1,$1+$1,$8,$9,$2,$3,0*%
%AMFreePoly0*
4,1,18,-0.900000,0.625000,0.275000,0.625000,0.372772,0.617305,0.523217,0.573597,0.658067,0.493847,0.768847,0.383067,0.848597,0.248217,0.892305,0.097772,0.900000,0.000000,0.892305,-0.097772,0.848597,-0.248217,0.768847,-0.383067,0.658067,-0.493847,0.523217,-0.573597,0.372772,-0.617305,0.275000,-0.625000,-0.900000,-0.625000,-0.900000,0.625000,-0.900000,0.625000,$1*%
G04 Aperture macros list end*
%ADD10RoundRect,0.250000X-1.050000X-1.050000X1.050000X-1.050000X1.050000X1.050000X-1.050000X1.050000X0*%
%ADD11C,2.200000*%
%ADD12O,1.000000X1.600000*%
%ADD13O,1.000000X2.100000*%
%ADD14C,0.650000*%
%ADD15R,1.700000X1.700000*%
%ADD16C,1.700000*%
%ADD17RoundRect,0.237500X0.300000X0.237500X-0.300000X0.237500X-0.300000X-0.237500X0.300000X-0.237500X0*%
%ADD18RoundRect,0.155000X-0.155000X0.212500X-0.155000X-0.212500X0.155000X-0.212500X0.155000X0.212500X0*%
%ADD19RoundRect,0.100000X0.712500X0.100000X-0.712500X0.100000X-0.712500X-0.100000X0.712500X-0.100000X0*%
%ADD20FreePoly0,180.000000*%
%ADD21FreePoly0,0.000000*%
%ADD22RoundRect,0.160000X-0.197500X-0.160000X0.197500X-0.160000X0.197500X0.160000X-0.197500X0.160000X0*%
%ADD23RoundRect,0.155000X0.212500X0.155000X-0.212500X0.155000X-0.212500X-0.155000X0.212500X-0.155000X0*%
%ADD24RoundRect,0.155000X0.155000X-0.212500X0.155000X0.212500X-0.155000X0.212500X-0.155000X-0.212500X0*%
%ADD25RoundRect,0.160000X0.197500X0.160000X-0.197500X0.160000X-0.197500X-0.160000X0.197500X-0.160000X0*%
G04 APERTURE END LIST*
D10*
%TO.C,J2*%
X141800000Y-39300000D03*
%TD*%
D11*
%TO.C,REF\u002A\u002A*%
X146200000Y-39600000D03*
%TD*%
D12*
%TO.C,J3*%
X149790000Y-38320000D03*
D13*
X149790000Y-42500000D03*
D12*
X158430000Y-38320000D03*
D13*
X158430000Y-42500000D03*
D14*
X151220000Y-42000000D03*
X157000000Y-42000000D03*
%TD*%
D15*
%TO.C,J4*%
X141800000Y-51580000D03*
D16*
X141800000Y-54120000D03*
X141800000Y-56660000D03*
X141800000Y-59200000D03*
%TD*%
D15*
%TO.C,J1*%
X159660000Y-66600000D03*
D16*
X162200000Y-66600000D03*
X164740000Y-66600000D03*
X167280000Y-66600000D03*
X169820000Y-66600000D03*
%TD*%
D15*
%TO.C,J7*%
X169975000Y-42250000D03*
D16*
X169975000Y-39710000D03*
%TD*%
D15*
%TO.C,J6*%
X141800000Y-65700000D03*
D16*
X141800000Y-63160000D03*
%TD*%
D17*
%TO.C,FB2*%
X164162500Y-59600000D03*
X162437500Y-59600000D03*
%TD*%
D18*
%TO.C,C11*%
X160897246Y-60897246D03*
X160897246Y-62032246D03*
%TD*%
D15*
%TO.C,J5*%
X170000000Y-59600000D03*
D16*
X170000000Y-57060000D03*
X170000000Y-54520000D03*
X170000000Y-51980000D03*
%TD*%
D19*
%TO.C,U6*%
X151162500Y-65125000D03*
X151162500Y-65775000D03*
X151162500Y-66425000D03*
X151162500Y-67075000D03*
X146937500Y-67075000D03*
X146937500Y-66425000D03*
X146937500Y-65775000D03*
X146937500Y-65125000D03*
%TD*%
D18*
%TO.C,C10*%
X162097246Y-60897246D03*
X162097246Y-62032246D03*
%TD*%
D20*
%TO.C,U3*%
X160150000Y-50500000D03*
X160150000Y-52500000D03*
X160150000Y-54500000D03*
X160150000Y-56500000D03*
X160150000Y-58500000D03*
D21*
X149350000Y-58500000D03*
X149350000Y-56500000D03*
X149350000Y-54500000D03*
X149350000Y-52500000D03*
X149350000Y-50500000D03*
%TD*%
D22*
%TO.C,R12*%
X148795000Y-63500000D03*
X147600000Y-63500000D03*
%TD*%
D18*
%TO.C,C19*%
X145100000Y-65600000D03*
X145100000Y-66735000D03*
%TD*%
D23*
%TO.C,C15*%
X150377500Y-62314052D03*
X151512500Y-62314052D03*
%TD*%
D24*
%TO.C,C16*%
X153300000Y-66717500D03*
X153300000Y-65582500D03*
%TD*%
D22*
%TO.C,R11*%
X148795000Y-62300000D03*
X147600000Y-62300000D03*
%TD*%
D25*
%TO.C,R10*%
X147637346Y-61000000D03*
X148832346Y-61000000D03*
%TD*%
D23*
%TO.C,C14*%
X150445000Y-61000000D03*
X151580000Y-61000000D03*
%TD*%
M02*
