%TF.GenerationSoftware,KiCad,Pcbnew,9.0.7*%
%TF.CreationDate,2026-06-20T16:26:10-07:00*%
%TF.ProjectId,clock-radio,636c6f63-6b2d-4726-9164-696f2e6b6963,rev?*%
%TF.SameCoordinates,Original*%
%TF.FileFunction,Copper,L4,Bot*%
%TF.FilePolarity,Positive*%
%FSLAX46Y46*%
G04 Gerber Fmt 4.6, Leading zero omitted, Abs format (unit mm)*
G04 Created by KiCad (PCBNEW 9.0.7) date 2026-06-20 16:26:10*
%MOMM*%
%LPD*%
G01*
G04 APERTURE LIST*
G04 Aperture macros list*
%AMRoundRect*
0 Rectangle with rounded corners*
0 $1 Rounding radius*
0 $2 $3 $4 $5 $6 $7 $8 $9 X,Y pos of 4 corners*
0 Add a 4 corners polygon primitive as box body*
4,1,4,$2,$3,$4,$5,$6,$7,$8,$9,$2,$3,0*
0 Add four circle primitives for the rounded corners*
1,1,$1+$1,$2,$3*
1,1,$1+$1,$4,$5*
1,1,$1+$1,$6,$7*
1,1,$1+$1,$8,$9*
0 Add four rect primitives between the rounded corners*
20,1,$1+$1,$2,$3,$4,$5,0*
20,1,$1+$1,$4,$5,$6,$7,0*
20,1,$1+$1,$6,$7,$8,$9,0*
20,1,$1+$1,$8,$9,$2,$3,0*%
%AMFreePoly0*
4,1,18,-0.900000,0.625000,0.275000,0.625000,0.372772,0.617305,0.523217,0.573597,0.658067,0.493847,0.768847,0.383067,0.848597,0.248217,0.892305,0.097772,0.900000,0.000000,0.892305,-0.097772,0.848597,-0.248217,0.768847,-0.383067,0.658067,-0.493847,0.523217,-0.573597,0.372772,-0.617305,0.275000,-0.625000,-0.900000,-0.625000,-0.900000,0.625000,-0.900000,0.625000,$1*%
G04 Aperture macros list end*
%TA.AperFunction,ComponentPad*%
%ADD10RoundRect,0.250000X-1.050000X-1.050000X1.050000X-1.050000X1.050000X1.050000X-1.050000X1.050000X0*%
%TD*%
%TA.AperFunction,HeatsinkPad*%
%ADD11O,1.000000X1.600000*%
%TD*%
%TA.AperFunction,HeatsinkPad*%
%ADD12O,1.000000X2.100000*%
%TD*%
%TA.AperFunction,ComponentPad*%
%ADD13R,1.700000X1.700000*%
%TD*%
%TA.AperFunction,ComponentPad*%
%ADD14C,1.700000*%
%TD*%
%TA.AperFunction,SMDPad,CuDef*%
%ADD15RoundRect,0.237500X0.300000X0.237500X-0.300000X0.237500X-0.300000X-0.237500X0.300000X-0.237500X0*%
%TD*%
%TA.AperFunction,SMDPad,CuDef*%
%ADD16RoundRect,0.155000X-0.155000X0.212500X-0.155000X-0.212500X0.155000X-0.212500X0.155000X0.212500X0*%
%TD*%
%TA.AperFunction,SMDPad,CuDef*%
%ADD17RoundRect,0.100000X0.712500X0.100000X-0.712500X0.100000X-0.712500X-0.100000X0.712500X-0.100000X0*%
%TD*%
%TA.AperFunction,SMDPad,CuDef*%
%ADD18FreePoly0,180.000000*%
%TD*%
%TA.AperFunction,SMDPad,CuDef*%
%ADD19FreePoly0,0.000000*%
%TD*%
%TA.AperFunction,SMDPad,CuDef*%
%ADD20RoundRect,0.160000X-0.197500X-0.160000X0.197500X-0.160000X0.197500X0.160000X-0.197500X0.160000X0*%
%TD*%
%TA.AperFunction,SMDPad,CuDef*%
%ADD21RoundRect,0.155000X0.212500X0.155000X-0.212500X0.155000X-0.212500X-0.155000X0.212500X-0.155000X0*%
%TD*%
%TA.AperFunction,SMDPad,CuDef*%
%ADD22RoundRect,0.155000X0.155000X-0.212500X0.155000X0.212500X-0.155000X0.212500X-0.155000X-0.212500X0*%
%TD*%
%TA.AperFunction,SMDPad,CuDef*%
%ADD23RoundRect,0.160000X0.197500X0.160000X-0.197500X0.160000X-0.197500X-0.160000X0.197500X-0.160000X0*%
%TD*%
%TA.AperFunction,ViaPad*%
%ADD24C,0.700000*%
%TD*%
%TA.AperFunction,Conductor*%
%ADD25C,0.300000*%
%TD*%
%TA.AperFunction,Conductor*%
%ADD26C,0.600000*%
%TD*%
%TA.AperFunction,Conductor*%
%ADD27C,0.200000*%
%TD*%
G04 APERTURE END LIST*
D10*
%TO.P,J2,1,Pin_1*%
%TO.N,Net-(J2-Pin_1)*%
X141800000Y-39300000D03*
%TD*%
D11*
%TO.P,J3,S1,SHIELD*%
%TO.N,Net-(J3-SHIELD)*%
X149790000Y-38320000D03*
D12*
X149790000Y-42500000D03*
D11*
X158430000Y-38320000D03*
D12*
X158430000Y-42500000D03*
%TD*%
D13*
%TO.P,J4,1,Pin_1*%
%TO.N,SWDIO*%
X141800000Y-51580000D03*
D14*
%TO.P,J4,2,Pin_2*%
%TO.N,SWCLK*%
X141800000Y-54120000D03*
%TO.P,J4,3,Pin_3*%
%TO.N,UART_TX*%
X141800000Y-56660000D03*
%TO.P,J4,4,Pin_4*%
%TO.N,UART_RX*%
X141800000Y-59200000D03*
%TD*%
D13*
%TO.P,J1,1,Pin_1*%
%TO.N,GND*%
X159660000Y-66600000D03*
D14*
%TO.P,J1,2,Pin_2*%
%TO.N,+3V3*%
X162200000Y-66600000D03*
%TO.P,J1,3,Pin_3*%
%TO.N,TIM2_CH1*%
X164740000Y-66600000D03*
%TO.P,J1,4,Pin_4*%
%TO.N,TIM2_CH2*%
X167280000Y-66600000D03*
%TO.P,J1,5,Pin_5*%
%TO.N,Button*%
X169820000Y-66600000D03*
%TD*%
D13*
%TO.P,J7,1,Pin_1*%
%TO.N,Net-(J7-Pin_1)*%
X169975000Y-42250000D03*
D14*
%TO.P,J7,2,Pin_2*%
%TO.N,GND*%
X169975000Y-39710000D03*
%TD*%
D13*
%TO.P,J6,1,Pin_1*%
%TO.N,Net-(J6-Pin_1)*%
X141800000Y-65700000D03*
D14*
%TO.P,J6,2,Pin_2*%
%TO.N,Net-(J6-Pin_2)*%
X141800000Y-63160000D03*
%TD*%
D15*
%TO.P,FB2,1*%
%TO.N,+3V3*%
X164162500Y-59600000D03*
%TO.P,FB2,2*%
%TO.N,Net-(U3-VDD)*%
X162437500Y-59600000D03*
%TD*%
D16*
%TO.P,C11,1*%
%TO.N,Net-(U3-VDD)*%
X160897246Y-60897246D03*
%TO.P,C11,2*%
%TO.N,GND*%
X160897246Y-62032246D03*
%TD*%
D13*
%TO.P,J5,1,Pin_1*%
%TO.N,GND*%
X170000000Y-59600000D03*
D14*
%TO.P,J5,2,Pin_2*%
%TO.N,+5V*%
X170000000Y-57060000D03*
%TO.P,J5,3,Pin_3*%
%TO.N,SCL*%
X170000000Y-54520000D03*
%TO.P,J5,4,Pin_4*%
%TO.N,SDA*%
X170000000Y-51980000D03*
%TD*%
D17*
%TO.P,U6,1,~{SD}*%
%TO.N,SD*%
X151162500Y-65125000D03*
%TO.P,U6,2,NC*%
%TO.N,unconnected-(U6-NC-Pad2)*%
X151162500Y-65775000D03*
%TO.P,U6,3,IN+*%
%TO.N,Net-(U6-IN+)*%
X151162500Y-66425000D03*
%TO.P,U6,4,IN-*%
%TO.N,Net-(U6-IN-)*%
X151162500Y-67075000D03*
%TO.P,U6,5,OUT+*%
%TO.N,Net-(J6-Pin_1)*%
X146937500Y-67075000D03*
%TO.P,U6,6,VDD*%
%TO.N,+5V*%
X146937500Y-66425000D03*
%TO.P,U6,7,GND*%
%TO.N,GND*%
X146937500Y-65775000D03*
%TO.P,U6,8,OUT-*%
%TO.N,Net-(J6-Pin_2)*%
X146937500Y-65125000D03*
%TD*%
D16*
%TO.P,C10,1*%
%TO.N,Net-(U3-VDD)*%
X162097246Y-60897246D03*
%TO.P,C10,2*%
%TO.N,GND*%
X162097246Y-62032246D03*
%TD*%
D18*
%TO.P,U3,1,SDIO*%
%TO.N,SDA*%
X160150000Y-50500000D03*
%TO.P,U3,2,SCLK*%
%TO.N,SCL*%
X160150000Y-52500000D03*
%TO.P,U3,3,N/C*%
%TO.N,unconnected-(U3-N{slash}C-Pad3)*%
X160150000Y-54500000D03*
%TO.P,U3,4,N/C*%
%TO.N,unconnected-(U3-N{slash}C-Pad4)*%
X160150000Y-56500000D03*
%TO.P,U3,5,VDD*%
%TO.N,Net-(U3-VDD)*%
X160150000Y-58500000D03*
D19*
%TO.P,U3,6,GND*%
%TO.N,GND*%
X149350000Y-58500000D03*
%TO.P,U3,7,ROUT*%
%TO.N,unconnected-(U3-ROUT-Pad7)*%
X149350000Y-56500000D03*
%TO.P,U3,8,LOUT*%
%TO.N,Net-(U3-LOUT)*%
X149350000Y-54500000D03*
%TO.P,U3,9,N/C*%
%TO.N,unconnected-(U3-N{slash}C-Pad9)*%
X149350000Y-52500000D03*
%TO.P,U3,10,FMIN*%
%TO.N,Net-(J2-Pin_1)*%
X149350000Y-50500000D03*
%TD*%
D20*
%TO.P,R12,2*%
%TO.N,Net-(U6-IN+)*%
X148795000Y-63500000D03*
%TO.P,R12,1*%
%TO.N,Net-(R10-Pad2)*%
X147600000Y-63500000D03*
%TD*%
D16*
%TO.P,C19,1*%
%TO.N,GND*%
X145100000Y-65600000D03*
%TO.P,C19,2*%
%TO.N,+5V*%
X145100000Y-66735000D03*
%TD*%
D21*
%TO.P,C15,2*%
%TO.N,Net-(C15-Pad2)*%
X150377500Y-62314052D03*
%TO.P,C15,1*%
%TO.N,DAC1*%
X151512500Y-62314052D03*
%TD*%
D22*
%TO.P,C16,1*%
%TO.N,Net-(U6-IN-)*%
X153300000Y-66717500D03*
%TO.P,C16,2*%
%TO.N,GND*%
X153300000Y-65582500D03*
%TD*%
D20*
%TO.P,R11,2*%
%TO.N,Net-(C15-Pad2)*%
X148795000Y-62300000D03*
%TO.P,R11,1*%
%TO.N,Net-(R10-Pad2)*%
X147600000Y-62300000D03*
%TD*%
D23*
%TO.P,R10,2*%
%TO.N,Net-(R10-Pad2)*%
X147637346Y-61000000D03*
%TO.P,R10,1*%
%TO.N,Net-(C14-Pad2)*%
X148832346Y-61000000D03*
%TD*%
D21*
%TO.P,C14,2*%
%TO.N,Net-(C14-Pad2)*%
X150445000Y-61000000D03*
%TO.P,C14,1*%
%TO.N,Net-(U3-LOUT)*%
X151580000Y-61000000D03*
%TD*%
D24*
%TO.N,+5V*%
X146400000Y-61400000D03*
%TO.N,GND*%
X140500000Y-47750000D03*
X150000000Y-44600000D03*
X146100000Y-59550000D03*
X163100000Y-61100000D03*
X165900000Y-41100000D03*
X157400000Y-66600000D03*
X170000000Y-49700000D03*
X158250000Y-44750000D03*
X151800000Y-48200000D03*
X156200000Y-64400000D03*
X140500000Y-44250000D03*
X152400000Y-63000000D03*
X140500000Y-46250000D03*
X161635000Y-40400000D03*
X144050000Y-65250000D03*
X168900000Y-62100000D03*
X154400000Y-65600000D03*
%TO.N,+5V*%
X167600000Y-55600000D03*
X144100000Y-66650000D03*
X151400000Y-44600000D03*
X156600000Y-44800000D03*
X155000000Y-48100000D03*
X160000000Y-44000000D03*
%TO.N,DAC1*%
X157850000Y-56850000D03*
%TO.N,+3V3*%
X160000000Y-64400000D03*
X160000000Y-62300000D03*
X170000000Y-47300000D03*
X163400000Y-58600000D03*
X165800000Y-61100000D03*
%TO.N,TIM2_CH2*%
X159250000Y-60750000D03*
X163796041Y-64453959D03*
%TO.N,Button*%
X166500000Y-64500000D03*
X164248959Y-60751041D03*
%TO.N,SDA*%
X163610000Y-50460000D03*
%TO.N,SCL*%
X164310000Y-53200000D03*
X162850000Y-52500000D03*
%TO.N,UART_RX*%
X147900000Y-57700000D03*
X144400000Y-58600000D03*
%TO.N,SWDIO*%
X152700000Y-51700000D03*
X144600000Y-52000000D03*
%TO.N,RTC_INT*%
X167800000Y-47000000D03*
X162000000Y-54000000D03*
%TO.N,SD*%
X157550000Y-53750000D03*
%TD*%
D25*
%TO.N,Net-(R10-Pad2)*%
X147600000Y-62300000D02*
X147600000Y-63500000D01*
X147637346Y-61000000D02*
X147637346Y-62262654D01*
X147637346Y-62262654D02*
X147600000Y-62300000D01*
%TO.N,Net-(C14-Pad2)*%
X150445000Y-61000000D02*
X148832346Y-61000000D01*
%TO.N,DAC1*%
X157850000Y-56850000D02*
X157558636Y-56850000D01*
X157558636Y-56850000D02*
X152094584Y-62314052D01*
X152094584Y-62314052D02*
X151512500Y-62314052D01*
%TO.N,Net-(U3-LOUT)*%
X151580000Y-61000000D02*
X151580000Y-56730000D01*
X151580000Y-56730000D02*
X149350000Y-54500000D01*
%TO.N,Net-(C15-Pad2)*%
X148795000Y-62300000D02*
X150363448Y-62300000D01*
X150363448Y-62300000D02*
X150377500Y-62314052D01*
%TO.N,Net-(U6-IN+)*%
X148795000Y-63500000D02*
X148795000Y-64869999D01*
X148795000Y-64869999D02*
X150350001Y-66425000D01*
X150350001Y-66425000D02*
X151162500Y-66425000D01*
%TO.N,SD*%
X151162500Y-65125000D02*
X151425000Y-65125000D01*
X151425000Y-65125000D02*
X158550000Y-58000000D01*
%TO.N,GND*%
X145100000Y-65600000D02*
X144400000Y-65600000D01*
D26*
X160897246Y-62032246D02*
X162097246Y-62032246D01*
D27*
X153300000Y-65582500D02*
X154382500Y-65582500D01*
D26*
X163100000Y-61339492D02*
X163100000Y-61100000D01*
D25*
X149800000Y-58950000D02*
X149350000Y-58500000D01*
D26*
X162097246Y-62032246D02*
X162407246Y-62032246D01*
D25*
X148300000Y-59550000D02*
X146100000Y-59550000D01*
X149350000Y-58500000D02*
X148300000Y-59550000D01*
D26*
X162407246Y-62032246D02*
X163100000Y-61339492D01*
D25*
X144400000Y-65600000D02*
X144050000Y-65250000D01*
X145100000Y-65600000D02*
X145275000Y-65775000D01*
D27*
X154382500Y-65582500D02*
X154400000Y-65600000D01*
D25*
X145275000Y-65775000D02*
X146937500Y-65775000D01*
%TO.N,+5V*%
X144185000Y-66735000D02*
X144100000Y-66650000D01*
X145100000Y-66735000D02*
X145410000Y-66425000D01*
X145100000Y-66735000D02*
X144185000Y-66735000D01*
X145410000Y-66425000D02*
X146937500Y-66425000D01*
D26*
%TO.N,+3V3*%
X164162500Y-59600000D02*
X164300000Y-59600000D01*
X164300000Y-59600000D02*
X165800000Y-61100000D01*
D25*
%TO.N,TIM2_CH2*%
X161164009Y-64453959D02*
X159250000Y-62539950D01*
X159250000Y-62539950D02*
X159250000Y-60750000D01*
X163796041Y-64453959D02*
X161164009Y-64453959D01*
%TO.N,Button*%
X166500000Y-64500000D02*
X164248959Y-62248959D01*
X164248959Y-62248959D02*
X164248959Y-60751041D01*
%TO.N,SDA*%
X163610000Y-50460000D02*
X163570000Y-50500000D01*
X163570000Y-50500000D02*
X160150000Y-50500000D01*
X163450000Y-50500000D02*
X163550000Y-50400000D01*
%TO.N,SCL*%
X162850000Y-52500000D02*
X163610000Y-52500000D01*
X163610000Y-52500000D02*
X164310000Y-53200000D01*
X160150000Y-52500000D02*
X162850000Y-52500000D01*
D26*
%TO.N,Net-(J2-Pin_1)*%
X141800000Y-42950000D02*
X141800000Y-39300000D01*
X149350000Y-50500000D02*
X141800000Y-42950000D01*
D25*
%TO.N,UART_RX*%
X147000000Y-58600000D02*
X147900000Y-57700000D01*
X144400000Y-58600000D02*
X147000000Y-58600000D01*
%TO.N,SWDIO*%
X152400000Y-51700000D02*
X152700000Y-51700000D01*
X144600000Y-52000000D02*
X145125000Y-51475000D01*
X152175000Y-51475000D02*
X152400000Y-51700000D01*
X145125000Y-51475000D02*
X152175000Y-51475000D01*
%TO.N,Net-(J6-Pin_1)*%
X146560000Y-67452500D02*
X143552500Y-67452500D01*
X146937500Y-67075000D02*
X146560000Y-67452500D01*
X143552500Y-67452500D02*
X141800000Y-65700000D01*
X141800000Y-65828347D02*
X141800000Y-65700000D01*
%TO.N,RTC_INT*%
X164800000Y-54000000D02*
X167800000Y-51000000D01*
X167800000Y-51000000D02*
X167800000Y-47000000D01*
X162000000Y-54000000D02*
X164800000Y-54000000D01*
%TO.N,SD*%
X158550000Y-58000000D02*
X158550000Y-54750000D01*
X158550000Y-54750000D02*
X157550000Y-53750000D01*
D26*
%TO.N,Net-(U3-VDD)*%
X162097246Y-59940254D02*
X162437500Y-59600000D01*
X160897246Y-59247246D02*
X160150000Y-58500000D01*
X160897246Y-60897246D02*
X160897246Y-59247246D01*
X161250000Y-59600000D02*
X160150000Y-58500000D01*
X162437500Y-59600000D02*
X161250000Y-59600000D01*
X162097246Y-60897246D02*
X162097246Y-59940254D01*
D25*
%TO.N,Net-(U3-LOUT)*%
X149300000Y-54450000D02*
X149350000Y-54500000D01*
D27*
%TO.N,Net-(U6-IN-)*%
X152942500Y-67075000D02*
X153300000Y-66717500D01*
X151162500Y-67075000D02*
X152942500Y-67075000D01*
D25*
%TO.N,Net-(J6-Pin_2)*%
X142650000Y-64010000D02*
X144760000Y-64010000D01*
X145875000Y-65125000D02*
X146937500Y-65125000D01*
X144760000Y-64010000D02*
X145875000Y-65125000D01*
X141894152Y-63160000D02*
X141800000Y-63160000D01*
X141800000Y-63160000D02*
X142650000Y-64010000D01*
%TD*%
M02*
