M48
; DRILL file {KiCad 9.0.7} date 2026-06-20T16:28:14-0700
; FORMAT={-:-/ absolute / metric / decimal}
; #@! TF.CreationDate,2026-06-20T16:28:14-07:00
; #@! TF.GenerationSoftware,Kicad,Pcbnew,9.0.7
; #@! TF.FileFunction,Plated,1,4,PTH
FMAT,2
METRIC
; #@! TA.AperFunction,Plated,PTH,ViaDrill
T1C0.300
; #@! TA.AperFunction,Plated,PTH,ComponentDrill
T2C0.600
; #@! TA.AperFunction,Plated,PTH,ComponentDrill
T3C1.000
; #@! TA.AperFunction,Plated,PTH,ComponentDrill
T4C1.600
%
G90
G05
T1
X140.5Y-44.25
X140.5Y-46.25
X140.5Y-47.75
X144.05Y-65.25
X144.1Y-66.65
X144.4Y-58.6
X144.6Y-52.0
X146.1Y-59.55
X146.4Y-61.4
X147.9Y-57.7
X150.0Y-44.6
X151.4Y-44.6
X151.8Y-48.2
X152.4Y-63.0
X152.7Y-51.7
X154.4Y-65.6
X155.0Y-48.1
X156.2Y-64.4
X156.6Y-44.8
X157.4Y-66.6
X157.55Y-53.75
X157.85Y-56.85
X158.25Y-44.75
X159.25Y-60.75
X160.0Y-44.0
X160.0Y-62.3
X160.0Y-64.4
X161.635Y-40.4
X162.0Y-54.0
X162.85Y-52.5
X163.1Y-61.1
X163.4Y-58.6
X163.61Y-50.46
X163.796Y-64.454
X164.249Y-60.751
X164.31Y-53.2
X165.8Y-61.1
X165.9Y-41.1
X166.5Y-64.5
X167.6Y-55.6
X167.8Y-47.0
X168.9Y-62.1
X170.0Y-47.3
X170.0Y-49.7
T3
X141.8Y-51.58
X141.8Y-54.12
X141.8Y-56.66
X141.8Y-59.2
X141.8Y-63.16
X141.8Y-65.7
X159.66Y-66.6
X162.2Y-66.6
X164.74Y-66.6
X167.28Y-66.6
X169.82Y-66.6
X169.975Y-39.71
X169.975Y-42.25
X170.0Y-51.98
X170.0Y-54.52
X170.0Y-57.06
X170.0Y-59.6
T4
X141.8Y-39.3
T2
X149.79Y-38.62G85X149.79Y-38.02
G05
X149.79Y-43.05G85X149.79Y-41.95
G05
X158.43Y-38.62G85X158.43Y-38.02
G05
X158.43Y-43.05G85X158.43Y-41.95
G05
M30
