%TF.GenerationSoftware,KiCad,Pcbnew,9.0.7*%
%TF.CreationDate,2026-06-20T16:26:10-07:00*%
%TF.ProjectId,clock-radio,636c6f63-6b2d-4726-9164-696f2e6b6963,rev?*%
%TF.SameCoordinates,Original*%
%TF.FileFunction,Paste,Top*%
%TF.FilePolarity,Positive*%
%FSLAX46Y46*%
G04 Gerber Fmt 4.6, Leading zero omitted, Abs format (unit mm)*
G04 Created by KiCad (PCBNEW 9.0.7) date 2026-06-20 16:26:10*
%MOMM*%
%LPD*%
G01*
G04 APERTURE LIST*
G04 Aperture macros list*
%AMRoundRect*
0 Rectangle with rounded corners*
0 $1 Rounding radius*
0 $2 $3 $4 $5 $6 $7 $8 $9 X,Y pos of 4 corners*
0 Add a 4 corners polygon primitive as box body*
4,1,4,$2,$3,$4,$5,$6,$7,$8,$9,$2,$3,0*
0 Add four circle primitives for the rounded corners*
1,1,$1+$1,$2,$3*
1,1,$1+$1,$4,$5*
1,1,$1+$1,$6,$7*
1,1,$1+$1,$8,$9*
0 Add four rect primitives between the rounded corners*
20,1,$1+$1,$2,$3,$4,$5,0*
20,1,$1+$1,$4,$5,$6,$7,0*
20,1,$1+$1,$6,$7,$8,$9,0*
20,1,$1+$1,$8,$9,$2,$3,0*%
%AMOutline4P*
0 Free polygon, 4 corners , with rotation*
0 The origin of the aperture is its center*
0 number of corners: always 4*
0 $1 to $8 corner X, Y*
0 $9 Rotation angle, in degrees counterclockwise*
0 create outline with 4 corners*
4,1,4,$1,$2,$3,$4,$5,$6,$7,$8,$1,$2,$9*%
G04 Aperture macros list end*
%ADD10RoundRect,0.150000X0.150000X0.500000X-0.150000X0.500000X-0.150000X-0.500000X0.150000X-0.500000X0*%
%ADD11RoundRect,0.075000X0.075000X0.575000X-0.075000X0.575000X-0.075000X-0.575000X0.075000X-0.575000X0*%
%ADD12RoundRect,0.155000X0.212500X0.155000X-0.212500X0.155000X-0.212500X-0.155000X0.212500X-0.155000X0*%
%ADD13RoundRect,0.155000X-0.155000X0.212500X-0.155000X-0.212500X0.155000X-0.212500X0.155000X0.212500X0*%
%ADD14RoundRect,0.160000X-0.160000X0.197500X-0.160000X-0.197500X0.160000X-0.197500X0.160000X0.197500X0*%
%ADD15RoundRect,0.150000X0.150000X-0.587500X0.150000X0.587500X-0.150000X0.587500X-0.150000X-0.587500X0*%
%ADD16RoundRect,0.160000X0.160000X-0.197500X0.160000X0.197500X-0.160000X0.197500X-0.160000X-0.197500X0*%
%ADD17RoundRect,0.155000X-0.212500X-0.155000X0.212500X-0.155000X0.212500X0.155000X-0.212500X0.155000X0*%
%ADD18R,1.700000X0.900000*%
%ADD19RoundRect,0.160000X0.197500X0.160000X-0.197500X0.160000X-0.197500X-0.160000X0.197500X-0.160000X0*%
%ADD20RoundRect,0.093750X-0.093750X0.156250X-0.093750X-0.156250X0.093750X-0.156250X0.093750X0.156250X0*%
%ADD21RoundRect,0.075000X-0.075000X0.250000X-0.075000X-0.250000X0.075000X-0.250000X0.075000X0.250000X0*%
%ADD22RoundRect,0.237500X-0.300000X-0.237500X0.300000X-0.237500X0.300000X0.237500X-0.300000X0.237500X0*%
%ADD23RoundRect,0.075000X0.075000X-0.662500X0.075000X0.662500X-0.075000X0.662500X-0.075000X-0.662500X0*%
%ADD24RoundRect,0.075000X0.662500X-0.075000X0.662500X0.075000X-0.662500X0.075000X-0.662500X-0.075000X0*%
%ADD25RoundRect,0.155000X0.155000X-0.212500X0.155000X0.212500X-0.155000X0.212500X-0.155000X-0.212500X0*%
%ADD26RoundRect,0.160000X-0.197500X-0.160000X0.197500X-0.160000X0.197500X0.160000X-0.197500X0.160000X0*%
%ADD27Outline4P,-1.800000X-1.150000X1.800000X-0.550000X1.800000X0.550000X-1.800000X1.150000X0.000000*%
%ADD28Outline4P,-1.800000X-1.150000X1.800000X-0.550000X1.800000X0.550000X-1.800000X1.150000X180.000000*%
%ADD29RoundRect,0.150000X0.825000X0.150000X-0.825000X0.150000X-0.825000X-0.150000X0.825000X-0.150000X0*%
G04 APERTURE END LIST*
D10*
%TO.C,J3*%
X157310000Y-43140000D03*
X156510000Y-43140000D03*
D11*
X155860000Y-43140000D03*
X154860000Y-43140000D03*
X153360000Y-43140000D03*
X152360000Y-43140000D03*
D10*
X151710000Y-43140000D03*
X150910000Y-43140000D03*
X150910000Y-43140000D03*
X151710000Y-43140000D03*
D11*
X152860000Y-43140000D03*
X153860000Y-43140000D03*
X154360000Y-43140000D03*
X155360000Y-43140000D03*
D10*
X156510000Y-43140000D03*
X157310000Y-43140000D03*
%TD*%
D12*
%TO.C,C1*%
X156000000Y-62000000D03*
X154865000Y-62000000D03*
%TD*%
D13*
%TO.C,C4*%
X168700000Y-47965000D03*
X168700000Y-49100000D03*
%TD*%
D14*
%TO.C,R14*%
X166992837Y-41102500D03*
X166992837Y-42297500D03*
%TD*%
D15*
%TO.C,U4*%
X147100000Y-64200000D03*
X149000000Y-64200000D03*
X148050000Y-62325000D03*
%TD*%
D12*
%TO.C,C2*%
X156000000Y-60750000D03*
X154865000Y-60750000D03*
%TD*%
D16*
%TO.C,R3*%
X166500000Y-63490654D03*
X166500000Y-62295654D03*
%TD*%
D17*
%TO.C,C3*%
X156182500Y-63250000D03*
X157317500Y-63250000D03*
%TD*%
%TO.C,C12*%
X147465000Y-66200000D03*
X148600000Y-66200000D03*
%TD*%
%TO.C,C18*%
X160600000Y-41430000D03*
X161735000Y-41430000D03*
%TD*%
D18*
%TO.C,SW1*%
X147100000Y-56500000D03*
X147100000Y-53100000D03*
%TD*%
D12*
%TO.C,C6*%
X153500000Y-62000000D03*
X152365000Y-62000000D03*
%TD*%
D19*
%TO.C,R1*%
X148995000Y-59400000D03*
X147800000Y-59400000D03*
%TD*%
%TO.C,R13*%
X161665000Y-38000000D03*
X160470000Y-38000000D03*
%TD*%
D20*
%TO.C,U5*%
X154037500Y-45950000D03*
D21*
X153500000Y-45875000D03*
D20*
X152962500Y-45950000D03*
X152962500Y-47650000D03*
D21*
X153500000Y-47725000D03*
D20*
X154037500Y-47650000D03*
%TD*%
D22*
%TO.C,FB1*%
X152525000Y-64250000D03*
X154250000Y-64250000D03*
%TD*%
D16*
%TO.C,R6*%
X162600000Y-57595000D03*
X162600000Y-56400000D03*
%TD*%
D23*
%TO.C,U2*%
X152250000Y-58662500D03*
X152750000Y-58662500D03*
X153250000Y-58662500D03*
X153750000Y-58662500D03*
X154250000Y-58662500D03*
X154750000Y-58662500D03*
X155250000Y-58662500D03*
X155750000Y-58662500D03*
X156250000Y-58662500D03*
X156750000Y-58662500D03*
X157250000Y-58662500D03*
X157750000Y-58662500D03*
D24*
X159162500Y-57250000D03*
X159162500Y-56750000D03*
X159162500Y-56250000D03*
X159162500Y-55750000D03*
X159162500Y-55250000D03*
X159162500Y-54750000D03*
X159162500Y-54250000D03*
X159162500Y-53750000D03*
X159162500Y-53250000D03*
X159162500Y-52750000D03*
X159162500Y-52250000D03*
X159162500Y-51750000D03*
D23*
X157750000Y-50337500D03*
X157250000Y-50337500D03*
X156750000Y-50337500D03*
X156250000Y-50337500D03*
X155750000Y-50337500D03*
X155250000Y-50337500D03*
X154750000Y-50337500D03*
X154250000Y-50337500D03*
X153750000Y-50337500D03*
X153250000Y-50337500D03*
X152750000Y-50337500D03*
X152250000Y-50337500D03*
D24*
X150837500Y-51750000D03*
X150837500Y-52250000D03*
X150837500Y-52750000D03*
X150837500Y-53250000D03*
X150837500Y-53750000D03*
X150837500Y-54250000D03*
X150837500Y-54750000D03*
X150837500Y-55250000D03*
X150837500Y-55750000D03*
X150837500Y-56250000D03*
X150837500Y-56750000D03*
X150837500Y-57250000D03*
%TD*%
D25*
%TO.C,C7*%
X167700000Y-63467500D03*
X167700000Y-62332500D03*
%TD*%
D12*
%TO.C,C20*%
X161635000Y-39400000D03*
X160500000Y-39400000D03*
%TD*%
D16*
%TO.C,R4*%
X164200000Y-57595000D03*
X164200000Y-56400000D03*
%TD*%
%TO.C,R9*%
X151800000Y-47230000D03*
X151800000Y-46035000D03*
%TD*%
%TO.C,R5*%
X165189605Y-63490654D03*
X165189605Y-62295654D03*
%TD*%
D25*
%TO.C,C8*%
X163889605Y-63495654D03*
X163889605Y-62360654D03*
%TD*%
%TO.C,C9*%
X162489605Y-63463154D03*
X162489605Y-62328154D03*
%TD*%
D12*
%TO.C,C5*%
X153500000Y-60750000D03*
X152365000Y-60750000D03*
%TD*%
D26*
%TO.C,R2*%
X146502500Y-51000000D03*
X147697500Y-51000000D03*
%TD*%
D27*
%TO.C,D1*%
X143200000Y-47300000D03*
D28*
X149000000Y-47300000D03*
%TD*%
D17*
%TO.C,C17*%
X160600000Y-43000000D03*
X161735000Y-43000000D03*
%TD*%
D19*
%TO.C,R8*%
X158000000Y-46000000D03*
X156805000Y-46000000D03*
%TD*%
D25*
%TO.C,C4*%
X167000000Y-49135000D03*
X167000000Y-48000000D03*
%TD*%
D17*
%TO.C,C13*%
X144165000Y-43200000D03*
X145300000Y-43200000D03*
%TD*%
D29*
%TO.C,U1*%
X165150000Y-49010000D03*
X165150000Y-47740000D03*
X165150000Y-46470000D03*
X165150000Y-45200000D03*
X160200000Y-45200000D03*
X160200000Y-46470000D03*
X160200000Y-47740000D03*
X160200000Y-49010000D03*
%TD*%
D16*
%TO.C,R7*%
X161089605Y-63495654D03*
X161089605Y-62300654D03*
%TD*%
M02*
